<?xml version="1.0" encoding="UTF-8" standalone="no"?><!DOCTYPE svg PUBLIC "-//W3C//DTD SVG 1.1//EN" "http://www.w3.org/Graphics/SVG/1.1/DTD/svg11.dtd"><svg width="100%" height="100%" viewBox="0 0 1319 864" version="1.1" xmlns="http://www.w3.org/2000/svg" xmlns:xlink="http://www.w3.org/1999/xlink" xml:space="preserve" xmlns:serif="http://www.serif.com/" style="fill-rule:evenodd;clip-rule:evenodd;stroke-linejoin:round;stroke-miterlimit:2;"><rect id="sb-dark-bg-logo-lockup-vertical" serif:id="sb dark bg logo lockup vertical" x="0" y="0" width="1318.95" height="863.616" style="fill:none;"/><clipPath id="_clip1"><rect x="0" y="0" width="1318.95" height="863.616"/></clipPath><g clip-path="url(#_clip1)"><g id="logo-lockup-vertical" serif:id="logo lockup vertical"><g><path d="M359.647,618.777c80.386,0 125.529,-49.002 140.972,-109.515c3.168,-12.333 4.752,-24.008 4.752,-35.025c0,-43.247 -25.739,-74.49 -89.692,-74.49c-80.386,0 -125.529,49.167 -140.972,109.515c-3.168,12.333 -4.752,24.172 -4.752,35.19c0,43.247 25.739,74.326 89.692,74.326Zm3.96,-15.622c-18.414,0 -24.551,-12.333 -24.551,-31.243c0,-16.937 4.95,-39.136 10.89,-62.651c12.87,-49.825 27.125,-93.729 61.774,-93.729c18.414,0 24.551,12.333 24.551,31.243c0,16.937 -4.95,38.972 -10.89,62.486c-12.87,49.989 -27.125,93.894 -61.774,93.894Z" style="fill:#faf9d4;fill-rule:nonzero;"/><path d="M827.904,618.613l2.376,-9.373c-4.158,-2.138 -5.544,-6.249 -5.544,-11.182c0,-2.795 0.396,-5.755 1.188,-8.88l34.451,-134.839c-32.669,22.199 -63.754,49.167 -94.048,73.668l-15.642,61.171c-2.178,8.551 -6.732,16.773 -14.652,20.061l-2.376,9.373l94.246,0Zm-257.393,0.164c24.155,-0.164 49.301,-8.222 74.644,-21.212c5.346,13.813 20.591,21.048 40.589,21.048l32.867,0l2.376,-9.373c-3.96,-2.138 -5.544,-6.413 -5.544,-11.511c0,-2.631 0.396,-5.591 1.188,-8.551l12.078,-47.029c74.446,-57.553 145.526,-126.781 196.213,-126.781c40.589,0 0,60.349 43.955,60.349c19.007,0 29.699,-9.537 32.669,-20.884c0.594,-2.138 0.792,-4.275 0.792,-6.413c0,-6.249 -2.178,-12.333 -6.336,-17.759c-14.85,-19.075 -36.431,-31.079 -67.12,-31.079c-20.195,0 -42.569,8.386 -65.734,21.541c-4.95,-14.142 -20.591,-21.541 -40.589,-21.541l-32.867,0l-2.376,9.373c3.96,2.138 5.346,6.249 5.346,11.182c0,2.795 -0.396,5.92 -1.188,8.88l-13.662,53.442c-24.155,19.568 -48.707,40.123 -72.664,58.869c-28.709,22.035 -60.784,35.354 -85.336,35.354c-18.216,0 -32.273,-7.235 -37.817,-23.679c-1.188,-3.618 -1.782,-7.4 -1.782,-11.346c0,-3.124 0.396,-6.084 1.188,-9.209c4.356,-17.266 21.779,-34.861 60.586,-42.26c56.231,-10.688 114.045,-17.924 122.559,-50.647c0.594,-2.138 0.792,-4.111 0.792,-5.92c0,-22.528 -35.639,-34.039 -83.752,-34.039c-36.827,0 -79.594,9.209 -109.887,33.545c-8.118,6.413 -13.068,13.813 -14.652,20.555c-0.396,1.809 -0.792,3.618 -0.792,5.426c0,9.373 7.524,16.608 22.769,16.608c39.005,0 40.193,-60.349 78.604,-60.349c18.216,0 28.511,10.36 28.511,22.364c0,1.809 -0.198,3.618 -0.594,5.426c-2.574,10.031 -12.474,20.226 -31.283,25.652c-54.647,18.746 -129.885,25.323 -144.536,82.877c-1.584,5.92 -2.178,11.511 -2.178,16.773c0,29.763 22.769,50.318 62.566,50.318l0.396,0Z" style="fill:#faf9d4;fill-rule:nonzero;"/><g><path d="M1104.212,356.193l2.663,-10.505c-4.66,-2.396 -6.214,-7.003 -6.214,-12.532c0,-3.133 0.444,-6.451 1.331,-9.952l38.612,-151.126c-13.244,9 -39.077,28.713 -39.077,28.713c0,0 -44.659,36.326 -66.33,53.854l-17.531,68.56c-2.441,9.584 -7.545,18.799 -16.421,22.485l-2.663,10.505l105.63,0Zm-288.484,0.184c27.073,-0.184 55.256,-9.215 83.66,-23.775c5.992,15.481 23.079,23.59 45.492,23.59l36.837,0l2.663,-10.505c-4.438,-2.396 -6.214,-7.188 -6.214,-12.901c0,-2.949 0.444,-6.266 1.331,-9.584l13.537,-52.71c26.691,-20.635 49.622,-44.429 78.292,-62.953c7.328,-4.735 25.085,-17.319 25.085,-17.319c0,0 85.625,-61.823 116.537,-61.823c45.492,0 0,67.638 49.264,67.638c21.303,0 33.287,-10.689 36.615,-23.406c0.666,-2.396 0.888,-4.792 0.888,-7.188c0,-7.003 -2.441,-13.823 -7.101,-19.904c-16.643,-21.379 -40.832,-34.833 -75.228,-34.833c-22.635,0 -47.711,9.399 -73.674,24.143c-5.548,-15.85 -23.079,-24.143 -45.492,-24.143l-36.837,0l-2.663,10.505c4.438,2.396 5.992,7.003 5.992,12.532c0,3.133 -0.444,6.635 -1.331,9.952l-15.312,59.898c-27.073,21.932 -54.59,44.969 -81.441,65.979c-32.177,24.696 -68.127,39.625 -95.644,39.625c-20.416,0 -36.171,-8.109 -42.385,-26.539c-1.331,-4.055 -1.997,-8.294 -1.997,-12.717c0,-3.502 0.444,-6.819 1.331,-10.321c4.882,-19.352 24.41,-39.072 67.905,-47.365c63.023,-11.98 127.821,-20.089 137.363,-56.764c0.666,-2.396 0.888,-4.608 0.888,-6.635c0,-25.249 -39.944,-38.15 -93.868,-38.15c-41.275,0 -89.208,10.321 -123.161,37.597c-9.098,7.188 -14.646,15.481 -16.421,23.038c-0.444,2.027 -0.888,4.055 -0.888,6.082c0,10.505 8.433,18.614 25.52,18.614c43.716,0 45.048,-67.638 88.099,-67.638c20.416,0 31.955,11.611 31.955,25.065c0,2.027 -0.222,4.055 -0.666,6.082c-2.885,11.242 -13.98,22.669 -35.062,28.751c-61.247,21.01 -145.574,28.382 -161.995,92.887c-1.775,6.635 -2.441,12.901 -2.441,18.799c0,33.358 25.52,56.396 70.124,56.396l0.444,0Z" style="fill:#faf9d4;fill-rule:nonzero;"/><path d="M609.329,360.276c27.43,0 58.232,-7.638 83.638,-19.376c16.188,-7.452 24.057,-16.395 26.305,-24.778c0.45,-1.677 0.674,-3.167 0.674,-4.658c0,-11.923 -11.916,-21.611 -26.98,-21.611c-4.946,0 -10.342,0.932 -15.738,3.353c-24.732,10.806 -24.732,48.252 -50.812,48.625c-6.295,0 -11.242,-2.422 -11.242,-11.178c0,-2.236 0.225,-5.03 1.124,-8.384l49.463,-192.265l21.584,0c44.292,0 44.742,35.584 75.993,35.584c17.762,0 35.524,-11.923 39.346,-26.641c0.45,-1.863 0.674,-3.54 0.674,-5.403c0,-12.11 -10.792,-21.425 -26.305,-21.425l-106.795,0l5.621,-21.984c1.124,-4.471 1.799,-8.756 1.799,-12.669c0,-23.66 -20.46,-36.143 -48.114,-36.143l-37.322,0l-2.698,10.619c4.721,2.422 6.295,7.08 6.295,12.669c0,3.167 -0.45,6.521 -1.349,10.06l-55.084,214.807c-1.799,6.707 -2.473,12.855 -2.473,18.63c0,33.535 27.879,52.165 72.396,52.165Z" style="fill:#faf9d4;fill-rule:nonzero;"/><path d="M814.649,360.462c35.299,-1.118 62.503,-15.836 82.514,-36.888l0,0.745c0,23.474 20.235,35.956 48.114,35.956l37.322,0l2.698,-10.619c-4.497,-2.422 -6.07,-7.08 -6.07,-12.669c0,-3.167 0.45,-6.521 1.349,-10.06l15.513,-60.176c1.124,-4.471 1.574,-8.57 1.574,-12.482c0,-23.847 -20.235,-36.329 -48.114,-36.329l-26.755,0l-8.319,32.417c-2.473,9.874 -6.745,19.748 -11.916,29.25c-12.591,23.847 -28.104,33.162 -41.819,33.162c-19.336,0 -35.299,-18.444 -35.299,-39.683c0,-3.54 0.45,-6.893 1.349,-10.433c5.171,-19.562 24.956,-39.31 68.799,-47.694c64.077,-12.11 129.504,-20.493 138.946,-57.568c0.674,-2.422 0.899,-4.658 0.899,-6.893c0,-25.71 -40.92,-38.006 -96.003,-38.192c-41.594,0 -89.483,10.433 -123.658,37.819c-9.218,7.266 -14.839,15.649 -16.862,23.288c-0.45,2.049 -0.674,3.912 -0.674,5.775c0,10.992 8.319,19.189 26.081,19.189c44.292,0 45.641,-68.373 89.258,-68.373c20.46,0 32.151,11.737 32.151,25.337c0,2.049 -0.225,4.099 -0.674,6.148c-2.923,11.364 -14.164,22.915 -35.299,29.063c-62.503,21.239 -147.49,28.691 -164.353,94.083c-1.574,6.521 -2.473,13.041 -2.473,19.003c0,33.162 24.282,56.822 67.899,56.822l3.822,0Z" style="fill:#faf9d4;fill-rule:nonzero;"/></g><path d="M1231.976,609.22c-0.603,0 -8.171,0.159 -15.436,2.012c-4.258,1.086 -8.862,3.632 -13.188,5.091c-4.685,1.581 -8.943,2.038 -9.294,2.086c-0.544,0.074 -6.793,0.367 -6.793,0.367c-37.619,0 -66.922,-3.453 -79.594,-20.061c-16.632,11.84 -36.431,20.061 -57.022,20.061c-46.133,0 -66.13,-33.216 -66.13,-73.832c0,-11.675 1.584,-24.008 4.752,-36.176c14.058,-54.593 57.616,-108.858 117.411,-108.858c20.591,0 36.035,8.222 46.727,20.061l29.699,-115.764c0.792,-2.96 1.188,-5.92 1.188,-8.551c0,-5.098 -1.584,-9.373 -5.544,-11.511l2.376,-9.373l32.867,0c24.551,0 42.173,11.017 42.173,32.065c0,3.289 -0.396,7.071 -1.386,11.017l-69.496,271.486c-0.792,3.124 -1.188,6.084 -1.188,8.88c0,4.933 1.386,9.044 5.544,11.182c0,0 0.548,0.349 1.183,0.593c0.488,0.188 1.079,0.284 1.204,0.293c3.16,0.216 12.216,-4.273 21.648,-6.991c10.209,-2.942 20.786,-4.141 22.784,-4.141c34.749,0 59.185,7.652 75.999,19.811c4.708,3.459 7.174,7.337 7.174,11.32c0,1.363 -0.224,2.725 -0.897,4.088c-3.363,7.233 -15.469,13.312 -36.991,13.312c-49.769,0 -3.811,-38.469 -49.769,-38.469Zm-134.799,-27.606c5.544,0 11.286,-2.631 17.226,-8.88l28.313,-110.995c1.188,-4.44 1.782,-8.551 1.782,-12.497c0,-21.212 -16.434,-33.052 -35.045,-33.052c-20.195,0 -43.163,13.977 -51.083,44.727c-2.178,8.715 -3.366,18.417 -3.366,28.612c0,42.918 19.007,92.085 42.173,92.085Z" style="fill:#faf9d4;"/><path d="M338.862,366.226c101.508,0 173.954,-60.517 189.748,-122.083c2.106,-8.22 3.159,-16.441 3.159,-24.661c0,-47.574 -37.065,-90.775 -124.463,-101.27c-41.909,-5.072 -79.816,-8.395 -85.713,-28.509c-0.632,-2.624 -1.053,-5.247 -1.053,-7.871c0,-2.624 0.421,-5.422 1.053,-8.046c7.16,-27.985 50.333,-56.494 99.402,-56.494c38.118,0 62.547,20.114 62.547,46.525c0,3.848 -0.421,7.696 -1.474,11.719c-0.421,1.924 -0.632,3.673 -0.632,5.422c0,11.369 9.687,19.764 24.219,19.764c17.48,0 32.643,-12.068 36.012,-25.361c0.632,-1.749 0.842,-3.498 0.842,-5.247c0,-1.749 -0.211,-3.498 -0.842,-5.247c-12.846,-44.775 -62.126,-64.715 -116.671,-64.715c-74.762,0 -159.422,37.255 -175.217,98.996c-1.685,6.646 -2.527,12.593 -2.527,18.015c0,89.026 210.387,41.977 210.387,126.806c0,4.897 -0.842,10.319 -2.317,16.266c-12.004,43.376 -59.388,86.228 -112.038,89.376l-5.476,0.175c-37.697,0 -63.6,-21.688 -63.6,-57.194c0,-6.821 1.053,-14.167 2.948,-21.863c6.318,-25.011 22.534,-46 37.276,-46c7.582,0.35 12.846,5.947 12.846,17.316c0,4.023 -0.632,8.57 -1.895,13.992c-0.421,1.924 -0.632,3.673 -0.632,5.422c0,11.369 9.477,19.764 23.798,19.764c17.901,0 33.274,-12.418 36.433,-25.186c0.421,-1.749 0.632,-3.498 0.632,-5.247c0,-3.148 -0.842,-6.297 -2.527,-9.095c-15.374,-24.836 -49.28,-35.156 -79.185,-35.156c-53.071,0 -94.769,33.407 -104.035,69.612c-1.264,5.072 -1.895,10.144 -1.895,15.042c0,38.304 38.961,75.034 140.89,75.034Z" style="fill:#faf9d4;fill-rule:nonzero;"/><path d="M181.377,245.921l-8.792,33.139l-16.42,62.555l-19.855,78.358c16.632,-11.84 36.233,-20.061 57.022,-20.061c48.509,0 65.338,39.794 65.338,77.779c0,11.017 -1.386,22.035 -3.96,31.736c-11.088,42.918 -55.043,109.351 -117.411,109.351l-136.616,0l2.376,-9.373c7.92,-3.289 12.474,-11.511 14.652,-20.061l72.862,-285.135c0,-0.267 0.363,-1.855 0.963,-4.307c0.698,-4.276 6.177,-21.739 7.441,-26.687l18.204,-71.238c0.761,-3.004 1.142,-5.849 1.142,-8.537c0,-1.685 -0.168,-3.27 -0.556,-4.706c-10.3,1.52 -19.21,2.985 -23.414,4.295c-44.833,13.973 13.6,53.257 -34.951,68.389c-20.995,6.543 -34.954,1.807 -40.791,-7.183c-1.138,-1.682 -1.838,-3.5 -2.32,-5.387c-1.408,-5.514 -0.374,-11.633 2.996,-17.854c12.104,-21.945 33.237,-39.968 67.135,-50.533c8.922,-2.781 19.124,-6.237 29.046,-6.782c6.528,-0.359 14.168,-0.733 19.434,-0.733c4.062,0 12.164,0.733 12.164,0.733c4.899,0.442 9.261,1.031 13.26,2.247c28.48,8.657 31.333,28.579 29.053,39.418l-8.001,30.578Zm-69.96,271.328c-3.545,13.247 -10.154,39.864 -10.154,39.864c-1.188,4.44 -1.782,8.551 -1.782,12.333c0,21.212 16.434,33.052 35.045,33.052c20.195,0 43.163,-13.977 51.083,-44.891c2.178,-8.715 3.366,-18.417 3.366,-28.448c0,-43.083 -19.007,-92.085 -42.173,-92.085c-4.935,0 -10.027,2.085 -15.276,6.951c-4.531,24.107 -15.065,54.376 -20.109,73.225Z" style="fill:#faf9d4;"/></g><g><g><g><path d="M668.282,799.612c-1.541,9.167 -6.12,64.155 -6.156,64.155c-0.696,-4.072 -4.905,-61.898 -4.995,-62.43c-0.055,-0.326 -0.11,-0.653 -0.165,-0.979c-0.025,-0.151 -0.051,-0.302 -0.077,-0.453c-0.035,-0.205 -0.069,-0.411 -0.104,-0.616c-0.01,-0.06 -0.02,-0.12 -0.031,-0.181c-0.044,-0.267 -0.069,-0.49 -0.069,-0.767c-0.961,0.674 -1.911,1.377 -2.861,2.085c-0.215,0.16 -0.431,0.321 -0.646,0.481c-0.372,0.277 -0.743,0.553 -1.115,0.83c-0.537,0.4 -1.075,0.8 -1.612,1.2c-0.872,0.649 -1.745,1.299 -2.617,1.948c-0.052,0.039 -0.104,0.077 -0.158,0.117c-0.741,0.552 -1.482,1.103 -2.222,1.655c-0.052,0.039 -0.105,0.078 -0.159,0.118c-0.052,0.039 -0.105,0.078 -0.158,0.118c-0.871,0.648 -1.741,1.297 -2.612,1.945c-0.537,0.399 -1.073,0.799 -1.609,1.199c-0.366,0.273 -0.733,0.546 -1.1,0.819c-0.212,0.157 -0.423,0.315 -0.635,0.473c-0.193,0.144 -0.387,0.288 -0.58,0.432c-0.07,0.052 -0.14,0.105 -0.211,0.157c-0.095,0.071 -0.19,0.141 -0.285,0.212c-0.053,0.039 -0.106,0.079 -0.16,0.119c-0.125,0.083 -0.125,0.083 -0.232,0.083c0.072,-0.342 0.16,-0.655 0.268,-0.975c0.016,-0.048 0.032,-0.096 0.049,-0.146c0.054,-0.161 0.108,-0.321 0.162,-0.481c0.039,-0.116 0.078,-0.233 0.117,-0.349c0.107,-0.32 0.215,-0.639 0.323,-0.958c0.116,-0.345 0.232,-0.689 0.348,-1.034c0.201,-0.597 0.402,-1.194 0.603,-1.791c0.291,-0.863 0.581,-1.727 0.872,-2.59c0.471,-1.401 0.943,-2.802 1.414,-4.203c0.042,-0.126 0.042,-0.126 0.086,-0.254c0.2,-0.595 0.401,-1.191 0.601,-1.786c0.229,-0.681 0.458,-1.361 0.687,-2.042c0.028,-0.084 0.056,-0.168 0.086,-0.254c0.47,-1.396 0.94,-2.792 1.409,-4.188c0.29,-0.862 0.58,-1.723 0.87,-2.585c0.199,-0.59 0.397,-1.179 0.596,-1.769c0.115,-0.341 0.229,-0.681 0.344,-1.022c0.105,-0.311 0.21,-0.623 0.314,-0.934c0.038,-0.113 0.076,-0.226 0.114,-0.339c0.052,-0.153 0.103,-0.306 0.154,-0.459c0.029,-0.085 0.057,-0.17 0.087,-0.258c0.068,-0.187 0.068,-0.187 0.061,-0.359c-0.035,-0.013 -13.467,-5.008 -17.742,-6.598c-0.035,-0.013 -6.484,-2.411 -6.627,-2.464c0.143,-0.212 0.296,-0.246 0.487,-0.315c0.06,-0.022 0.06,-0.022 0.12,-0.045c0.135,-0.05 0.269,-0.1 0.404,-0.149c0.097,-0.036 0.194,-0.072 0.291,-0.108c0.267,-0.1 0.535,-0.198 0.802,-0.297c0.288,-0.106 0.576,-0.214 0.864,-0.321c0.499,-0.185 0.999,-0.371 1.498,-0.555c0.722,-0.267 1.445,-0.535 2.167,-0.804c1.172,-0.435 2.344,-0.87 3.516,-1.304c0.035,-0.013 0.07,-0.026 0.106,-0.039c0.284,-0.105 0.569,-0.211 0.853,-0.316c0.819,-0.303 1.637,-0.607 2.456,-0.91c0.035,-0.013 0.07,-0.026 0.106,-0.039c1.203,-0.446 2.406,-0.892 3.608,-1.339c0.721,-0.268 1.441,-0.535 2.162,-0.802c0.494,-0.183 0.987,-0.366 1.481,-0.549c0.285,-0.106 0.57,-0.212 0.855,-0.317c0.261,-0.096 0.522,-0.193 0.782,-0.29c0.095,-0.035 0.189,-0.07 0.284,-0.105c0.128,-0.047 0.256,-0.095 0.384,-0.143c0.037,-0.014 0.074,-0.027 0.113,-0.041c0.181,-0.068 0.325,-0.148 0.494,-0.274c-2.998,-8.919 -5.996,-17.839 -9.085,-27.028c0.035,-0.026 0.071,-0.052 0.107,-0.079c0.127,0.075 0.127,0.075 0.29,0.196c0.062,0.046 0.124,0.092 0.188,0.139c0.069,0.052 0.139,0.104 0.208,0.156c0.073,0.054 0.147,0.109 0.22,0.163c0.202,0.15 0.404,0.301 0.606,0.452c0.217,0.162 0.435,0.324 0.653,0.486c0.377,0.281 0.755,0.562 1.132,0.843c0.545,0.407 1.091,0.813 1.636,1.219c0.885,0.659 1.77,1.318 2.655,1.977c0.86,0.641 1.719,1.282 2.579,1.922c0.053,0.039 0.106,0.079 0.161,0.12c0.266,0.198 0.531,0.396 0.797,0.593c2.206,1.642 4.411,3.286 6.617,4.929c0.106,-0.158 0.092,-0.456 0.11,-0.673c0.005,-0.062 0.011,-0.123 0.016,-0.187c0.017,-0.204 0.034,-0.407 0.051,-0.611c0.012,-0.142 0.024,-0.283 0.036,-0.425c0.079,-0.932 6.858,-63.731 6.894,-63.731c0.004,0.044 6.586,61.457 6.711,62.807c0.007,0.08 0.015,0.16 0.022,0.242c0.037,0.398 0.074,0.796 0.111,1.194c0.014,0.145 0.027,0.291 0.04,0.437c0.006,0.067 0.013,0.134 0.019,0.203c0.006,0.062 0.011,0.124 0.017,0.188c0.005,0.054 0.01,0.108 0.015,0.164c0.011,0.157 0.011,0.315 0.011,0.472c0.037,-0.028 0.075,-0.056 0.114,-0.085c2.219,-1.653 4.439,-3.306 6.659,-4.959c0.266,-0.198 0.533,-0.396 0.799,-0.595c0.08,-0.059 0.08,-0.059 0.161,-0.12c0.859,-0.64 1.719,-1.28 2.578,-1.92c0.881,-0.656 1.762,-1.313 2.644,-1.968c0.544,-0.405 1.088,-0.81 1.632,-1.216c0.373,-0.278 0.745,-0.555 1.118,-0.832c0.215,-0.16 0.431,-0.32 0.646,-0.481c0.197,-0.147 0.394,-0.293 0.591,-0.44c0.071,-0.053 0.143,-0.106 0.214,-0.16c0.097,-0.072 0.193,-0.144 0.29,-0.216c0.054,-0.04 0.108,-0.08 0.163,-0.121c0.134,-0.085 0.134,-0.085 0.294,-0.085c-2.998,8.919 -5.996,17.839 -9.085,27.028c0.301,0.149 0.593,0.289 0.9,0.401c0.039,0.015 0.079,0.029 0.12,0.045c0.131,0.049 0.263,0.097 0.394,0.146c0.095,0.035 0.191,0.071 0.286,0.107c0.262,0.097 0.523,0.194 0.785,0.291c0.283,0.105 0.565,0.21 0.847,0.315c0.489,0.182 0.979,0.363 1.468,0.545c0.708,0.262 1.415,0.525 2.123,0.788c1.148,0.427 2.297,0.853 3.445,1.279c0.034,0.013 0.069,0.025 0.104,0.039c0.767,0.285 1.534,0.569 2.301,0.854c0.313,0.116 0.627,0.232 0.94,0.349c0.034,0.013 0.069,0.026 0.104,0.039c1.179,0.437 2.358,0.875 3.538,1.313c0.706,0.262 1.412,0.524 2.118,0.786c0.483,0.179 0.967,0.359 1.45,0.538c0.279,0.104 0.558,0.207 0.837,0.311c0.255,0.094 0.511,0.189 0.766,0.284c0.093,0.034 0.185,0.069 0.278,0.103c0.125,0.046 0.251,0.093 0.376,0.14c0.055,0.02 0.055,0.02 0.11,0.04c0.175,0.066 0.332,0.139 0.489,0.272c-0.128,0.19 -0.204,0.21 -0.379,0.274c-0.058,0.021 -0.115,0.043 -0.174,0.065c-0.063,0.023 -0.127,0.046 -0.192,0.07c-0.102,0.038 -0.204,0.075 -0.306,0.113c-0.11,0.04 -0.22,0.081 -0.33,0.121c-0.232,0.085 -0.464,0.17 -0.695,0.255c-0.282,0.104 -0.565,0.208 -0.848,0.312c-0.491,0.18 -0.981,0.362 -1.471,0.544c-0.052,0.019 -0.052,0.019 -0.106,0.039c-0.175,0.065 -0.351,0.131 -0.526,0.196c-0.319,0.119 -0.639,0.238 -0.958,0.357c-0.178,0.066 -0.356,0.133 -0.535,0.199c-0.071,0.026 -0.284,0.106 -0.321,0.119c-2.601,0.967 -10.331,3.842 -10.58,3.934c-0.052,0.02 -0.052,0.02 -0.106,0.039c-0.071,0.026 -0.141,0.052 -0.212,0.079c-0.177,0.066 -0.353,0.131 -0.53,0.197c-0.317,0.118 -0.634,0.236 -0.951,0.353c-0.176,0.065 -0.352,0.131 -0.527,0.196c-0.053,0.02 -0.053,0.02 -0.106,0.04c-0.512,0.19 -1.024,0.381 -1.536,0.572c-0.298,0.111 -0.595,0.222 -0.893,0.333c-0.245,0.091 -0.491,0.183 -0.736,0.275c-0.151,0.057 -0.302,0.113 -0.454,0.169c-0.104,0.039 -0.209,0.078 -0.313,0.117c-0.062,0.023 -0.124,0.046 -0.187,0.07c-0.081,0.03 -0.081,0.03 -0.164,0.061c-0.128,0.043 -0.128,0.043 -0.235,0.043c0.02,0.06 0.041,0.121 0.062,0.183c1.205,3.58 2.41,7.161 3.615,10.742c0.144,0.43 0.289,0.859 0.433,1.289c0.043,0.128 0.043,0.128 0.087,0.259c0.466,1.386 0.933,2.773 1.4,4.159c0.479,1.421 0.957,2.843 1.435,4.265c0.295,0.878 0.591,1.756 0.886,2.633c0.202,0.601 0.405,1.202 0.607,1.804c0.117,0.347 0.234,0.695 0.351,1.042c0.107,0.317 0.214,0.635 0.32,0.953c0.039,0.115 0.078,0.231 0.117,0.346c0.053,0.156 0.105,0.312 0.157,0.468c0.044,0.13 0.044,0.13 0.089,0.263c0.062,0.213 0.062,0.213 0.062,0.452c-9.364,-6.965 -9.364,-6.965 -18.918,-14.071c-0.071,0.42 -0.141,0.839 -0.214,1.272Z" style="fill:#faf9d4;fill-rule:nonzero;"/></g><path d="M744.434,803.541c-27.351,-0.105 -55.822,-5.241 -84.518,-13.522c-10.099,-2.914 -94.606,-35.324 -94.606,-35.324c-84.294,-36.687 -164.776,-80.816 -222.168,-80.816c-45.958,0 0,38.469 -49.769,38.469c-21.522,0 -33.628,-6.08 -36.991,-13.312c-0.673,-1.363 -0.897,-2.725 -0.897,-4.088c0,-3.983 2.466,-7.861 7.174,-11.32c16.814,-12.159 41.25,-19.811 75.999,-19.811c22.867,0 48.2,5.346 74.43,13.731c28.445,9.094 96.624,39.098 96.624,39.098c27.351,12.473 55.15,25.576 82.276,37.525c32.507,14.046 89.339,35.487 117.138,35.487c20.625,0 43.913,-3.244 47.704,-15.094c4.43,-13.846 46.038,-36.768 56.429,-13.789c1.793,3.773 2.466,7.337 2.466,10.692c0,18.972 -25.781,32.075 -70.843,32.075l-0.448,0Z" style="fill:#faf9d4;fill-rule:nonzero;"/><path d="M744.434,803.541c-27.351,-0.105 -55.822,-5.241 -84.518,-13.522c-10.099,-2.914 -94.606,-35.324 -94.606,-35.324c-84.294,-36.687 -164.776,-80.816 -222.168,-80.816c-45.958,0 0,38.469 -49.769,38.469c-21.522,0 -33.628,-6.08 -36.991,-13.312c-0.673,-1.363 -0.897,-2.725 -0.897,-4.088c0,-3.983 2.466,-7.861 7.174,-11.32c16.814,-12.159 41.25,-19.811 75.999,-19.811c22.867,0 48.2,5.346 74.43,13.731c28.445,9.094 96.624,39.098 96.624,39.098c27.351,12.473 55.15,25.576 82.276,37.525c32.507,14.046 89.339,35.487 117.138,35.487c20.625,0 43.913,-3.244 47.704,-15.094c4.43,-13.846 46.038,-36.768 56.429,-13.789c1.793,3.773 2.466,7.337 2.466,10.692c0,18.972 -25.781,32.075 -70.843,32.075l-0.448,0Z" style="fill:#faf9d4;fill-rule:nonzero;"/></g><path d="M575.881,803.541c27.351,-0.105 55.822,-5.241 84.518,-13.522c10.099,-2.914 94.606,-35.324 94.606,-35.324c84.294,-36.687 164.776,-80.816 222.168,-80.816c45.958,0 0,38.469 49.769,38.469c21.522,0 33.628,-6.08 36.991,-13.312c0.673,-1.363 0.897,-2.725 0.897,-4.088c0,-3.983 -2.466,-7.861 -7.174,-11.32c-16.814,-12.159 -41.25,-19.811 -75.999,-19.811c-22.867,0 -48.2,5.346 -74.43,13.731c-28.445,9.094 -96.624,39.098 -96.624,39.098c-27.351,12.473 -55.15,25.576 -82.276,37.525c-32.507,14.046 -89.339,35.487 -117.138,35.487c-20.625,0 -43.913,-3.244 -47.704,-15.094c-4.43,-13.846 -46.038,-36.768 -56.429,-13.789c-1.793,3.773 -2.466,7.337 -2.466,10.692c0,18.972 25.781,32.075 70.843,32.075l0.448,0Z" style="fill:#faf9d4;fill-rule:nonzero;"/></g></g></g></svg>