<?xml version="1.0" encoding="UTF-8" standalone="no"?><!DOCTYPE svg PUBLIC "-//W3C//DTD SVG 1.1//EN" "http://www.w3.org/Graphics/SVG/1.1/DTD/svg11.dtd"><svg width="100%" height="100%" viewBox="0 0 1611 624" version="1.1" xmlns="http://www.w3.org/2000/svg" xmlns:xlink="http://www.w3.org/1999/xlink" xml:space="preserve" xmlns:serif="http://www.serif.com/" style="fill-rule:evenodd;clip-rule:evenodd;stroke-linejoin:round;stroke-miterlimit:2;"><rect id="sb-dark-bg-logo-lockup-horizontal" serif:id="sb dark bg logo lockup horizontal" x="0" y="0" width="1610.032" height="623.967" style="fill:none;"/><clipPath id="_clip1"><rect x="0" y="0" width="1610.032" height="623.967"/></clipPath><g clip-path="url(#_clip1)"><g id="logo-lockup-horizontal" serif:id="logo lockup horizontal"><g><g><g><path d="M907.514,541.766c-41.656,-0.145 -85.019,-7.225 -128.723,-18.641c-15.382,-4.018 -144.088,-48.698 -144.088,-48.698c-128.382,-50.576 -250.959,-111.413 -338.368,-111.413c-69.995,0 0,53.033 -75.8,53.033c-32.778,0 -51.216,-8.381 -56.338,-18.352c-1.024,-1.879 -1.366,-3.757 -1.366,-5.636c0,-5.491 3.756,-10.838 10.926,-15.606c25.608,-16.762 62.825,-27.311 115.749,-27.311c34.827,0 73.41,7.37 113.359,18.93c43.322,12.537 147.161,53.9 147.161,53.9c41.656,17.196 83.995,35.259 125.309,51.732c49.509,19.364 136.067,48.922 178.405,48.922c31.413,0 66.88,-4.472 72.654,-20.809c6.747,-19.089 70.117,-50.688 85.943,-19.01c2.732,5.202 3.756,10.115 3.756,14.739c0,26.155 -39.266,44.218 -107.895,44.218l-0.683,0Z" style="fill:#faf9d4;fill-rule:nonzero;"/><path d="M650.801,541.766c41.656,-0.145 85.019,-7.225 128.723,-18.641c15.382,-4.018 144.088,-48.698 144.088,-48.698c128.382,-50.576 250.959,-111.413 338.368,-111.413c69.995,0 0,53.033 75.8,53.033c32.778,0 51.216,-8.381 56.338,-18.352c1.024,-1.879 1.366,-3.757 1.366,-5.636c0,-5.491 -3.756,-10.838 -10.926,-15.606c-25.608,-16.762 -62.825,-27.311 -115.749,-27.311c-34.827,0 -73.41,7.37 -113.359,18.93c-43.322,12.537 -147.161,53.9 -147.161,53.9c-41.656,17.196 -83.995,35.259 -125.309,51.732c-49.509,19.364 -136.067,48.922 -178.405,48.922c-31.413,0 -66.88,-4.472 -72.654,-20.809c-6.747,-19.089 -70.117,-50.688 -85.943,-19.01c-2.732,5.202 -3.756,10.115 -3.756,14.739c0,26.155 39.266,44.218 107.895,44.218l0.683,0Z" style="fill:#faf9d4;fill-rule:nonzero;"/></g></g><path d="M791.531,536.349c-2.347,12.638 -9.321,88.444 -9.376,88.444c-1.06,-5.614 -7.471,-85.333 -7.608,-86.067c-0.084,-0.45 -0.168,-0.9 -0.251,-1.35c-0.039,-0.208 -0.078,-0.416 -0.117,-0.625c-0.053,-0.283 -0.106,-0.566 -0.158,-0.85c-0.016,-0.082 -0.031,-0.165 -0.047,-0.25c-0.068,-0.368 -0.105,-0.675 -0.105,-1.058c-1.463,0.929 -2.911,1.898 -4.358,2.874c-0.328,0.221 -0.656,0.442 -0.984,0.663c-0.566,0.381 -1.132,0.763 -1.698,1.145c-0.818,0.552 -1.637,1.103 -2.455,1.655c-1.329,0.895 -2.657,1.79 -3.985,2.686c-0.079,0.053 -0.158,0.107 -0.24,0.162c-1.128,0.76 -2.257,1.521 -3.385,2.282c-0.08,0.054 -0.159,0.108 -0.242,0.163c-0.08,0.054 -0.159,0.107 -0.241,0.163c-1.326,0.894 -2.652,1.788 -3.978,2.681c-0.817,0.55 -1.634,1.101 -2.451,1.652c-0.558,0.377 -1.116,0.753 -1.675,1.129c-0.322,0.217 -0.645,0.434 -0.967,0.652c-0.294,0.199 -0.589,0.397 -0.884,0.595c-0.107,0.072 -0.214,0.144 -0.321,0.216c-0.144,0.098 -0.289,0.195 -0.434,0.292c-0.081,0.054 -0.161,0.109 -0.244,0.164c-0.19,0.115 -0.19,0.115 -0.353,0.115c0.109,-0.472 0.244,-0.902 0.408,-1.344c0.025,-0.066 0.049,-0.132 0.074,-0.201c0.082,-0.221 0.165,-0.443 0.247,-0.664c0.06,-0.16 0.119,-0.321 0.179,-0.481c0.164,-0.441 0.328,-0.881 0.492,-1.321c0.177,-0.475 0.353,-0.95 0.53,-1.425c0.306,-0.823 0.612,-1.646 0.918,-2.469c0.443,-1.19 0.885,-2.38 1.328,-3.571c0.718,-1.932 1.436,-3.863 2.154,-5.794c0.064,-0.173 0.064,-0.173 0.13,-0.35c0.305,-0.821 0.61,-1.641 0.916,-2.462c0.349,-0.938 0.698,-1.876 1.047,-2.815c0.043,-0.116 0.086,-0.231 0.13,-0.35c0.716,-1.925 1.431,-3.849 2.147,-5.774c0.442,-1.188 0.883,-2.376 1.325,-3.564c0.303,-0.813 0.605,-1.626 0.907,-2.439c0.175,-0.47 0.349,-0.94 0.524,-1.409c0.16,-0.429 0.32,-0.859 0.479,-1.288c0.058,-0.156 0.116,-0.312 0.174,-0.468c0.079,-0.211 0.157,-0.421 0.235,-0.632c0.044,-0.117 0.087,-0.235 0.132,-0.356c0.103,-0.258 0.103,-0.258 0.092,-0.494c-0.054,-0.018 -20.51,-6.904 -27.022,-9.096c-0.054,-0.018 -9.875,-3.324 -10.092,-3.397c0.217,-0.293 0.451,-0.339 0.741,-0.434c0.091,-0.031 0.091,-0.031 0.183,-0.062c0.205,-0.069 0.41,-0.137 0.615,-0.206c0.148,-0.05 0.295,-0.099 0.443,-0.149c0.407,-0.137 0.815,-0.273 1.222,-0.41c0.439,-0.147 0.877,-0.294 1.316,-0.442c0.761,-0.256 1.521,-0.511 2.282,-0.766c1.1,-0.369 2.2,-0.738 3.3,-1.108c1.785,-0.6 3.57,-1.199 5.355,-1.798c0.053,-0.018 0.107,-0.036 0.162,-0.054c0.433,-0.145 0.866,-0.291 1.299,-0.436c1.247,-0.418 2.493,-0.837 3.74,-1.255c0.053,-0.018 0.107,-0.036 0.162,-0.054c1.832,-0.615 3.664,-1.23 5.496,-1.846c1.098,-0.369 2.195,-0.737 3.293,-1.105c0.752,-0.252 1.504,-0.504 2.255,-0.757c0.434,-0.146 0.868,-0.292 1.303,-0.437c0.397,-0.133 0.794,-0.266 1.191,-0.4c0.144,-0.048 0.288,-0.097 0.432,-0.145c0.195,-0.065 0.39,-0.131 0.585,-0.197c0.057,-0.019 0.113,-0.037 0.171,-0.057c0.276,-0.094 0.495,-0.204 0.753,-0.377c-4.566,-12.296 -9.132,-24.592 -13.836,-37.261c0.054,-0.036 0.107,-0.072 0.163,-0.11c0.193,0.103 0.193,0.103 0.442,0.271c0.094,0.063 0.189,0.126 0.286,0.191c0.106,0.072 0.211,0.144 0.317,0.215c0.112,0.075 0.223,0.15 0.335,0.225c0.308,0.207 0.616,0.415 0.923,0.623c0.331,0.224 0.663,0.447 0.994,0.67c0.575,0.387 1.149,0.774 1.724,1.162c0.831,0.561 1.661,1.121 2.492,1.681c1.348,0.908 2.696,1.817 4.043,2.726c1.309,0.884 2.619,1.767 3.929,2.649c0.081,0.054 0.161,0.109 0.244,0.165c0.405,0.273 0.809,0.545 1.214,0.818c3.36,2.264 6.719,4.529 10.077,6.796c0.162,-0.218 0.139,-0.628 0.167,-0.928c0.008,-0.085 0.016,-0.17 0.024,-0.257c0.026,-0.281 0.052,-0.561 0.078,-0.842c0.018,-0.195 0.037,-0.391 0.055,-0.586c0.12,-1.285 10.445,-87.86 10.5,-87.86c0.005,0.06 10.031,84.725 10.221,86.585c0.011,0.11 0.022,0.22 0.034,0.333c0.056,0.549 0.112,1.097 0.169,1.646c0.021,0.201 0.041,0.401 0.062,0.602c0.01,0.092 0.019,0.185 0.029,0.28c0.009,0.086 0.017,0.171 0.026,0.26c0.008,0.074 0.015,0.149 0.023,0.226c0.017,0.216 0.016,0.434 0.016,0.651c0.057,-0.038 0.114,-0.077 0.173,-0.117c3.38,-2.279 6.761,-4.558 10.142,-6.836c0.406,-0.273 0.811,-0.547 1.217,-0.82c0.121,-0.082 0.121,-0.082 0.245,-0.165c1.309,-0.882 2.618,-1.764 3.926,-2.647c1.342,-0.905 2.684,-1.81 4.026,-2.714c0.829,-0.558 1.658,-1.117 2.486,-1.676c0.568,-0.383 1.135,-0.765 1.703,-1.147c0.328,-0.221 0.656,-0.442 0.984,-0.663c0.3,-0.203 0.6,-0.404 0.9,-0.606c0.109,-0.073 0.218,-0.147 0.326,-0.22c0.147,-0.1 0.294,-0.198 0.442,-0.297c0.082,-0.055 0.164,-0.111 0.248,-0.167c0.204,-0.117 0.204,-0.117 0.448,-0.117c-4.566,12.296 -9.132,24.592 -13.836,37.261c0.459,0.206 0.904,0.398 1.371,0.553c0.06,0.02 0.12,0.041 0.182,0.062c0.2,0.067 0.4,0.134 0.6,0.201c0.145,0.049 0.291,0.098 0.436,0.147c0.399,0.134 0.797,0.268 1.196,0.401c0.43,0.144 0.861,0.289 1.291,0.434c0.745,0.25 1.49,0.501 2.236,0.751c1.078,0.362 2.156,0.724 3.233,1.086c1.749,0.588 3.498,1.176 5.247,1.763c0.052,0.018 0.105,0.035 0.159,0.053c1.168,0.392 2.336,0.785 3.504,1.177c0.477,0.16 0.954,0.321 1.432,0.481c0.052,0.018 0.105,0.035 0.159,0.053c1.796,0.603 3.592,1.207 5.388,1.811c1.075,0.362 2.151,0.723 3.226,1.084c0.736,0.247 1.473,0.494 2.209,0.742c0.425,0.143 0.85,0.286 1.275,0.428c0.389,0.13 0.778,0.261 1.166,0.392c0.141,0.047 0.282,0.095 0.423,0.142c0.191,0.064 0.382,0.128 0.573,0.193c0.083,0.027 0.083,0.027 0.168,0.056c0.266,0.091 0.506,0.192 0.745,0.375c-0.195,0.262 -0.311,0.289 -0.577,0.377c-0.088,0.029 -0.175,0.059 -0.266,0.089c-0.097,0.032 -0.193,0.063 -0.293,0.096c-0.155,0.052 -0.311,0.104 -0.466,0.156c-0.167,0.056 -0.335,0.111 -0.502,0.166c-0.353,0.117 -0.706,0.234 -1.059,0.352c-0.43,0.144 -0.86,0.287 -1.291,0.43c-0.747,0.248 -1.494,0.499 -2.241,0.75c-0.08,0.027 -0.08,0.027 -0.161,0.054c-0.267,0.09 -0.534,0.18 -0.801,0.27c-0.487,0.164 -0.973,0.328 -1.46,0.492c-0.271,0.091 -0.543,0.183 -0.814,0.274c-0.109,0.037 -0.433,0.146 -0.488,0.164c-3.961,1.333 -15.734,5.297 -16.113,5.424c-0.08,0.027 -0.08,0.027 -0.161,0.054c-0.107,0.036 -0.215,0.072 -0.322,0.109c-0.269,0.091 -0.538,0.181 -0.807,0.272c-0.483,0.162 -0.965,0.325 -1.448,0.487c-0.268,0.09 -0.535,0.18 -0.803,0.27c-0.08,0.027 -0.08,0.027 -0.162,0.054c-0.78,0.262 -1.56,0.526 -2.339,0.789c-0.453,0.153 -0.906,0.306 -1.36,0.459c-0.374,0.126 -0.747,0.252 -1.121,0.379c-0.23,0.078 -0.461,0.156 -0.691,0.233c-0.159,0.054 -0.318,0.108 -0.476,0.161c-0.094,0.032 -0.188,0.063 -0.285,0.096c-0.123,0.042 -0.123,0.042 -0.249,0.084c-0.195,0.059 -0.195,0.059 -0.357,0.059c0.031,0.083 0.062,0.167 0.094,0.253c1.836,4.936 3.671,9.872 5.505,14.809c0.22,0.592 0.44,1.184 0.66,1.777c0.066,0.177 0.066,0.177 0.133,0.357c0.71,1.911 1.421,3.822 2.132,5.733c0.729,1.96 1.457,3.919 2.185,5.879c0.45,1.21 0.899,2.42 1.35,3.63c0.308,0.829 0.616,1.658 0.924,2.487c0.178,0.479 0.356,0.958 0.534,1.436c0.163,0.438 0.326,0.875 0.488,1.314c0.059,0.159 0.118,0.318 0.177,0.477c0.08,0.215 0.16,0.43 0.239,0.645c0.067,0.18 0.067,0.18 0.135,0.363c0.094,0.294 0.094,0.294 0.094,0.623c-14.262,-9.602 -14.262,-9.602 -28.812,-19.398c-0.107,0.579 -0.215,1.157 -0.326,1.753Z" style="fill:#faf9d4;fill-rule:nonzero;"/></g><g transform="matrix(289.902098,0,0,289.902098,328.945751,296.957229)"></g><g transform="matrix(289.902098,0,0,289.902098,503.642184,296.957229)"></g><g transform="matrix(289.902098,0,0,289.902098,1015.623034,296.957229)"></g><g transform="matrix(289.902098,0,0,289.902098,1190.319467,296.957229)"></g><g transform="matrix(289.902098,0,0,289.902098,1522.243937,296.957229)"></g><text x="-2.715px" y="296.957px" style="font-family:'RealityStone-Italic', 'Reality Stone';font-style:italic;font-size:289.902px;fill:#faf9d4;">s<tspan x="161.629px 316.206px 659.757px " y="296.957px 296.957px 296.957px ">tb</tspan>o<tspan x="1346.434px " y="296.957px ">d</tspan></text></g></g></svg>