<?xml version="1.0" encoding="UTF-8" standalone="no"?><!DOCTYPE svg PUBLIC "-//W3C//DTD SVG 1.1//EN" "http://www.w3.org/Graphics/SVG/1.1/DTD/svg11.dtd"><svg width="100%" height="100%" viewBox="0 0 6713 2600" version="1.1" xmlns="http://www.w3.org/2000/svg" xmlns:xlink="http://www.w3.org/1999/xlink" xml:space="preserve" xmlns:serif="http://www.serif.com/" style="fill-rule:evenodd;clip-rule:evenodd;stroke-linejoin:round;stroke-miterlimit:2;"><path d="M1120.196,1457.167c28.258,-4.65 62.342,-2.183 91.046,-2.125c298.35,0.604 587.721,113.662 862.871,218.383c242.046,92.117 479.637,194.758 719.725,291.771c92.967,36.888 186.979,71.083 281.917,102.546c28.312,-10.254 57.175,-19.333 85.733,-28.912c-20.008,-52.021 -39.367,-104.292 -58.075,-156.796c38.458,24.771 76.092,50.925 113.971,76.567c7.838,-127.517 34.333,-254.587 43.462,-382.279c16.313,127.121 31.721,254.358 46.221,381.704l112.862,-75.875c-17.05,52.683 -38.15,104.629 -57.458,156.554l70.229,23.417c251.754,-81.9 495.021,-190.933 739.383,-292.175c167.667,-67.558 336.667,-131.663 506.917,-192.275c312.167,-108.9 720.25,-193.133 1033.333,-41.454c34.333,16.642 86.75,42.738 99.542,82.071c4.292,13.175 2.583,28.2 -3.708,40.433c-15.208,29.575 -56.542,46.725 -86.625,56.004c-71.292,21.975 -202.083,34.058 -268.958,-1.929c-58.542,-31.508 -36.167,-87.283 -52.5,-138.025c-6.875,-21.321 -20.125,-36.417 -40.292,-46.029c-35.917,-17.096 -82.333,-16.25 -121.417,-15.471c-352.083,7.025 -897,263.792 -1232.775,400.446c-116.325,47.342 -233.25,89.683 -351.921,130.646l-299.492,102.279c23.558,7.179 66.638,15.367 94.733,20.154c104.887,17.871 289.004,16.588 380.038,-39.275c21.729,-13.329 39.75,-69.362 90.879,-102.475c63.638,-43.625 145.354,-78.062 224.004,-66.571c39.95,5.2 73.742,37.929 83.95,76.775c43.875,167.117 -210.004,207.117 -323.312,217.096c-175.675,15.471 -348.425,-6.604 -519.367,-39.467l35.192,96.35l-121.571,-81.621c-12.738,124.754 -27.513,246.783 -38.762,372.392c-17.808,-120.992 -18.904,-253.242 -35.817,-372.012l-120.558,80.508c11.537,-33.767 25.2,-69.279 37.475,-102.983c-1.087,0.271 -2.183,0.529 -3.279,0.767c-218.904,48.442 -597.75,95.879 -808.938,-24.767c-31.258,-19.275 -58.008,-48.904 -65.846,-84.975c-12.95,-59.596 20.3,-127.087 84.346,-137.762c90.033,-15.004 200.554,36.679 263.946,99.192c19.121,18.858 29.975,58.046 56.062,72.617c48.479,27.221 102.213,34.604 156.042,41.458c112.767,14.363 207.554,-0.904 317.75,-24.742c-164.887,-63.887 -337.558,-109.392 -502.662,-173.15c-349.092,-134.812 -1110.467,-503.688 -1459.892,-458.246c-130,16.908 -61.167,110.675 -112.592,175.55c-22.958,28.967 -63.317,36.608 -98.1,40.125c-77.146,7.796 -200.596,2.308 -261.958,-48.854c-13.958,-11.642 -26.521,-29.317 -27.842,-47.921c-1.079,-15.237 6.404,-29.825 16.229,-40.996c81.154,-92.263 309.367,-128.229 425.858,-136.642Z" style="fill:#a3c132;fill-rule:nonzero;"/><path d="M3011.208,3.224c82.242,-0.356 220.725,-17.578 223.842,109.707c1.121,45.678 -17.617,112.046 -27.45,158.055c-18.387,83.955 -36.187,168.038 -53.4,252.243c199.479,-156.424 359.654,-40.879 363.05,194.117c2.475,170.967 -71.75,338.229 -196.296,453.658c-116.108,85.5 -175.154,66.717 -312.95,66.567l-259.692,0.129c8.192,-46.058 29.033,-47.125 43.725,-82.808c10.487,-25.479 21.45,-88.717 27.713,-118.312l54.546,-257.429l93.842,-441.935c16.8,-78.708 34.354,-157.456 49.217,-236.531c7.904,-42.066 -17.467,-54.117 -6.146,-97.461Zm124.012,610.926c-18.821,69.488 -34.775,163.988 -51.167,235.817c-11.075,48.542 -38.758,172.379 -39.438,214.217c-0.421,22.392 5.192,44.488 16.246,63.963c24.917,43.638 77.179,59.846 123.588,44.296c171.883,-76.529 135.413,-364.996 76.233,-508.529c-15.812,-38.354 -44.117,-81.608 -90.779,-76.708c-16.125,10.15 -20.954,13.779 -34.683,26.946Z" style="fill:#a3c132;fill-rule:nonzero;"/><path d="M6265.208,3.247c33.5,0.009 67,-0.555 100.583,0.158c34.917,1.277 72.208,10.695 96.167,37.609c42.083,47.239 25,111.84 13.083,167.045c-10.042,46.363 -20,92.687 -29.875,139.05l-115.625,544.146c-15.667,73.704 -52,221.133 -55.125,287.696c16.875,27.888 17.458,27.513 9.875,58.808c-84,-2.933 -182.292,1.154 -237.667,-72.667c-47.75,38.021 -82.042,59.417 -142.917,70.263c-181.792,11.967 -231.792,-137.846 -222.833,-294.946c8.25,-145.075 71.792,-317.15 182.75,-414.438c99.5,-87.258 225.375,-109.678 319,-2.113l59.125,-276.852c10.375,-48.8 21.667,-99.524 30.792,-148.546c8.25,-44.415 -19.667,-46.171 -7.333,-95.214Zm-250,1100.699c25.75,-4.737 32.208,-11.858 50.167,-29.917c31.417,-133.046 57.083,-269.629 85.542,-403.458c7.625,-36 6.542,-79.063 -13.167,-111.392c-13.875,-22.95 -36.542,-39.258 -62.708,-45.167c-14.667,-3.458 -28.083,-2.871 -42.875,-1.525c-236.25,69.837 -133.167,575.313 -16.958,591.458Z" style="fill:#a3c132;fill-rule:nonzero;"/><path d="M3944.571,453.658c146.683,-17.517 292.263,51.029 304.304,209.3c19.75,259.8 -104.754,537.175 -387.117,572.229c-156.296,9.783 -289.308,-39.104 -307.808,-215.112c-14.971,-142.442 33.804,-309.783 121.758,-422.467c68.258,-87.446 159.333,-131.85 268.863,-143.95Zm-103.171,727.438c44.017,-12.267 67.346,-33.3 89.587,-72.967c54.879,-97.867 137.975,-439.325 107.671,-547.917c-5.104,-18.287 -13.592,-33.321 -30.567,-42.871c-12.467,-7.012 -28.471,-9.412 -42.692,-8.567c-35.988,7.017 -59.779,22.279 -80.396,52.854c-64.858,96.188 -145.421,441.079 -122.796,555.25c3.725,18.8 10.563,40.575 27.096,51.896c15.504,10.617 33.838,12.308 52.096,12.321Z" style="fill:#a3c132;fill-rule:nonzero;"/><path d="M5099.292,450.9c80.542,0.654 185.917,-18.004 218.708,77.1c85.333,-54.825 170.583,-100.104 273.667,-64.508c72.5,23.258 164.875,113.208 137.542,196.296c-24.625,70.383 -146.083,99.3 -162.125,5.329c-6.958,-40.871 6.792,-139.788 -44.125,-154.608c-42.833,-12.479 -104.083,17.871 -141.708,37.729c-141.25,88.921 -335.375,291.854 -462.917,414.396c-14.042,57.846 -30.25,132.471 -37.833,191.529c-5.5,43.183 20.125,31.825 7.833,82.737c-87.708,-1.833 -177.458,20.4 -219.833,-75.054c-101.417,57.021 -238.375,118.008 -347.292,36.471c-70.583,-52.821 -72.208,-157.583 -46.625,-235.067c52.25,-158.163 233.542,-195.471 371.542,-245.417c44.5,-16.242 90.833,-30.329 122.042,-68.454c28.75,-35.154 32.292,-92.983 -6.5,-122.758c-16.917,-12.979 -44.292,-23.179 -65.708,-19.317c-50.958,9.183 -78.583,61.479 -102.042,102.233c-25.875,44.471 -54.708,105.779 -111.792,114.312c-31.75,4.746 -73.875,-11.908 -77.208,-48.033c-2.958,-32.246 11.5,-66.546 32.292,-90.887c71.75,-80.775 185.25,-121.338 289.875,-131.15c75.958,-18.008 310,10.954 299.042,123.025c-15.375,157.667 -284.625,172.763 -411.25,213.35c-152.75,48.958 -207.458,264.8 -27.792,295.096c160.792,13.338 359.583,-226.137 476.25,-336.283c15.708,-63.883 31.25,-142.775 42.792,-208.104c6.5,-36.654 -19.292,-43.692 -6.833,-89.962Z" style="fill:#a3c132;fill-rule:nonzero;"/><path d="M2202.812,451.038c83.425,-0.654 182.663,-17.421 219.088,76.675c12.208,-7.792 24.542,-15.387 36.988,-22.796c70.371,-41.688 137.883,-67.738 220.058,-46.354c58.45,15.692 108.446,53.629 139.304,105.704c28.838,49.646 28.958,115.571 -28.383,145.2c-51.933,26.833 -101.475,26.638 -117.054,-40.158c-9.483,-40.675 0.208,-96.942 -18.858,-132.454c-32.542,-60.617 -126.787,-11.55 -169.338,11.725c-96.379,57.917 -200.483,159.633 -281.408,238.417c-60.342,59.033 -121.004,117.733 -181.983,176.104c-12.046,59.812 -39.321,162.379 -38.292,218.208c2.787,4.133 5.454,8.346 7.996,12.633c9.729,16.55 5.533,23.117 0.354,42.921c-91.308,-1.45 -173.017,20.417 -220.046,-74.925c-62.933,35.858 -121.854,66.654 -195.704,73.854c-109.637,10.696 -203.092,-43.438 -212.133,-159.612c-3.608,-49.383 5.883,-98.846 27.517,-143.379c68.467,-139.675 236.4,-168.446 369.021,-218.55c39.875,-15.604 78.513,-25.75 107.692,-59.867c57.812,-61.446 11.879,-160.233 -70.1,-146.221c-100.592,17.188 -106.608,200.017 -211.921,215.413c-36.875,5.392 -80.754,-17.304 -77.963,-58.458c9.013,-133 214.021,-201.608 323.171,-211.367c7.429,-1.904 52.537,-2.8 62.479,-2.563c67.762,1.617 161.442,11.988 212.012,62.513c15.492,15.475 26.558,39.408 25.192,60.775c-10.283,160.796 -282.675,170.983 -398.858,210.913c-37.388,12.85 -69.237,27.683 -97.575,53.987c-33.2,30.554 -52.771,73.15 -54.333,118.254c-2.275,69.271 40.929,129.754 114.754,127.683c138.858,-3.9 245.433,-114.958 337.996,-205.142l134.808,-132.179c14.679,-68.067 32.238,-141.296 42.254,-210.108c7.037,-48.346 -20.538,-34.033 -6.733,-86.846Z" style="fill:#a3c132;fill-rule:nonzero;"/><path d="M418.317,453.925c126.075,-9.521 267.192,32.513 257.908,181.4c-4.854,77.854 -92.729,162.583 -159.55,93.075c-44.188,-45.971 50.925,-122.587 55.9,-163.496c0.971,-8.517 -1.617,-17.062 -7.146,-23.608c-24.904,-29.467 -72.167,-25.688 -103.842,-9.329c-43.388,22.408 -77.673,76.587 -51.739,124.65c22.022,40.813 63.755,65.767 101.635,90.8c75.504,49.9 166.163,104.325 174.117,204.6c11.233,172.117 -191.154,268.95 -335.714,282.242c-103.566,9.521 -232.934,-7.571 -305.837,-89.233c-32.229,-36.1 -41.8,-76.479 -38.502,-123.237c19.57,-154.767 231.348,-212.221 349.006,-129.2c81.092,55.55 26.998,163.829 -60.158,168.396c-125.588,6.542 -12.713,-156.087 -128.342,-143.163c-58.941,6.592 -113.626,71.575 -103.457,126.246c26.629,143.146 294.18,123.925 363.174,26.133c36.8,-52.158 50.338,-94.087 5.871,-146.262c-69.644,-79.85 -253.988,-114.838 -264.462,-239.425c-12.62,-150.117 130.672,-216.363 251.137,-230.588Z" style="fill:#a3c132;fill-rule:nonzero;"/><path d="M887.583,227.038c193.854,-1.375 255.692,10.769 205.108,224.695l187.979,-0.446c34.913,-0.067 70.417,-1.575 104.963,2.812c67.388,8.558 70.254,90.704 28.6,130.954c-22.129,21.387 -41.037,33.521 -72.942,35.287c-51.663,2.867 -70.725,-37.842 -103.183,-68.258c-51.088,-48.533 -92.454,-44.5 -157.363,-43.275c-37.775,205.742 -99.05,429.646 -130.862,638.308c-1.225,8.029 2.471,16.604 6.95,23.4c7.954,7.554 18.358,7.6 29.313,8.958c63.383,-25.442 71.433,-126.662 118.088,-150.454c108.808,-55.483 173.025,70.583 54.929,142.533c-124.675,75.958 -392.238,123.85 -415.008,-81.696c-6.225,-56.2 27.342,-180.658 40.221,-241.121l75.467,-355.892c11.25,-53.008 23.029,-106.049 34.442,-159.007c9.442,-43.812 -17.521,-62.554 -6.7,-106.801Z" style="fill:#a3c132;fill-rule:nonzero;"/><path d="M2411.317,649.025c5.142,25.671 -68.496,309.05 -73.421,356.088c-3.954,37.8 -29.704,113.038 -29.042,153.2c0.758,45.921 19.642,35.038 7.992,78.654c-86.767,-1.842 -178.721,-0.338 -265.896,-0.371c-4.25,0.046 -7.6,-0.696 -11.804,-1.338c-3.646,-10.737 0.829,-19.458 3.917,-31.946c43.475,-36.713 45.592,-82.413 57.179,-135.071c11.508,-52.275 21.912,-104.908 32.767,-157.333c95.75,-92.946 176.3,-174.483 278.308,-261.883Z" style="fill:#a3c132;fill-rule:nonzero;"/><path d="M5308.125,648.908c1.375,8.983 -13.542,74.675 -16.458,88.375l-58.125,271.746c-13.333,61.438 -39.792,134.058 -18,192.992c4.958,13.442 1.375,21.758 -2.333,35.083c-85.042,-2.467 -179.125,-0.521 -264.875,-0.558c-5.667,0.358 -7.167,-0.288 -12.75,-1.629c-3.125,-11.192 0.875,-18.679 3.917,-31.108c53.833,-46.337 74.167,-217.158 90.292,-292.446c94.125,-93.225 177.542,-176.671 278.333,-262.454Z" style="fill:#a3c132;fill-rule:nonzero;"/></svg>