<?xml version="1.0" encoding="UTF-8" standalone="no"?><!DOCTYPE svg PUBLIC "-//W3C//DTD SVG 1.1//EN" "http://www.w3.org/Graphics/SVG/1.1/DTD/svg11.dtd"><svg width="100%" height="100%" viewBox="0 0 350 439" version="1.1" xmlns="http://www.w3.org/2000/svg" xmlns:xlink="http://www.w3.org/1999/xlink" xml:space="preserve" xmlns:serif="http://www.serif.com/" style="fill-rule:evenodd;clip-rule:evenodd;stroke-linejoin:round;stroke-miterlimit:2;"><rect id="sb-light-bg-logomark" serif:id="sb light bg logomark" x="0" y="0" width="349.619" height="438.623" style="fill:none;"/><clipPath id="_clip1"><rect x="0" y="0" width="349.619" height="438.623"/></clipPath><g clip-path="url(#_clip1)"><g id="logomark"><g><g><g><path d="M191.066,185.36c-0.228,11.651 -7.272,23.729 -18.574,35.871c-3.978,4.273 -48.124,39.95 -48.124,39.95c-49.937,35.543 -109.937,69.388 -110.119,93.838c-0.145,19.58 52.082,0.387 51.925,21.59c-0.068,9.169 -8.337,14.265 -18.14,15.625c-1.847,0.273 -3.693,0.355 -5.537,0.341c-5.393,-0.04 -10.636,-1.13 -15.304,-3.17c-16.409,-7.286 -26.691,-17.773 -26.581,-32.577c0.072,-9.742 7.39,-20.481 18.826,-31.571c12.402,-12.027 53.24,-40.772 53.24,-40.772c16.974,-11.527 34.801,-23.238 51.065,-34.675c19.119,-13.708 48.328,-37.705 48.416,-49.548c0.065,-8.787 -4.253,-18.741 -20.285,-20.475c-18.732,-2.027 -49.634,-19.983 -18.491,-24.179c5.115,-0.726 9.942,-0.977 14.483,-0.943c25.686,0.191 43.344,11.306 43.202,30.504l-0.001,0.191Z" style="fill:#04041c;fill-rule:nonzero;"/><path d="M190.533,257.169c-0.055,-11.653 -6.919,-23.835 -18.04,-36.143c-3.914,-4.332 -47.526,-40.66 -47.526,-40.66c-49.403,-36.281 -108.894,-71.012 -108.713,-95.463c0.145,-19.58 52.082,0.387 52.24,-20.817c0.068,-9.169 -8.125,-14.388 -17.906,-15.893c-1.843,-0.3 -3.687,-0.409 -5.532,-0.423c-5.393,-0.04 -10.651,0.972 -15.349,2.943c-16.515,7.041 -26.952,17.375 -27.062,32.179c-0.072,9.742 7.085,20.588 18.355,31.847c12.222,12.21 52.628,41.558 52.628,41.558c16.801,11.778 34.453,23.753 50.545,35.429c18.914,13.99 47.763,38.418 47.675,50.261c-0.065,8.787 -4.531,18.676 -20.587,20.172c-18.76,1.748 -49.925,19.244 -18.848,23.902c5.103,0.802 9.926,1.124 14.467,1.158c25.686,0.191 43.507,-10.661 43.65,-29.859l0.001,-0.191Z" style="fill:#04041c;fill-rule:nonzero;"/></g></g></g><g><g><g><path d="M159.782,183.177c0.055,11.653 6.919,23.835 18.04,36.143c3.914,4.332 47.526,40.66 47.526,40.66c49.403,36.281 108.894,71.012 108.713,95.463c-0.145,19.58 -52.082,-0.387 -52.24,20.817c-0.068,9.169 8.125,14.388 17.906,15.893c1.843,0.3 3.687,0.409 5.532,0.423c5.393,0.04 10.651,-0.972 15.349,-2.943c16.515,-7.041 26.952,-17.375 27.062,-32.179c0.072,-9.742 -7.085,-20.588 -18.355,-31.847c-12.222,-12.21 -52.628,-41.558 -52.628,-41.558c-16.801,-11.778 -34.453,-23.753 -50.545,-35.429c-18.914,-13.99 -47.763,-38.418 -47.675,-50.261c0.065,-8.787 4.531,-18.676 20.587,-20.172c18.76,-1.748 49.925,-19.244 18.848,-23.902c-5.103,-0.802 -9.926,-1.124 -14.467,-1.158c-25.686,-0.191 -43.507,10.661 -43.65,29.859l-0.001,0.191Z" style="fill:#04041c;fill-rule:nonzero;"/><path d="M159.249,254.986c0.228,-11.651 7.272,-23.729 18.574,-35.871c3.978,-4.273 48.124,-39.95 48.124,-39.95c49.937,-35.543 109.937,-69.388 110.119,-93.838c0.145,-19.58 -52.082,-0.387 -51.925,-21.59c0.068,-9.169 8.337,-14.265 18.14,-15.625c1.847,-0.273 3.693,-0.355 5.537,-0.341c5.393,0.04 10.636,1.13 15.304,3.17c16.409,7.286 26.691,17.773 26.581,32.577c-0.072,9.742 -7.39,20.481 -18.826,31.571c-12.402,12.027 -53.24,40.772 -53.24,40.772c-16.974,11.527 -34.801,23.238 -51.065,34.675c-19.119,13.708 -48.328,37.705 -48.416,49.548c-0.065,8.787 4.253,18.741 20.285,20.475c18.732,2.027 49.634,19.983 18.491,24.179c-5.115,0.726 -9.942,0.977 -14.483,0.943c-25.686,-0.191 -43.344,-11.306 -43.202,-30.504l0.001,-0.191Z" style="fill:#04041c;fill-rule:nonzero;"/></g></g></g><path d="M190.919,281.285c-4.197,22.606 -16.672,158.2 -16.771,158.2c-1.896,-10.042 -13.364,-152.634 -13.609,-153.947c-0.15,-0.805 -0.3,-1.609 -0.449,-2.414c-0.069,-0.372 -0.139,-0.745 -0.208,-1.117c-0.095,-0.506 -0.189,-1.013 -0.283,-1.52c-0.028,-0.148 -0.056,-0.295 -0.084,-0.447c-0.121,-0.659 -0.187,-1.208 -0.187,-1.892c-2.618,1.662 -5.207,3.395 -7.794,5.141c-0.586,0.396 -1.173,0.791 -1.76,1.186c-1.012,0.682 -2.025,1.365 -3.037,2.047c-1.464,0.987 -2.927,1.973 -4.391,2.96c-2.376,1.601 -4.753,3.202 -7.129,4.804c-0.142,0.096 -0.283,0.191 -0.429,0.289c-2.018,1.36 -4.036,2.721 -6.054,4.081c-0.143,0.096 -0.285,0.192 -0.432,0.291c-0.142,0.096 -0.285,0.192 -0.432,0.291c-2.372,1.599 -4.744,3.198 -7.116,4.795c-1.462,0.985 -2.923,1.97 -4.384,2.955c-0.998,0.673 -1.997,1.346 -2.996,2.019c-0.577,0.388 -1.153,0.777 -1.729,1.166c-0.527,0.356 -1.054,0.711 -1.581,1.065c-0.191,0.129 -0.383,0.258 -0.574,0.387c-0.258,0.175 -0.517,0.349 -0.776,0.522c-0.144,0.097 -0.288,0.194 -0.436,0.294c-0.34,0.205 -0.34,0.205 -0.632,0.205c0.195,-0.843 0.436,-1.614 0.729,-2.404c0.044,-0.118 0.088,-0.237 0.133,-0.359c0.147,-0.396 0.294,-0.792 0.442,-1.187c0.107,-0.287 0.213,-0.574 0.32,-0.861c0.293,-0.788 0.586,-1.576 0.879,-2.363c0.316,-0.85 0.632,-1.7 0.948,-2.55c0.547,-1.472 1.095,-2.945 1.643,-4.417c0.792,-2.129 1.584,-4.258 2.375,-6.387c1.284,-3.455 2.568,-6.91 3.853,-10.364c0.115,-0.31 0.115,-0.31 0.233,-0.627c0.546,-1.468 1.092,-2.936 1.638,-4.404c0.624,-1.678 1.248,-3.356 1.873,-5.035c0.077,-0.207 0.154,-0.413 0.233,-0.627c1.28,-3.442 2.56,-6.885 3.84,-10.328c0.79,-2.125 1.58,-4.25 2.371,-6.374c0.541,-1.454 1.082,-2.909 1.622,-4.363c0.312,-0.84 0.625,-1.68 0.938,-2.52c0.286,-0.768 0.572,-1.536 0.857,-2.304c0.104,-0.279 0.207,-0.558 0.312,-0.837c0.141,-0.377 0.28,-0.754 0.42,-1.131c0.078,-0.21 0.156,-0.42 0.237,-0.636c0.185,-0.462 0.185,-0.462 0.165,-0.884c-0.096,-0.032 -36.687,-12.35 -48.333,-16.27c-0.096,-0.032 -17.664,-5.946 -18.052,-6.077c0.389,-0.524 0.807,-0.606 1.326,-0.776c0.162,-0.055 0.162,-0.055 0.328,-0.111c0.366,-0.124 0.733,-0.246 1.1,-0.368c0.264,-0.089 0.528,-0.178 0.792,-0.267c0.728,-0.245 1.457,-0.489 2.186,-0.733c0.785,-0.263 1.569,-0.527 2.354,-0.791c1.36,-0.457 2.721,-0.914 4.081,-1.37c1.968,-0.659 3.935,-1.32 5.903,-1.981c3.193,-1.073 6.386,-2.145 9.579,-3.216c0.096,-0.032 0.191,-0.064 0.29,-0.097c0.775,-0.26 1.549,-0.52 2.324,-0.78c2.23,-0.748 4.46,-1.496 6.689,-2.245c0.096,-0.032 0.191,-0.064 0.289,-0.097c3.277,-1.1 6.554,-2.2 9.83,-3.301c1.963,-0.66 3.927,-1.319 5.89,-1.977c1.345,-0.451 2.69,-0.902 4.034,-1.354c0.777,-0.261 1.553,-0.522 2.33,-0.781c0.71,-0.238 1.421,-0.476 2.131,-0.715c0.258,-0.087 0.515,-0.173 0.773,-0.259c0.349,-0.116 0.698,-0.234 1.047,-0.352c0.101,-0.033 0.202,-0.067 0.307,-0.101c0.494,-0.168 0.886,-0.364 1.347,-0.675c-8.167,-21.994 -16.334,-43.988 -24.749,-66.648c0.096,-0.065 0.192,-0.129 0.291,-0.196c0.346,0.184 0.346,0.184 0.791,0.484c0.169,0.113 0.338,0.226 0.512,0.342c0.189,0.128 0.378,0.257 0.567,0.385c0.2,0.134 0.399,0.268 0.599,0.402c0.551,0.37 1.101,0.742 1.651,1.114c0.592,0.401 1.186,0.799 1.779,1.198c1.028,0.692 2.056,1.385 3.083,2.079c1.486,1.003 2.972,2.005 4.458,3.006c2.411,1.624 4.822,3.25 7.232,4.876c2.342,1.58 4.684,3.16 7.027,4.739c0.144,0.097 0.289,0.194 0.437,0.295c0.724,0.488 1.448,0.976 2.172,1.463c6.009,4.05 12.018,8.102 18.025,12.155c0.29,-0.391 0.25,-1.124 0.299,-1.66c0.014,-0.152 0.029,-0.304 0.044,-0.46c0.047,-0.502 0.094,-1.004 0.14,-1.506c0.033,-0.349 0.066,-0.699 0.098,-1.048c0.215,-2.299 18.683,-157.154 18.782,-157.154c0.01,0.108 17.942,151.547 18.282,154.874c0.02,0.197 0.04,0.394 0.061,0.596c0.1,0.981 0.201,1.963 0.302,2.944c0.037,0.359 0.074,0.718 0.11,1.076c0.017,0.165 0.035,0.331 0.052,0.501c0.016,0.153 0.031,0.307 0.047,0.464c0.014,0.133 0.028,0.266 0.042,0.403c0.03,0.386 0.029,0.776 0.029,1.165c0.102,-0.069 0.204,-0.138 0.309,-0.209c6.046,-4.077 12.093,-8.153 18.14,-12.228c0.725,-0.489 1.451,-0.978 2.176,-1.466c0.217,-0.146 0.217,-0.146 0.438,-0.295c2.341,-1.578 4.682,-3.156 7.023,-4.734c2.4,-1.619 4.801,-3.237 7.202,-4.854c1.483,-0.999 2.965,-1.998 4.447,-2.998c1.015,-0.685 2.03,-1.369 3.046,-2.052c0.587,-0.395 1.173,-0.79 1.759,-1.186c0.536,-0.362 1.072,-0.723 1.609,-1.084c0.195,-0.131 0.389,-0.262 0.584,-0.394c0.263,-0.178 0.527,-0.355 0.79,-0.532c0.147,-0.099 0.293,-0.198 0.444,-0.3c0.364,-0.209 0.364,-0.209 0.801,-0.209c-8.167,21.994 -16.334,43.988 -24.749,66.648c0.821,0.368 1.617,0.713 2.452,0.99c0.108,0.036 0.215,0.073 0.326,0.11c0.358,0.121 0.716,0.24 1.074,0.36c0.26,0.087 0.52,0.175 0.78,0.263c0.713,0.24 1.426,0.479 2.139,0.718c0.77,0.258 1.539,0.517 2.309,0.776c1.333,0.448 2.666,0.896 3.999,1.343c1.928,0.647 3.856,1.295 5.783,1.943c3.129,1.052 6.257,2.103 9.386,3.154c0.094,0.031 0.187,0.063 0.284,0.095c2.089,0.702 4.179,1.404 6.268,2.105c0.854,0.287 1.707,0.573 2.561,0.86c0.094,0.031 0.187,0.063 0.284,0.095c3.212,1.079 6.425,2.158 9.637,3.238c1.924,0.647 3.847,1.293 5.771,1.938c1.317,0.442 2.634,0.884 3.951,1.327c0.76,0.256 1.521,0.511 2.281,0.766c0.696,0.233 1.391,0.467 2.086,0.701c0.252,0.085 0.504,0.169 0.757,0.254c0.342,0.114 0.683,0.229 1.025,0.345c0.148,0.049 0.148,0.049 0.3,0.099c0.476,0.162 0.905,0.343 1.333,0.67c-0.348,0.469 -0.557,0.517 -1.032,0.675c-0.157,0.053 -0.314,0.106 -0.475,0.16c-0.173,0.057 -0.345,0.113 -0.523,0.172c-0.278,0.093 -0.555,0.186 -0.833,0.279c-0.299,0.1 -0.599,0.199 -0.898,0.298c-0.632,0.209 -1.263,0.419 -1.894,0.63c-0.77,0.257 -1.539,0.513 -2.309,0.769c-1.337,0.444 -2.673,0.892 -4.009,1.342c-0.143,0.048 -0.143,0.048 -0.288,0.097c-0.478,0.161 -0.955,0.322 -1.433,0.483c-0.87,0.293 -1.741,0.586 -2.611,0.879c-0.485,0.163 -0.971,0.327 -1.456,0.49c-0.194,0.065 -0.774,0.261 -0.873,0.294c-7.085,2.385 -28.144,9.474 -28.821,9.702c-0.143,0.048 -0.143,0.048 -0.289,0.097c-0.192,0.065 -0.385,0.129 -0.577,0.194c-0.481,0.162 -0.963,0.324 -1.444,0.486c-0.863,0.291 -1.726,0.581 -2.59,0.872c-0.479,0.161 -0.958,0.322 -1.437,0.483c-0.143,0.048 -0.143,0.048 -0.29,0.097c-1.395,0.469 -2.79,0.94 -4.184,1.412c-0.811,0.274 -1.621,0.548 -2.432,0.821c-0.668,0.226 -1.336,0.451 -2.004,0.678c-0.412,0.139 -0.824,0.278 -1.236,0.417c-0.284,0.096 -0.568,0.192 -0.852,0.289c-0.168,0.057 -0.337,0.113 -0.511,0.172c-0.221,0.075 -0.221,0.075 -0.446,0.151c-0.348,0.105 -0.348,0.105 -0.639,0.105c0.055,0.149 0.111,0.298 0.168,0.452c3.283,8.829 6.566,17.658 9.847,26.488c0.394,1.059 0.787,2.119 1.181,3.178c0.118,0.316 0.118,0.316 0.237,0.639c1.27,3.419 2.541,6.837 3.813,10.255c1.304,3.505 2.606,7.01 3.909,10.516c0.804,2.165 1.609,4.329 2.414,6.493c0.552,1.482 1.102,2.965 1.653,4.448c0.318,0.857 0.636,1.713 0.955,2.569c0.292,0.783 0.583,1.566 0.873,2.349c0.105,0.284 0.211,0.569 0.317,0.852c0.144,0.384 0.286,0.769 0.428,1.154c0.119,0.321 0.119,0.321 0.241,0.649c0.168,0.526 0.168,0.526 0.168,1.114c-25.51,-17.175 -25.51,-17.175 -51.536,-34.696c-0.192,1.035 -0.384,2.07 -0.582,3.136Z" style="fill:#04041c;fill-rule:nonzero;"/></g></g></svg>