<?xml version="1.0" encoding="UTF-8" standalone="no"?><!DOCTYPE svg PUBLIC "-//W3C//DTD SVG 1.1//EN" "http://www.w3.org/Graphics/SVG/1.1/DTD/svg11.dtd"><svg width="100%" height="100%" viewBox="0 0 661 285" version="1.1" xmlns="http://www.w3.org/2000/svg" xmlns:xlink="http://www.w3.org/1999/xlink" xml:space="preserve" xmlns:serif="http://www.serif.com/" style="fill-rule:evenodd;clip-rule:evenodd;stroke-linejoin:round;stroke-miterlimit:2;"><rect id="sb-light-bg-Artboard1" serif:id="sb light bg Artboard1" x="0" y="0" width="660.537" height="284.295" style="fill:none;"/><clipPath id="_clip1"><rect x="0" y="0" width="660.537" height="284.295"/></clipPath><g clip-path="url(#_clip1)"><g id="logomark-pattern" serif:id="logomark pattern"><g><g><g><path d="M400.022,284.552c-22.322,-0.213 -45.559,-10.664 -68.978,-27.512c-8.243,-5.93 -77.212,-71.874 -77.212,-71.874c-68.795,-74.646 -134.48,-164.435 -181.32,-164.435c-37.508,0 0,78.272 -40.619,78.272c-17.565,0 -27.445,-12.37 -30.189,-27.086c-0.549,-2.773 -0.732,-5.545 -0.732,-8.318c0,-8.104 2.013,-15.996 5.855,-23.034c13.722,-24.74 33.666,-40.309 62.026,-40.309c18.663,0 39.338,10.877 60.745,27.939c23.215,18.503 78.859,79.551 78.859,79.551c22.322,25.38 45.01,52.039 67.149,76.352c26.53,28.579 72.913,72.205 95.601,72.205c16.833,0 35.839,-6.601 38.933,-30.712c3.615,-28.173 37.573,-74.811 46.054,-28.057c1.464,7.678 2.013,14.929 2.013,21.754c0,38.603 -21.041,65.262 -57.817,65.262l-0.366,0Z" style="fill:#6a4d44;fill-rule:nonzero;"/><path d="M262.459,284.552c22.322,-0.213 45.559,-10.664 68.978,-27.512c8.243,-5.93 77.212,-71.874 77.212,-71.874c68.795,-74.646 134.48,-164.435 181.32,-164.435c37.508,0 0,78.272 40.619,78.272c17.565,0 27.445,-12.37 30.189,-27.086c0.549,-2.773 0.732,-5.545 0.732,-8.318c0,-8.104 -2.013,-15.996 -5.855,-23.034c-13.722,-24.74 -33.666,-40.309 -62.026,-40.309c-18.663,0 -39.338,10.877 -60.745,27.939c-23.215,18.503 -78.859,79.551 -78.859,79.551c-22.322,25.38 -45.01,52.039 -67.149,76.352c-26.53,28.579 -72.913,72.205 -95.601,72.205c-16.833,0 -35.839,-6.601 -38.933,-30.712c-3.615,-28.173 -37.573,-74.811 -46.054,-28.057c-1.464,7.678 -2.013,14.929 -2.013,21.754c0,38.603 21.041,65.262 57.817,65.262l0.366,0Z" style="fill:#6a4d44;fill-rule:nonzero;"/></g></g></g><g><g><g><path d="M400.022,0.257c-22.322,0.213 -45.559,10.664 -68.978,27.512c-8.243,5.93 -77.212,71.874 -77.212,71.874c-68.795,74.646 -134.48,164.435 -181.32,164.435c-37.508,0 0,-78.272 -40.619,-78.272c-17.565,0 -27.445,12.37 -30.189,27.086c-0.549,2.773 -0.732,5.545 -0.732,8.318c0,8.104 2.013,15.996 5.855,23.034c13.722,24.74 33.666,40.309 62.026,40.309c18.663,0 39.338,-10.877 60.745,-27.939c23.215,-18.503 78.859,-79.551 78.859,-79.551c22.322,-25.38 45.01,-52.039 67.149,-76.352c26.53,-28.579 72.913,-72.205 95.601,-72.205c16.833,0 35.839,6.601 38.933,30.712c3.615,28.173 37.573,74.811 46.054,28.057c1.464,-7.678 2.013,-14.929 2.013,-21.754c0,-38.603 -21.041,-65.262 -57.817,-65.262l-0.366,0Z" style="fill:#6a4d44;fill-rule:nonzero;"/><path d="M262.459,0.257c22.322,0.213 45.559,10.664 68.978,27.512c8.243,5.93 77.212,71.874 77.212,71.874c68.795,74.646 134.48,164.435 181.32,164.435c37.508,0 0,-78.272 40.619,-78.272c17.565,0 27.445,12.37 30.189,27.086c0.549,2.773 0.732,5.545 0.732,8.318c0,8.104 -2.013,15.996 -5.855,23.034c-13.722,24.74 -33.666,40.309 -62.026,40.309c-18.663,0 -39.338,-10.877 -60.745,-27.939c-23.215,-18.503 -78.859,-79.551 -78.859,-79.551c-22.322,-25.38 -45.01,-52.039 -67.149,-76.352c-26.53,-28.579 -72.913,-72.205 -95.601,-72.205c-16.833,0 -35.839,6.601 -38.933,30.712c-3.615,28.173 -37.573,74.811 -46.054,28.057c-1.464,-7.678 -2.013,-14.929 -2.013,-21.754c0,-38.603 21.041,-65.262 57.817,-65.262l0.366,0Z" style="fill:#6a4d44;fill-rule:nonzero;"/></g></g></g><path d="M339.68,172.435c-1.72,9.265 -6.833,64.839 -6.874,64.839c-0.777,-4.116 -5.477,-62.558 -5.578,-63.096c-0.062,-0.33 -0.123,-0.66 -0.184,-0.989c-0.028,-0.153 -0.057,-0.305 -0.085,-0.458c-0.039,-0.208 -0.077,-0.415 -0.116,-0.623c-0.011,-0.06 -0.023,-0.121 -0.035,-0.183c-0.05,-0.27 -0.077,-0.495 -0.077,-0.775c-1.073,0.681 -2.134,1.391 -3.195,2.107c-0.24,0.162 -0.481,0.324 -0.721,0.486c-0.415,0.28 -0.83,0.559 -1.245,0.839c-0.6,0.405 -1.2,0.809 -1.8,1.213c-0.974,0.656 -1.948,1.312 -2.922,1.969c-0.058,0.039 -0.116,0.078 -0.176,0.119c-0.827,0.558 -1.654,1.115 -2.481,1.673c-0.058,0.039 -0.117,0.079 -0.177,0.119c-0.058,0.039 -0.117,0.079 -0.177,0.119c-0.972,0.655 -1.944,1.311 -2.917,1.965c-0.599,0.404 -1.198,0.807 -1.797,1.211c-0.409,0.276 -0.818,0.552 -1.228,0.827c-0.236,0.159 -0.473,0.318 -0.709,0.478c-0.216,0.146 -0.432,0.291 -0.648,0.437c-0.078,0.053 -0.157,0.106 -0.235,0.159c-0.106,0.072 -0.212,0.143 -0.318,0.214c-0.059,0.04 -0.118,0.08 -0.179,0.121c-0.139,0.084 -0.139,0.084 -0.259,0.084c0.08,-0.346 0.179,-0.662 0.299,-0.985c0.018,-0.049 0.036,-0.097 0.054,-0.147c0.06,-0.162 0.121,-0.324 0.181,-0.487c0.044,-0.118 0.087,-0.235 0.131,-0.353c0.12,-0.323 0.24,-0.646 0.36,-0.969c0.13,-0.348 0.259,-0.697 0.389,-1.045c0.224,-0.604 0.449,-1.207 0.673,-1.81c0.325,-0.872 0.649,-1.745 0.973,-2.618c0.526,-1.416 1.053,-2.832 1.579,-4.248c0.047,-0.127 0.047,-0.127 0.096,-0.257c0.224,-0.602 0.448,-1.203 0.671,-1.805c0.256,-0.688 0.512,-1.376 0.767,-2.063c0.032,-0.085 0.063,-0.169 0.095,-0.257c0.525,-1.411 1.049,-2.822 1.574,-4.233c0.324,-0.871 0.648,-1.742 0.972,-2.613c0.222,-0.596 0.443,-1.192 0.665,-1.788c0.128,-0.344 0.256,-0.689 0.384,-1.033c0.117,-0.315 0.234,-0.629 0.351,-0.944c0.042,-0.114 0.085,-0.229 0.128,-0.343c0.058,-0.154 0.115,-0.309 0.172,-0.464c0.032,-0.086 0.064,-0.172 0.097,-0.261c0.076,-0.189 0.076,-0.189 0.068,-0.362c-0.039,-0.013 -15.036,-5.062 -19.81,-6.668c-0.039,-0.013 -7.24,-2.437 -7.399,-2.491c0.159,-0.215 0.331,-0.248 0.543,-0.318c0.067,-0.023 0.067,-0.023 0.135,-0.046c0.15,-0.051 0.301,-0.101 0.451,-0.151c0.108,-0.036 0.216,-0.073 0.325,-0.109c0.299,-0.101 0.597,-0.2 0.896,-0.3c0.322,-0.108 0.643,-0.216 0.965,-0.324c0.558,-0.187 1.115,-0.375 1.673,-0.561c0.807,-0.27 1.613,-0.541 2.419,-0.812c1.309,-0.44 2.617,-0.879 3.926,-1.318c0.039,-0.013 0.078,-0.026 0.119,-0.04c0.317,-0.106 0.635,-0.213 0.952,-0.319c0.914,-0.307 1.828,-0.613 2.742,-0.92c0.039,-0.013 0.078,-0.026 0.119,-0.04c1.343,-0.451 2.686,-0.902 4.029,-1.353c0.805,-0.27 1.609,-0.54 2.414,-0.81c0.551,-0.185 1.102,-0.37 1.653,-0.555c0.318,-0.107 0.637,-0.214 0.955,-0.32c0.291,-0.097 0.582,-0.195 0.873,-0.293c0.106,-0.035 0.211,-0.071 0.317,-0.106c0.143,-0.048 0.286,-0.096 0.429,-0.144c0.041,-0.014 0.083,-0.027 0.126,-0.042c0.202,-0.069 0.363,-0.149 0.552,-0.276c-3.347,-9.014 -6.695,-18.029 -10.144,-27.316c0.039,-0.027 0.079,-0.053 0.119,-0.08c0.142,0.076 0.142,0.076 0.324,0.198c0.069,0.046 0.138,0.093 0.21,0.14c0.078,0.053 0.155,0.105 0.233,0.158c0.082,0.055 0.164,0.11 0.245,0.165c0.226,0.152 0.451,0.304 0.677,0.457c0.243,0.164 0.486,0.328 0.729,0.491c0.421,0.284 0.843,0.568 1.264,0.852c0.609,0.411 1.218,0.822 1.827,1.232c0.988,0.666 1.976,1.332 2.964,1.999c0.96,0.648 1.92,1.295 2.88,1.942c0.059,0.04 0.118,0.08 0.179,0.121c0.297,0.2 0.593,0.4 0.89,0.6c2.463,1.66 4.925,3.321 7.388,4.982c0.119,-0.16 0.102,-0.461 0.122,-0.68c0.006,-0.062 0.012,-0.124 0.018,-0.189c0.019,-0.206 0.038,-0.412 0.057,-0.617c0.013,-0.143 0.027,-0.286 0.04,-0.43c0.088,-0.942 7.657,-64.41 7.698,-64.41c0.004,0.044 7.354,62.112 7.493,63.476c0.008,0.081 0.016,0.161 0.025,0.244c0.041,0.402 0.082,0.804 0.124,1.207c0.015,0.147 0.03,0.294 0.045,0.441c0.007,0.068 0.014,0.136 0.021,0.205c0.006,0.063 0.013,0.126 0.019,0.19c0.006,0.055 0.011,0.109 0.017,0.165c0.012,0.158 0.012,0.318 0.012,0.477c0.042,-0.028 0.084,-0.056 0.127,-0.086c2.478,-1.671 4.956,-3.342 7.435,-5.012c0.297,-0.2 0.595,-0.401 0.892,-0.601c0.089,-0.06 0.089,-0.06 0.179,-0.121c0.96,-0.647 1.919,-1.293 2.878,-1.94c0.984,-0.663 1.968,-1.327 2.952,-1.989c0.608,-0.409 1.215,-0.819 1.823,-1.229c0.416,-0.281 0.832,-0.561 1.248,-0.841c0.24,-0.162 0.481,-0.324 0.721,-0.486c0.22,-0.148 0.44,-0.297 0.66,-0.444c0.08,-0.054 0.16,-0.108 0.239,-0.162c0.108,-0.073 0.216,-0.145 0.324,-0.218c0.06,-0.041 0.12,-0.081 0.182,-0.123c0.149,-0.086 0.149,-0.086 0.328,-0.086c-3.347,9.014 -6.695,18.029 -10.144,27.316c0.336,0.151 0.663,0.292 1.005,0.406c0.044,0.015 0.088,0.03 0.134,0.045c0.147,0.049 0.293,0.098 0.44,0.148c0.107,0.036 0.213,0.072 0.32,0.108c0.292,0.098 0.584,0.196 0.877,0.294c0.315,0.106 0.631,0.212 0.946,0.318c0.546,0.184 1.093,0.367 1.639,0.55c0.79,0.265 1.58,0.531 2.37,0.796c1.282,0.431 2.565,0.862 3.847,1.293c0.038,0.013 0.077,0.026 0.116,0.039c0.856,0.288 1.713,0.575 2.569,0.863c0.35,0.117 0.7,0.235 1.05,0.352c0.038,0.013 0.077,0.026 0.116,0.039c1.317,0.442 2.633,0.885 3.95,1.327c0.788,0.265 1.577,0.53 2.365,0.794c0.54,0.181 1.08,0.362 1.619,0.544c0.312,0.105 0.623,0.21 0.935,0.314c0.285,0.095 0.57,0.191 0.855,0.287c0.103,0.035 0.207,0.069 0.31,0.104c0.14,0.047 0.28,0.094 0.42,0.141c0.061,0.02 0.061,0.02 0.123,0.041c0.195,0.066 0.371,0.141 0.546,0.275c-0.143,0.192 -0.228,0.212 -0.423,0.277c-0.064,0.022 -0.129,0.043 -0.195,0.066c-0.071,0.023 -0.142,0.046 -0.214,0.07c-0.114,0.038 -0.228,0.076 -0.341,0.114c-0.123,0.041 -0.245,0.082 -0.368,0.122c-0.259,0.085 -0.518,0.172 -0.776,0.258c-0.315,0.105 -0.631,0.21 -0.946,0.315c-0.548,0.182 -1.096,0.366 -1.643,0.55c-0.058,0.02 -0.058,0.02 -0.118,0.04c-0.196,0.066 -0.392,0.132 -0.587,0.198c-0.357,0.12 -0.713,0.24 -1.07,0.36c-0.199,0.067 -0.398,0.134 -0.597,0.201c-0.08,0.027 -0.317,0.107 -0.358,0.121c-2.904,0.977 -11.535,3.883 -11.812,3.976c-0.059,0.02 -0.059,0.02 -0.118,0.04c-0.079,0.027 -0.158,0.053 -0.236,0.08c-0.197,0.066 -0.395,0.133 -0.592,0.199c-0.354,0.119 -0.708,0.238 -1.061,0.357c-0.196,0.066 -0.393,0.132 -0.589,0.198c-0.059,0.02 -0.059,0.02 -0.119,0.04c-0.572,0.192 -1.143,0.385 -1.715,0.579c-0.332,0.112 -0.664,0.224 -0.997,0.337c-0.274,0.092 -0.548,0.185 -0.822,0.278c-0.169,0.057 -0.338,0.114 -0.506,0.171c-0.116,0.039 -0.233,0.079 -0.349,0.118c-0.069,0.023 -0.138,0.046 -0.209,0.07c-0.09,0.031 -0.09,0.031 -0.183,0.062c-0.143,0.043 -0.143,0.043 -0.262,0.043c0.023,0.061 0.045,0.122 0.069,0.185c1.346,3.619 2.691,7.237 4.036,10.856c0.161,0.434 0.323,0.868 0.484,1.302c0.048,0.13 0.048,0.13 0.097,0.262c0.521,1.401 1.042,2.802 1.563,4.203c0.534,1.437 1.068,2.873 1.602,4.31c0.33,0.887 0.659,1.774 0.989,2.661c0.226,0.607 0.452,1.215 0.677,1.823c0.13,0.351 0.261,0.702 0.392,1.053c0.12,0.321 0.239,0.642 0.358,0.963c0.043,0.117 0.087,0.233 0.13,0.349c0.059,0.157 0.117,0.315 0.175,0.473c0.049,0.132 0.049,0.132 0.099,0.266c0.069,0.215 0.069,0.215 0.069,0.456c-10.456,-7.039 -10.456,-7.039 -21.122,-14.22c-0.079,0.424 -0.158,0.848 -0.239,1.285Z" style="fill:#6a4d44;fill-rule:nonzero;"/></g></g></svg>