<?xml version="1.0" encoding="UTF-8" standalone="no"?><!DOCTYPE svg PUBLIC "-//W3C//DTD SVG 1.1//EN" "http://www.w3.org/Graphics/SVG/1.1/DTD/svg11.dtd"><svg width="100%" height="100%" viewBox="0 0 2084 2630" version="1.1" xmlns="http://www.w3.org/2000/svg" xmlns:xlink="http://www.w3.org/1999/xlink" xml:space="preserve" xmlns:serif="http://www.serif.com/" style="fill-rule:evenodd;clip-rule:evenodd;stroke-linejoin:round;stroke-miterlimit:2;"><path d="M1035.721,53.908c2.017,-2.855 1.886,-2.754 4.699,-4.806l6.95,1.859c10.111,79.048 19.714,158.161 28.795,237.334l43.804,370.902l23.761,200.967c3.855,32.424 11.614,85.05 12.039,116.282l194.319,-131.542c31.597,-21.255 67.152,-46.349 99.671,-65.544c-39.176,118.726 -89.763,238.5 -131.801,356.076c48.318,-38.413 94.265,-70.449 144.756,-106.275c83.639,-58.249 166.66,-117.372 249.066,-177.352c78.999,-58.297 254.4,-185.036 268.989,-287.994c16.84,-118.879 -252.352,-32.033 -299.862,-101.815c-22.252,-30.452 -8.537,-82.226 21.145,-101.577c100.862,-69.683 258.339,-13.236 327.718,76.269c27.119,34.724 39.338,78.802 33.98,122.54c-15.374,117.219 -209.333,263.303 -301.107,330.589c-136.392,99.998 -286.578,212.442 -429.046,303.367c24.168,10.636 69.845,24.285 96.18,33.065l175.802,58.95c16.26,5.45 70.318,22.057 80.861,29.759l0.898,2.426c-11.249,8.133 -346.342,119.84 -368.791,124.409c31.424,23.788 68.756,48.355 101.556,70.886l216.535,146.695c59.824,40.671 122.18,88.368 180.549,131.488c51.042,37.707 107.429,82.325 153.526,125.727c44.049,43.965 94.247,101.639 105.112,165.003c5.993,42.57 -7.417,91.075 -33.896,124.188c-72.671,90.895 -221.971,146.886 -326.395,77.617c-28.287,-18.764 -44.684,-71.155 -21.234,-99.387c19.223,-23.147 52.802,-28.585 81.154,-31.514c58.178,-5.917 123.06,-0.006 179.4,-15.23c10.297,-2.785 21.737,-10.463 28.55,-18.542c8.567,-10.157 11.901,-25.369 9.83,-38.461c-15.415,-97.261 -141.062,-186.797 -214.679,-244.734c-42.894,-33.76 -104.879,-75.611 -149.018,-105.856l-183.076,-125.344c-48.671,-33.455 -88.697,-60.249 -135.357,-97.07c45.247,111.365 84.381,226.175 127.161,338.576c3.969,10.427 7.896,22.854 10.746,33.616c-66.774,-43.558 -133.142,-87.733 -199.09,-132.531c-27.802,-18.674 -87.967,-57.009 -112.129,-76.959c-7.34,66.238 -18.044,135.016 -25.85,202.5c-15.787,145.407 -30.831,290.892 -45.133,436.448c-7.561,80.828 -15.583,161.607 -24.066,242.339c-1.634,15.769 -3.053,31.562 -4.25,47.373c-0.371,5.624 -1.149,26.13 -2.281,30.544l-2.748,0c-2.006,-7.295 -6.717,-57.225 -7.729,-66.873c-6.298,-57.47 -11.859,-115.013 -16.679,-172.627l-38.344,-446.037c-7.974,-93.59 -14.027,-179.55 -26.06,-272.859c-103.807,69.299 -205.843,140.436 -310.71,208.489c5.136,-24.273 26.706,-78.39 36.231,-103.993l64.655,-173.897c11.045,-29.406 26.09,-64.999 35.303,-94.339c-42.654,35.91 -94.552,69.496 -140.93,101.304c-88.342,59.65 -176.105,120.157 -263.278,181.509c-67.479,48.271 -139.405,101.891 -198.58,160.32c-32.63,33.874 -66.466,72.431 -77.636,119.295c-7.904,33.161 6.182,59.986 39.652,68.616c65.212,16.823 135.854,6.39 202.079,18.141c19.666,3.486 45.983,12.924 57.939,30.664c21.648,35.515 0.471,84.738 -33.208,103.346c-109.144,60.291 -259.922,-0.761 -326.489,-98.124c-21.756,-31.82 -30.307,-83.289 -21.744,-121.421c15.21,-59.956 60.096,-111.875 102.538,-155.085c41.726,-40.192 95.412,-81.528 141.603,-116.672c102.983,-78.348 208.867,-153.786 317.147,-224.647c63.923,-41.839 129.272,-91.446 193.562,-131.297c-29.316,-11.397 -69.851,-23.728 -100.479,-34.024c-76.051,-25.07 -151.908,-50.733 -227.563,-76.983c-10.509,-3.701 -26.075,-8.72 -37.012,-12.355c-1.607,-0.533 -1.269,-1.833 -1.545,-3.971c6.532,-7.576 62.111,-24.417 75.028,-28.765l115.196,-38.695l93.034,-31.185c21.216,-7.097 46.45,-16.068 67.948,-20.854c-25.084,-19.506 -53.76,-37.359 -79.604,-56.231c-71.137,-51.943 -144.827,-100.615 -216.496,-151.761c-60.336,-43.78 -119.927,-88.571 -178.749,-134.363c-89.563,-70.059 -246.744,-185.857 -255.904,-308.795c-9.038,-121.307 141.696,-216.226 250.43,-215.463c41.526,0.291 89.36,8.12 120.654,38.82c15.755,15.295 24.59,36.359 24.461,58.321c0.141,112.369 -245.11,35.917 -298.892,92.423c-10.171,10.687 -13.794,24.717 -13.325,39.183c3.876,119.403 287.468,308.835 381.563,375.319l180.654,127.769c29.813,21.123 78.227,53.176 103.245,76.797c-9.195,-26.513 -21.564,-55.907 -31.633,-82.57l-64.218,-172.591c-12.129,-32.73 -26.826,-70.574 -36.716,-103.67c21.695,11.834 58.417,38.102 80.029,52.667l134.183,90.59c25.497,17.23 53.634,37.216 79.544,52.943c1.167,-28.023 6.136,-62.387 9.525,-90.733l17.331,-144.862l55.011,-460.396l17.271,-142.472c3.227,-26.028 7.974,-57.332 9.962,-83.171Z" style="fill:#fff;fill-rule:nonzero;"/><path d="M1035.721,53.908c1.131,-10.989 2.293,-27.252 5.478,-37.231l1.377,0.134c3.484,11.699 3.61,21.905 4.795,34.15l-6.95,-1.859c-2.814,2.052 -2.682,1.951 -4.699,4.806Z" style="fill:#000002;fill-rule:nonzero;"/></svg>