<?xml version="1.0" encoding="utf-8" ?><svg xmlns="http://www.w3.org/2000/svg" xmlns:xlink="http://www.w3.org/1999/xlink" width="500" height="631" viewBox="0 0 500 631"><path fill="#131327" transform="scale(1.43678 1.43736)" d="M173.007 9.00122C173.344 8.52456 173.322 8.54136 173.792 8.19878L174.953 8.5092C176.642 21.7081 178.246 34.9178 179.763 48.1375L187.08 110.068L191.049 143.624C191.693 149.038 192.989 157.825 193.06 163.04L225.519 141.076C230.797 137.527 236.736 133.337 242.168 130.132C235.624 149.956 227.174 169.955 220.152 189.587C228.223 183.173 235.898 177.824 244.332 171.842C258.303 162.116 272.171 152.244 285.936 142.229C299.132 132.495 328.431 111.333 330.868 94.1419C333.681 74.2923 288.715 88.7932 280.779 77.1415C277.062 72.0568 279.353 63.412 284.311 60.1809C301.159 48.5457 327.464 57.9709 339.053 72.9158C343.583 78.7137 345.624 86.0736 344.729 93.3766C342.161 112.949 309.762 137.341 294.432 148.576C271.649 165.273 246.562 184.048 222.764 199.23C226.801 201.006 234.431 203.285 238.83 204.751L268.196 214.594C270.912 215.504 279.942 218.277 281.703 219.563L281.853 219.968C279.974 221.326 224 239.978 220.25 240.741C225.499 244.713 231.735 248.815 237.214 252.577L273.384 277.071C283.377 283.862 293.793 291.826 303.543 299.026C312.069 305.322 321.488 312.772 329.188 320.019C336.546 327.36 344.931 336.99 346.746 347.57C347.747 354.678 345.507 362.777 341.084 368.306C328.945 383.483 304.006 392.832 286.563 381.266C281.838 378.133 279.099 369.385 283.016 364.671C286.227 360.806 291.836 359.898 296.572 359.409C306.29 358.421 317.128 359.408 326.539 356.866C328.259 356.401 330.17 355.119 331.308 353.77C332.739 352.074 333.296 349.534 332.95 347.348C330.375 331.108 309.387 316.158 297.09 306.484C289.925 300.847 279.571 293.859 272.198 288.809L241.617 267.88C233.487 262.294 226.801 257.82 219.007 251.672C226.565 270.267 233.102 289.437 240.248 308.205C240.911 309.946 241.567 312.021 242.043 313.818C230.889 306.545 219.803 299.169 208.787 291.689C204.143 288.571 194.093 282.17 190.057 278.839C188.831 289.899 187.043 301.383 185.739 312.651C183.102 336.93 180.589 361.222 178.2 385.526C176.937 399.022 175.597 412.51 174.18 425.99C173.907 428.623 173.67 431.26 173.47 433.9C173.408 434.839 173.278 438.263 173.089 439L172.63 439C172.295 437.782 171.508 429.445 171.339 427.834C170.287 418.238 169.358 408.63 168.553 399.01L162.148 324.534C160.816 308.907 159.805 294.554 157.795 278.974C140.455 290.545 123.411 302.423 105.894 313.786C106.752 309.733 110.355 300.697 111.946 296.422L122.746 267.386C124.591 262.476 127.104 256.533 128.643 251.634C121.518 257.63 112.849 263.238 105.102 268.549C90.3454 278.509 75.6854 288.612 61.124 298.856C49.8523 306.916 37.8377 315.869 27.9531 325.625C22.5025 331.281 16.8506 337.719 14.9847 345.544C13.6644 351.081 16.0174 355.56 21.6082 357.001C32.5013 359.81 44.3012 358.068 55.3635 360.03C58.6485 360.612 63.0445 362.188 65.0417 365.15C68.6578 371.08 65.1203 379.299 59.4947 382.406C41.2633 392.473 16.0772 382.279 4.95784 366.022C1.32375 360.709 -0.104644 352.115 1.32569 345.748C3.86633 335.737 11.3642 327.068 18.4536 319.853C25.4235 313.142 34.3913 306.24 42.107 300.372C59.3093 287.29 76.9962 274.694 95.0833 262.862C105.761 255.876 116.677 247.593 127.416 240.939C122.519 239.036 115.748 236.977 110.632 235.258C97.9285 231.072 85.2573 226.787 72.6199 222.404C70.8644 221.786 68.2643 220.948 66.4374 220.341C66.1689 220.252 66.2255 220.035 66.1794 219.678C67.2705 218.413 76.5544 215.601 78.7121 214.875L97.9545 208.414L113.495 203.207C117.039 202.022 121.254 200.524 124.845 199.725C120.655 196.468 115.865 193.487 111.548 190.336C99.6653 181.663 87.356 173.536 75.3844 164.996C65.3059 157.686 55.3518 150.207 45.5261 142.561C30.5655 130.863 4.30997 111.528 2.77993 91.0007C1.27018 70.7458 26.4488 54.8969 44.6118 55.0243C51.5483 55.0729 59.5385 56.3801 64.7659 61.5062C67.3977 64.06 68.8735 67.5772 68.8519 71.2443C68.8755 90.0068 27.9086 77.2415 18.925 86.6764C17.226 88.4608 16.6208 90.8034 16.6992 93.2189C17.3467 113.156 64.7179 144.786 80.4356 155.887L110.612 177.221C115.592 180.748 123.679 186.1 127.858 190.044C126.322 185.617 124.256 180.709 122.574 176.257L111.847 147.439C109.821 141.974 107.366 135.655 105.714 130.129C109.338 132.105 115.472 136.491 119.082 138.923L141.496 154.049C145.755 156.926 150.455 160.263 154.783 162.889C154.978 158.21 155.808 152.472 156.374 147.739L159.269 123.551L168.458 46.6774L171.343 22.8885C171.882 18.5426 172.675 13.3156 173.007 9.00122Z"/><path fill="#000002" transform="scale(1.43678 1.43736)" d="M173.007 9.00122C173.196 7.16629 173.39 4.45086 173.922 2.78466L174.152 2.80702C174.734 4.76049 174.755 6.46453 174.953 8.5092L173.792 8.19878C173.322 8.54136 173.344 8.52456 173.007 9.00122Z"/></svg>