<?xml version="1.0"?><svg width="100%" height="100%" viewBox="0 0 497 321" version="1.1" xmlns="http://www.w3.org/2000/svg" xmlns:xlink="http://www.w3.org/1999/xlink" xml:space="preserve" xmlns:serif="http://www.serif.com/" style="fill-rule:evenodd;clip-rule:evenodd;stroke-linejoin:round;stroke-miterlimit:2;"><rect id="sb-dark-bg-logomark-fancy" x="0" y="0" width="496.245" height="320.525" style="fill:none;"></rect><clipPath id="_clip1"><rect x="0" y="0" width="496.245" height="320.525"></rect></clipPath><g clip-path="url(#_clip1)"><g id="logomark-fancy"><g><g><g><path d="M300.009,321.314c-16.77,-0.16 -34.227,-8.011 -51.822,-20.669c-6.192,-4.455 -58.007,-53.997 -58.007,-53.997c-51.684,-56.08 -101.032,-123.536 -136.221,-123.536c-28.179,0 0,58.804 -30.516,58.804c-13.196,0 -20.619,-9.293 -22.681,-20.349c-0.412,-2.083 -0.55,-4.166 -0.55,-6.249c0,-6.089 1.512,-12.017 4.399,-17.305c10.309,-18.586 25.292,-30.283 46.598,-30.283c14.021,0 29.553,8.172 45.636,20.99c17.441,13.901 59.244,59.765 59.244,59.765c16.77,19.067 33.815,39.096 50.447,57.362c19.931,21.471 54.778,54.245 71.823,54.245c12.646,0 26.925,-4.959 29.249,-23.073c2.716,-21.166 28.228,-56.204 34.599,-21.078c1.1,5.768 1.512,11.216 1.512,16.343c0,29.001 -15.808,49.03 -43.437,49.03l-0.275,0Z" style="fill:#faf9d4;fill-rule:nonzero;"></path><path d="M196.661,321.314c16.77,-0.16 34.227,-8.011 51.822,-20.669c6.192,-4.455 58.007,-53.997 58.007,-53.997c51.684,-56.08 101.032,-123.536 136.221,-123.536c28.179,0 0,58.804 30.516,58.804c13.196,0 20.619,-9.293 22.681,-20.349c0.412,-2.083 0.55,-4.166 0.55,-6.249c0,-6.089 -1.512,-12.017 -4.399,-17.305c-10.309,-18.586 -25.292,-30.283 -46.598,-30.283c-14.021,0 -29.553,8.172 -45.636,20.99c-17.441,13.901 -59.244,59.765 -59.244,59.765c-16.77,19.067 -33.815,39.096 -50.447,57.362c-19.931,21.471 -54.778,54.245 -71.823,54.245c-12.646,0 -26.925,-4.959 -29.249,-23.073c-2.716,-21.166 -28.228,-56.204 -34.599,-21.078c-1.1,5.768 -1.512,11.216 -1.512,16.343c0,29.001 15.808,49.03 43.437,49.03l0.275,0Z" style="fill:#faf9d4;fill-rule:nonzero;"></path></g></g></g><g><g><g><path d="M300.009,0.789c-16.77,0.16 -34.227,8.011 -51.822,20.669c-6.192,4.455 -58.007,53.997 -58.007,53.997c-51.684,56.08 -101.032,123.536 -136.221,123.536c-28.179,0 0,-58.804 -30.516,-58.804c-13.196,0 -20.619,9.293 -22.681,20.349c-0.412,2.083 -0.55,4.166 -0.55,6.249c0,6.089 1.512,12.017 4.399,17.305c10.309,18.586 25.292,30.283 46.598,30.283c14.021,0 29.553,-8.172 45.636,-20.99c17.441,-13.901 59.244,-59.765 59.244,-59.765c16.77,-19.067 33.815,-39.096 50.447,-57.362c19.931,-21.471 54.778,-54.245 71.823,-54.245c12.646,0 26.925,4.959 29.249,23.073c2.716,21.166 28.228,56.204 34.599,21.078c1.1,-5.768 1.512,-11.216 1.512,-16.343c0,-29.001 -15.808,-49.03 -43.437,-49.03l-0.275,0Z" style="fill:#faf9d4;fill-rule:nonzero;"></path><path d="M196.661,0.789c16.77,0.16 34.227,8.011 51.822,20.669c6.192,4.455 58.007,53.997 58.007,53.997c51.684,56.08 101.032,123.536 136.221,123.536c28.179,0 0,-58.804 30.516,-58.804c13.196,0 20.619,9.293 22.681,20.349c0.412,2.083 0.55,4.166 0.55,6.249c0,6.089 -1.512,12.017 -4.399,17.305c-10.309,18.586 -25.292,30.283 -46.598,30.283c-14.021,0 -29.553,-8.172 -45.636,-20.99c-17.441,-13.901 -59.244,-59.765 -59.244,-59.765c-16.77,-19.067 -33.815,-39.096 -50.447,-57.362c-19.931,-21.471 -54.778,-54.245 -71.823,-54.245c-12.646,0 -26.925,4.959 -29.249,23.073c-2.716,21.166 -28.228,56.204 -34.599,21.078c-1.1,-5.768 -1.512,-11.216 -1.512,-16.343c0,-29.001 15.808,-49.03 43.437,-49.03l0.275,0Z" style="fill:#faf9d4;fill-rule:nonzero;"></path></g></g></g><path d="M256.367,193.352c-2.154,11.601 -8.556,81.187 -8.607,81.187c-0.973,-5.153 -6.858,-78.33 -6.984,-79.004c-0.077,-0.413 -0.154,-0.826 -0.23,-1.239c-0.036,-0.191 -0.071,-0.382 -0.107,-0.573c-0.049,-0.26 -0.097,-0.52 -0.145,-0.78c-0.014,-0.076 -0.029,-0.151 -0.043,-0.229c-0.062,-0.338 -0.096,-0.62 -0.096,-0.971c-1.343,0.853 -2.672,1.742 -4,2.638c-0.301,0.203 -0.602,0.406 -0.903,0.609c-0.52,0.35 -1.039,0.7 -1.558,1.051c-0.751,0.507 -1.502,1.013 -2.254,1.519c-1.22,0.822 -2.439,1.643 -3.658,2.465c-0.073,0.049 -0.145,0.098 -0.22,0.149c-1.036,0.698 -2.071,1.396 -3.107,2.094c-0.073,0.049 -0.146,0.099 -0.222,0.15c-0.073,0.049 -0.146,0.099 -0.222,0.149c-1.217,0.821 -2.434,1.641 -3.652,2.461c-0.75,0.505 -1.5,1.011 -2.25,1.517c-0.512,0.346 -1.025,0.691 -1.537,1.036c-0.296,0.199 -0.592,0.399 -0.888,0.598c-0.27,0.183 -0.541,0.365 -0.811,0.547c-0.098,0.066 -0.196,0.132 -0.294,0.199c-0.133,0.09 -0.265,0.179 -0.398,0.268c-0.074,0.05 -0.148,0.1 -0.224,0.151c-0.175,0.105 -0.175,0.105 -0.324,0.105c0.1,-0.433 0.224,-0.828 0.374,-1.233c0.022,-0.061 0.045,-0.122 0.068,-0.184c0.075,-0.203 0.151,-0.406 0.227,-0.609c0.055,-0.147 0.109,-0.295 0.164,-0.442c0.15,-0.404 0.301,-0.809 0.451,-1.213c0.162,-0.436 0.324,-0.872 0.486,-1.308c0.281,-0.756 0.562,-1.511 0.843,-2.267c0.407,-1.092 0.813,-2.185 1.219,-3.278c0.659,-1.773 1.318,-3.546 1.977,-5.319c0.059,-0.159 0.059,-0.159 0.12,-0.322c0.28,-0.753 0.56,-1.507 0.841,-2.26c0.32,-0.861 0.641,-1.722 0.961,-2.584c0.039,-0.106 0.079,-0.212 0.12,-0.322c0.657,-1.767 1.314,-3.533 1.97,-5.3c0.405,-1.091 0.811,-2.181 1.217,-3.271c0.278,-0.746 0.555,-1.493 0.833,-2.239c0.16,-0.431 0.321,-0.862 0.481,-1.293c0.147,-0.394 0.293,-0.788 0.44,-1.182c0.053,-0.143 0.106,-0.286 0.16,-0.429c0.072,-0.193 0.144,-0.387 0.216,-0.58c0.04,-0.108 0.08,-0.216 0.121,-0.327c0.095,-0.237 0.095,-0.237 0.085,-0.454c-0.049,-0.017 -18.827,-6.338 -24.804,-8.35c-0.049,-0.017 -9.065,-3.051 -9.264,-3.119c0.2,-0.269 0.414,-0.311 0.68,-0.398c0.083,-0.028 0.083,-0.028 0.168,-0.057c0.188,-0.064 0.376,-0.126 0.565,-0.189c0.136,-0.046 0.271,-0.091 0.407,-0.137c0.374,-0.126 0.748,-0.251 1.122,-0.376c0.403,-0.135 0.805,-0.27 1.208,-0.406c0.698,-0.235 1.396,-0.469 2.095,-0.703c1.01,-0.338 2.02,-0.677 3.029,-1.017c1.638,-0.551 3.277,-1.101 4.916,-1.651c0.049,-0.016 0.098,-0.033 0.149,-0.05c0.397,-0.133 0.795,-0.267 1.192,-0.4c1.144,-0.384 2.289,-0.768 3.433,-1.152c0.049,-0.016 0.098,-0.033 0.149,-0.05c1.682,-0.564 3.363,-1.129 5.045,-1.694c1.007,-0.339 2.015,-0.677 3.023,-1.014c0.69,-0.231 1.38,-0.463 2.07,-0.695c0.399,-0.134 0.797,-0.268 1.196,-0.401c0.365,-0.122 0.729,-0.244 1.094,-0.367c0.132,-0.044 0.264,-0.089 0.397,-0.133c0.179,-0.06 0.358,-0.12 0.537,-0.181c0.052,-0.017 0.104,-0.034 0.157,-0.052c0.254,-0.086 0.455,-0.187 0.691,-0.346c-4.191,-11.287 -8.383,-22.574 -12.701,-34.203c0.049,-0.033 0.099,-0.066 0.149,-0.101c0.178,0.095 0.178,0.095 0.406,0.248c0.087,0.058 0.173,0.116 0.263,0.176c0.097,0.066 0.194,0.132 0.291,0.198c0.102,0.069 0.205,0.138 0.307,0.206c0.283,0.19 0.565,0.381 0.847,0.572c0.304,0.206 0.608,0.41 0.913,0.615c0.528,0.355 1.055,0.711 1.582,1.067c0.762,0.515 1.525,1.029 2.288,1.543c1.237,0.834 2.475,1.668 3.712,2.502c1.202,0.811 2.404,1.622 3.606,2.432c0.074,0.05 0.148,0.1 0.224,0.151c0.371,0.25 0.743,0.501 1.114,0.751c3.084,2.078 6.167,4.158 9.25,6.238c0.149,-0.2 0.128,-0.577 0.153,-0.852c0.007,-0.078 0.015,-0.156 0.022,-0.236c0.024,-0.258 0.048,-0.515 0.072,-0.773c0.017,-0.179 0.034,-0.359 0.05,-0.538c0.111,-1.18 9.588,-80.65 9.639,-80.65c0.005,0.055 9.208,77.772 9.382,79.48c0.01,0.101 0.021,0.202 0.031,0.306c0.051,0.504 0.103,1.007 0.155,1.511c0.019,0.184 0.038,0.368 0.057,0.552c0.009,0.085 0.018,0.17 0.027,0.257c0.008,0.079 0.016,0.157 0.024,0.238c0.007,0.068 0.014,0.137 0.021,0.207c0.015,0.198 0.015,0.398 0.015,0.598c0.052,-0.035 0.105,-0.071 0.159,-0.107c3.103,-2.092 6.206,-4.184 9.309,-6.275c0.372,-0.251 0.745,-0.502 1.117,-0.753c0.111,-0.075 0.111,-0.075 0.225,-0.151c1.202,-0.81 2.403,-1.62 3.604,-2.43c1.232,-0.831 2.464,-1.661 3.696,-2.491c0.761,-0.512 1.522,-1.025 2.282,-1.538c0.521,-0.352 1.042,-0.703 1.563,-1.053c0.301,-0.203 0.602,-0.405 0.903,-0.609c0.275,-0.186 0.55,-0.371 0.826,-0.556c0.1,-0.067 0.2,-0.135 0.3,-0.202c0.135,-0.091 0.27,-0.182 0.406,-0.273c0.075,-0.051 0.151,-0.101 0.228,-0.154c0.187,-0.107 0.187,-0.107 0.411,-0.107c-4.191,11.287 -8.383,22.574 -12.701,34.203c0.421,0.189 0.83,0.366 1.258,0.508c0.055,0.019 0.11,0.037 0.167,0.056c0.184,0.062 0.367,0.123 0.551,0.185c0.134,0.045 0.267,0.09 0.4,0.135c0.366,0.123 0.732,0.246 1.098,0.368c0.395,0.132 0.79,0.265 1.185,0.398c0.684,0.23 1.368,0.46 2.052,0.689c0.989,0.332 1.979,0.664 2.968,0.997c1.606,0.54 3.211,1.079 4.817,1.619c0.048,0.016 0.096,0.032 0.146,0.049c1.072,0.36 2.144,0.72 3.217,1.08c0.438,0.147 0.876,0.294 1.314,0.441c0.048,0.016 0.096,0.032 0.146,0.049c1.649,0.554 3.297,1.108 4.946,1.662c0.987,0.332 1.974,0.664 2.962,0.995c0.676,0.227 1.352,0.454 2.027,0.681c0.39,0.131 0.78,0.262 1.171,0.393c0.357,0.12 0.714,0.24 1.071,0.36c0.129,0.044 0.259,0.087 0.388,0.13c0.175,0.059 0.351,0.118 0.526,0.177c0.076,0.025 0.076,0.025 0.154,0.051c0.244,0.083 0.464,0.176 0.684,0.344c-0.179,0.241 -0.286,0.265 -0.529,0.346c-0.08,0.027 -0.161,0.054 -0.244,0.082c-0.089,0.029 -0.177,0.058 -0.269,0.088c-0.143,0.048 -0.285,0.095 -0.428,0.143c-0.154,0.051 -0.307,0.102 -0.461,0.153c-0.324,0.107 -0.648,0.215 -0.972,0.323c-0.395,0.132 -0.79,0.263 -1.185,0.395c-0.686,0.228 -1.372,0.458 -2.057,0.689c-0.073,0.025 -0.073,0.025 -0.148,0.05c-0.245,0.083 -0.49,0.165 -0.735,0.248c-0.447,0.151 -0.893,0.301 -1.34,0.451c-0.249,0.084 -0.498,0.168 -0.747,0.252c-0.1,0.034 -0.397,0.134 -0.448,0.151c-3.636,1.224 -14.443,4.862 -14.791,4.979c-0.073,0.025 -0.073,0.025 -0.148,0.05c-0.099,0.033 -0.197,0.066 -0.296,0.1c-0.247,0.083 -0.494,0.166 -0.741,0.249c-0.443,0.149 -0.886,0.298 -1.329,0.447c-0.246,0.083 -0.492,0.165 -0.737,0.248c-0.074,0.025 -0.074,0.025 -0.149,0.05c-0.716,0.241 -1.432,0.482 -2.147,0.724c-0.416,0.141 -0.832,0.281 -1.248,0.421c-0.343,0.116 -0.686,0.232 -1.029,0.348c-0.211,0.072 -0.423,0.143 -0.634,0.214c-0.146,0.049 -0.292,0.099 -0.437,0.148c-0.086,0.029 -0.173,0.058 -0.262,0.088c-0.113,0.038 -0.113,0.038 -0.229,0.077c-0.179,0.054 -0.179,0.054 -0.328,0.054c0.028,0.077 0.057,0.153 0.086,0.232c1.685,4.531 3.369,9.062 5.053,13.594c0.202,0.544 0.404,1.087 0.606,1.631c0.06,0.162 0.06,0.162 0.122,0.328c0.652,1.754 1.304,3.509 1.957,5.263c0.669,1.799 1.338,3.598 2.006,5.397c0.413,1.111 0.826,2.222 1.239,3.332c0.283,0.761 0.566,1.522 0.848,2.283c0.163,0.44 0.327,0.879 0.49,1.318c0.15,0.402 0.299,0.804 0.448,1.206c0.054,0.146 0.108,0.292 0.163,0.437c0.074,0.197 0.147,0.395 0.22,0.592c0.061,0.165 0.061,0.165 0.124,0.333c0.086,0.27 0.086,0.27 0.086,0.571c-13.092,-8.814 -13.092,-8.814 -26.448,-17.806c-0.099,0.531 -0.197,1.062 -0.299,1.61Z" style="fill:#faf9d4;fill-rule:nonzero;"></path></g></g></svg>