<?xml version="1.0"?><svg width="100%" height="100%" viewBox="0 0 2817 3125" version="1.1" xmlns="http://www.w3.org/2000/svg" xmlns:xlink="http://www.w3.org/1999/xlink" xml:space="preserve" xmlns:serif="http://www.serif.com/" style="fill-rule:evenodd;clip-rule:evenodd;stroke-linejoin:round;stroke-miterlimit:2;"><rect id="Ship" x="0" y="0" width="2812.843" height="3125" style="fill:none;"></rect><clipPath id="_clip1"><rect x="0" y="0" width="2812.843" height="3125"></rect></clipPath><g clip-path="url(#_clip1)"><g><path d="M1257.663,90.833c-12.154,-16.573 -26.562,-35.095 -22.71,-56.166c9.379,-51.306 94.194,-38.296 112.969,-1.151c13.268,26.262 -5.013,60.323 -12.485,85.498c110.094,-47.544 222.59,-40.418 331.639,4.997c98.119,40.865 165,74.3 276.066,61.463c33.419,-3.862 72.44,-12.527 103.831,-15.864c14.366,-3.736 49.236,-3.032 64.274,-1.413c29.336,0.473 136.683,10.993 149.551,36.703c-4.719,16.615 -55.546,9.453 -71.604,10.751c-17.424,1.582 -34.638,4.924 -51.39,9.973c-77.805,23.01 -153.981,74.825 -234.208,87.557c-151.122,23.977 -305.928,-35.836 -453.372,25.122c-12.606,5.213 -31.995,28.958 -39.152,31.617c-41.532,15.422 -30.555,-1.298 -70.643,25.984c21.838,100.715 46.677,178.63 89.223,273.076c11.119,24.691 25.133,60.128 39.809,82.035c134.87,-41.207 681.758,-194.52 787.548,-139.168c6.658,3.484 13.783,9.196 15.359,16.925c1.739,8.544 -2.622,18.659 -8.092,25.143c-30.908,36.609 -157.197,27.844 -206.679,49.819c-29.005,12.884 -55.783,33.051 -80.401,52.798c-131.517,105.507 -221.996,265.515 -278.231,422.286c-10.903,30.382 -23.614,62.388 -29.447,94.162c36.672,100.526 86.349,202.717 132.4,299.932c69.355,148.484 143.414,294.725 222.059,438.501c17.456,31.465 57.412,107.005 78.477,131.202c19.836,-19.983 31.233,-29.242 54.406,-45.61c97.799,-71.152 112.201,-197.615 149.199,-304.509c44.916,-131.77 140.119,-246.598 288.829,-250.944c182.639,-5.339 290.821,217.299 164.91,351.795c-66.486,71.016 -211.455,68.131 -205.087,-48.337c4.057,-0.131 2.039,-0.242 6.059,0.336c-0.646,-12.291 -0.641,-13.052 -4.955,-24.397c5.496,-13.841 34.722,-37.471 51.821,-35.511c14.261,9.527 30.902,36.798 43.681,51.301l2.895,-2.07c37.118,-26.935 47.423,-67.784 17.845,-105.307c-13.799,-17.75 -34.496,-28.785 -56.923,-30.356c-33.393,-2.259 -65.756,17.225 -89.402,39.404c-81.977,76.896 -103.852,185.062 -112.853,292.313c-18.354,218.602 -12.164,430.499 -81.546,641.297c5.228,4.687 2.485,2.459 8.229,6.668c-4.456,12.327 -27.287,45.379 -35.095,60.643c-30.603,59.818 -56.991,120.488 -95.697,175.666c79.402,12.816 152.037,23.893 232.6,30.098c76.344,5.88 152.861,7.561 228.801,14.103c-90.437,44.696 -160.812,65.42 -262.903,68.804c-92.607,3.967 -185.23,-0.788 -277.737,-5.502c-16.71,-0.851 -36.351,13.399 -53.639,11.818c-29.195,-2.669 -57.895,-15.606 -87.211,-18.044c-41.627,-3.468 -84.005,-2.864 -125.338,1.093c-336.068,32.19 -667.544,143.251 -1008.415,97.51c-34.785,-4.671 -176.329,-24.555 -190.5,-52.593c6.432,-11.786 122.159,-6.721 142.347,-6.668c32.957,-0.089 65.903,-0.962 98.818,-2.622c79.371,-3.752 155.725,-14.781 233.977,-26.825c-18.423,-2.806 -36.872,-4.571 -55.452,-5.98c-139.341,-10.567 -277.952,-30.555 -417.751,-34.812c-42.184,-1.35 -84.41,-0.799 -126.546,1.645c-103.694,5.68 -476.145,43.986 -535.412,-33.388c-3.426,-4.477 -3.19,-5.664 -2.837,-11.008c7.745,-5.675 28.28,-6.279 38.579,-6.547c137.05,-3.62 267.501,-25.064 401.604,-52.94c-210.331,-179.56 -242.952,-374.952 -187.673,-637.283c35.474,-168.342 116.941,-338.449 108.239,-512.97c-5.622,-48.584 -27.76,-94.021 -64.579,-126.394c-24.192,-21.276 -64.027,-40.298 -70.18,-74.053c-2.937,-18.801 17.035,-30.477 32.815,-29.667c43.802,2.249 93.227,37.576 122.458,69.103c164.994,177.963 24.676,419.795 31.296,622.649c2.722,83.264 166.103,136.704 232.327,162.735c14.813,-23.183 44.654,-37.854 66.639,-15.89c21.57,21.549 30.661,22.852 59.498,30.666c17.408,-36.577 39.247,-80.7 52.961,-118.827c-144.007,-140.082 -228.612,-323.441 -231.649,-525.113c-1.65,-139.01 26.788,-276.733 83.359,-403.716c17.466,-38.895 39.415,-75.046 56.256,-111.681c-43.597,29.604 -88.687,56.855 -132.4,86.249c-24.67,16.589 -50.097,38.59 -76.554,51.753c-12.763,6.348 -27.65,10.893 -42,8.386c-8.512,-1.482 -16.589,-5.917 -21.428,-13.231c-5.086,-7.682 -5.57,-16.809 -3.321,-25.548c17.482,-67.868 398.13,-291.115 481.221,-336.284c41.059,-22.316 121.907,-58.147 156.666,-83.096c18.959,-13.599 28.722,-34.412 48.479,-47.386c2.464,-1.618 4.861,-3.331 7.335,-4.945c29.872,-103.999 56.314,-207.509 84.457,-311.992c21.113,-78.367 15.06,-155.82 18.076,-236.136c1.298,-68.599 5.323,-141.333 3.61,-209.637Z" style="fill:#04041c;fill-rule:nonzero;"></path><path d="M1348.725,131.341c126.699,-74.274 255.295,-22.274 374.852,36.609c92.181,45.4 228.606,24.707 324.902,7.414l-1.508,-5.754c14.366,-3.736 49.236,-3.032 64.274,-1.413c-5.544,5.728 -2.89,4.44 -9.952,6.579c-26.914,4.009 -210.709,47.349 -225.38,58.084c53.597,9.926 98.03,-19.064 145.463,-28.827c-39.404,24.87 -137.87,58.268 -183.958,55.793c-97.221,-5.228 -194.441,-8.954 -291.846,-2.743c-79.161,4.351 -129.484,28.506 -201.22,49.982c42.005,-25.863 91.036,-40.56 138.38,-54.89c-26.241,-0.179 -48.631,0.757 -74.116,8.355l0.1,-6.206c28.007,-10.126 59.104,-18.417 87.909,-26.93c-28.322,0.499 -78.083,7.419 -106.043,12.911l0.993,-2.654c29.82,-18.291 67.748,-21.99 101.845,-32.715l2.874,-0.925c-16.967,0.804 -33.913,2.044 -50.817,3.715c-13.047,-1.66 -25.185,2.68 -34.176,-3.689c14.413,-7.015 20.482,-8.181 35.663,-11.86c15.37,-2.296 34.123,-3.978 47.864,-10.357l-3.153,1.156c-11.45,-4.897 -29.195,-0.447 -43.44,1.103c-29.394,-0.31 -40.502,4.708 -66.218,6.111l0.583,-1.067c30.976,-17.235 68.079,-22.495 102.796,-30.808c-12.595,-0.284 -58.746,0.273 -66.549,-3.169c10.635,-9.984 46.267,-17.24 61.037,-20.792c-11.271,-1.634 -57.517,1.576 -71.415,2.091c-9.395,4.645 -5.381,4.656 -14.25,4.277c1.781,-10.483 1.86,-11.576 -2.422,-21.37c-14.424,3.747 -28.785,7.745 -43.072,11.986Z" style="fill:#f6f5e8;fill-rule:nonzero;"></path><path d="M1391.797,119.355c33.761,-7.062 55.982,-7.441 90.29,-3.573c-18.843,2.244 -63.171,4.545 -73.617,20.666c-9.395,4.645 -5.381,4.656 -14.25,4.277c1.781,-10.483 1.86,-11.576 -2.422,-21.37Z" style="fill:#04041c;fill-rule:nonzero;"></path><path d="M2046.972,169.61c14.366,-3.736 49.236,-3.032 64.274,-1.413c-5.544,5.728 -2.89,4.44 -9.952,6.579c-8.523,-4.745 -41.364,-0.357 -52.814,0.589l-1.508,-5.754Z" style="fill:#04041c;fill-rule:nonzero;"></path><path d="M1411.302,204.038c8.991,6.369 21.129,2.028 34.176,3.689c-11.681,2.543 -48.164,7.136 -59.456,6.773c6.384,-5.276 17.02,-7.814 25.28,-10.462Z" style="fill:#ecece6;fill-rule:nonzero;"></path><path d="M1408.617,260.531c-10.189,3.747 -19.006,6.789 -29.394,9.915l-2.801,-1.124l-1.403,1.949l-3.289,0.074l5.249,-1.445l0.483,-2.217c7.488,-4.251 22.752,-9.91 31.254,-13.357l-0.1,6.206Z" style="fill:#a1a1a3;fill-rule:nonzero;"></path><path d="M1479.065,1061.152c14.876,-22.668 33.43,-59.75 47.123,-84.457c20.493,-37.019 42.988,-72.897 67.385,-107.467c18.911,-26.741 77.568,-101.119 105.449,-115.118c54.017,-27.119 181.063,-50.392 242.389,-61.006c-134.355,96.895 -230.309,250.802 -306.889,394.315c-78.751,147.575 -105.796,306.054 -75.482,470.171c10.609,57.449 15.38,93.936 34.433,152.478l-6.705,-1.529c-18.391,-59.372 -34.675,-117.057 -42.3,-179.061c-1.277,-10.362 -3.41,-56.771 -8.633,-60.37c-29.484,157.26 158.127,510.831 159.088,503.044c-26.1,-10.945 -97.636,-169.482 -111.513,-203.279c-16.515,-40.056 -30.366,-81.163 -41.464,-123.042c-3.909,-14.592 -14.061,-62.714 -18.717,-72.45c-7.793,21.355 29.583,138.453 38.879,167.464c34.68,108.26 81.021,198.687 143.151,293.459c-54.921,-49.798 -103.957,-151.716 -134.77,-219.511c-11.492,-25.28 -22.621,-63.849 -36.425,-86.296c5.428,46.12 65.924,185.729 91.283,231.838c13.362,24.303 38.359,58.899 50.954,83.149c-79.602,-72.182 -95.056,-148.39 -144.691,-229.894c12.012,47.869 49.173,125.385 73.359,168.972c12.285,22.138 32.006,45.557 42.478,69.471c-56.466,-55.152 -104.404,-150.387 -139.436,-220.646c9.973,40.455 31.895,79.98 48.316,117.939c7.787,18.008 41.033,66.597 42.61,81.436c-11.681,-2.853 -45,-55.925 -52.43,-67.017c-29.778,-44.47 -54.622,-116.741 -82.681,-159.025c26.22,90.794 60.88,140.76 100.841,220.005c-85.482,-48.989 -156.046,-223.93 -180.653,-319.38c-13.925,-54.033 -24.697,-117.698 -33.335,-173.276c-14.545,62.656 24.045,215.864 46.477,279.46c16.168,45.841 41.401,100.137 66.875,142.562c6.08,10.126 20.44,29.857 24.486,39.026c-17.74,8.928 -40.881,-34.276 -49.472,-47.974l-8.097,8.26c6.873,9.458 15.921,24.418 22.474,34.602c-59.356,-10.972 -107.273,-19.51 -167.091,-26.299c-46.015,-69.145 -44.827,-91.798 -75.808,-157.675l-2.133,2.359l1.167,15.433c-13.016,22.847 -163.003,23.824 -196.963,34.055c-13.667,-85.671 -15.738,-105.391 -4.503,-190.784c55.026,21.365 118.475,66.849 170.885,94.866c6.195,3.31 11.508,4.514 18.543,4.093l2.217,-2.901c-3.058,-18.344 -26.305,-55.877 -34.575,-75.283c-23.693,-55.599 -59.65,-122.259 -71.673,-181.567c69.697,-19.773 132.82,-19.904 202.633,-55.578c-43.392,-24.944 -134.071,-53.324 -173.333,-83.012c37.597,-73.89 105.87,-120.73 150.67,-181.221c-76.144,16.436 -129.909,54.501 -197.441,72.86c4.109,-78.598 46.309,-286.601 118.791,-330.01c47.491,-28.438 176.859,-77.137 231.938,-92.618c-53.839,71.93 -98.019,161.91 -134.386,243.855c-6.784,15.286 -22.295,47.402 -23.246,63.16c9.763,-5.691 19.085,-36.682 24.902,-50.292c33.109,-77.411 102.68,-213.121 165.562,-264.963c23.42,-19.311 160.927,-54.816 195.235,-63.518c-88.55,91.892 -136.131,178.026 -175.745,298.183Z" style="fill:#f6f5e8;fill-rule:nonzero;"></path><path d="M1430.949,1953.404c-9.5,-13.478 -17.745,-32.127 -23.183,-47.643c15.559,14.997 20.729,21.444 31.281,39.383l-8.097,8.26Z" style="fill:#383739;fill-rule:nonzero;"></path><path d="M1303.825,2045.622c19.395,2.333 40.093,7.052 59.44,10.467c187.978,33.193 368.063,94.078 546.473,159.708c-40.87,21.155 -84.51,37.654 -127.345,54.385c-152.53,56.608 -314.645,93.59 -474.6,121.796c-2.323,-34.969 -1.498,-79.618 -2.023,-115.349c-1.655,-76.99 -2.302,-154.002 -1.944,-231.008Z" style="fill:#fff;fill-rule:nonzero;"></path><path d="M2269.162,2300.507c-27.986,99.364 -32.163,207.83 -75.419,305.082c-11.387,25.595 -17.188,53.954 -32.589,78.656l-0.883,-4.125c11.844,-35.758 26.804,-70.927 38.175,-105.675c19.121,-59.477 33.482,-120.383 42.951,-182.135c13.72,-87.852 21.071,-167.895 26.546,-256.945c10.693,-173.911 16.641,-379.744 150.355,-509.854c53.954,-52.504 107.231,-72.576 181.51,-70.706l9.122,10.042c6.316,7.603 54.742,20.635 78.519,45.247c49.535,51.274 81.241,181.604 11.702,228.843l-4.046,-3.368l-0.399,-6.983c27.855,-26.888 50.255,-94.084 27.639,-129.037l-2.407,-0.799c-17.477,-89.775 -85.293,-125.632 -172.445,-121.497c-5.932,0.284 -10.341,2.028 -13.757,6.679c10.126,2.753 26.016,0.116 36.987,0.389c28.99,0.709 70.758,7.53 92.35,27.665c7.567,7.062 21.334,18.002 22.138,28.123c-7.835,-2.99 -9.7,-5.502 -15.564,-3.279l2.585,5.344l-1.335,2.37c-14.723,-19.747 -43.371,-32.615 -66.103,-42.736c0.662,6.027 1.534,3.657 -0.809,8.087l-25.327,-2.743c-88.382,6.873 -129.158,50.87 -167.411,125.842c-16.042,31.444 -37.392,61.605 -53.14,93.789c-30.193,78.677 -32.095,159.54 -39.714,242.416c-2.013,21.838 -7.067,51.973 -7.015,72.335l2.795,3.289c7.556,-6.868 5.008,-2.575 6.253,-14.198l8.323,-11.376c-4.74,58.468 -3.662,119.553 -6.673,177.364c-5.985,114.908 -26.399,219.689 -68.473,326.915c-18.412,46.913 -33.235,102.065 -64.579,143.293l-2.964,0.257c0.793,-7.635 22.537,-55.883 27.618,-65.798c14.419,-28.154 58.93,-153.907 52.651,-176.223l-3.237,-0.725c-7.719,12.086 -16.647,50.565 -21.938,66.513c-23.141,69.776 -49.078,144.47 -95.56,201.945c10.73,-29.247 27.303,-50.801 39.483,-79.707c43.482,-103.19 72.934,-205.88 88.897,-316.889c-14.287,35.095 -23.02,78.483 -32.473,115.249c-18.233,70.937 -59.083,199.501 -103.862,253.466c70.758,-146.33 121.912,-300.868 131.523,-464.401Z" style="fill:#4f4f46;fill-rule:nonzero;"></path><path d="M2578.443,1600.789l0.215,6.363c-88.382,6.873 -129.158,50.87 -167.411,125.842c-16.042,31.444 -37.392,61.605 -53.14,93.789l-5.213,-0.026l-1.671,-3.158l4.566,-8.717c9.963,-14.03 19.736,-36.294 27.366,-50.985c34.255,-65.924 77.626,-148.831 160.591,-157.286c11.539,-1.177 24.218,-0.599 34.696,-5.822Z" style="fill:#4f4f46;fill-rule:nonzero;"></path><path d="M2355.79,1814.882c2.543,-9.569 6.127,-24.649 9.49,-33.43c26.935,-70.301 121.097,-211.261 213.163,-180.664c-10.478,5.223 -23.157,4.645 -34.696,5.822c-53.882,5.491 -91.064,42.386 -119.894,85.636c-3.359,5.039 -6.604,10.164 -9.75,15.336c-11.427,18.788 -21.531,38.193 -30.947,56.314c-7.63,14.692 -17.403,36.956 -27.366,50.985Z" style="fill:#4f4f46;fill-rule:nonzero;"></path><path d="M2345.596,1799.161c0.73,7.236 -18.47,86.496 -21.502,100.773c-25.495,120.02 -15.727,253.261 -49.236,370.954c-2.78,-10.257 8.686,-92.549 11.508,-109.285c21.066,-124.939 7.971,-243.95 59.23,-362.441Z" style="fill:#04041c;fill-rule:nonzero;"></path><path d="M2408.756,1665.804l1.571,3.021c-6.526,11.923 -16.442,24.896 -25.627,34.891c-38.154,41.517 -48.689,93.29 -72.23,141.191l-1.245,2.47l-2.238,-1.508c9.873,-47.974 57.338,-150.775 99.769,-180.065Z" style="fill:#04041c;fill-rule:nonzero;"></path><path d="M688.054,1405.386c26.378,12.08 106.653,59.876 134.754,76.213c-11.523,32.799 -25.212,63.102 -35.416,97.068c-11.959,39.804 -19.789,82.749 -33.382,121.528c-10.74,-60.512 -2.722,-106.374 1.76,-166.387c0.552,-7.388 0.105,-6.884 -3.268,-10.993c-0.494,0.757 -0.988,1.508 -1.482,2.265c-31.38,134.87 -1.818,275.015 34.213,406.081c9.968,36.246 31.58,73.291 41.249,110.215l-1.424,1.897c-34.386,-58.137 -61.074,-128.181 -79.754,-193.616c-3.61,-12.653 -4.976,-42.089 -14.261,-49.409c-3.137,29.068 22.768,112.701 32.016,144.228c12.832,43.724 37.255,91.582 54.963,134.581c-30.771,-36.125 -62.193,-120.54 -79.176,-166.581c-7.777,-22.605 -14.613,-44.018 -19.605,-66.87c-2.464,-11.261 -15.396,-88.708 -18.092,-92.292c-1.361,34.901 16.368,144.197 27.534,177.485c1.618,26.861 50.502,118.864 60.995,153.271c-68.042,-104.341 -90.868,-203.017 -107.062,-324.498c-1.939,-14.524 -2.086,-52.698 -11.681,-60.612c-6.978,45.163 25.154,170.769 33.409,218.092c-29.736,-75.661 -44.118,-125.443 -46.03,-208.618c-1.067,-46.388 1.986,-81.593 -7.793,-127.429c-4.734,82.818 -6.106,165.846 9.705,247.597c4.687,24.266 8.975,48.589 12.658,73.023c-58.641,-137.613 -37.176,-357.433 15.17,-496.239Z" style="fill:#f6f5e8;fill-rule:nonzero;"></path><path d="M1945.495,2428.777c65.698,-28.638 143.03,-72.944 207.373,-107.604l0.305,2.018c-13.189,13.152 -22.595,20.272 -38.253,30.219c-141.217,89.696 -305.881,156.519 -469.887,188.545l-3.242,-4.945c99.028,-21.723 210.31,-67.185 303.705,-108.234Z" style="fill:#4f4f46;fill-rule:nonzero;"></path><path d="M1940.671,2423.864l4.824,4.913c-93.395,41.049 -204.677,86.512 -303.705,108.234l3.242,4.945c-9.774,2.154 -19.61,4.55 -29.526,5.77l-5.197,-4.734c-47.207,7.493 -89.785,14.613 -137.649,16.368c48.232,-14.245 108.161,-19.636 156.676,-31.528c91.703,-22.479 227.167,-63.88 311.335,-103.967Z" style="fill:#04041c;fill-rule:nonzero;"></path><path d="M1610.31,2542.991l31.48,-5.98l3.242,4.945c-9.774,2.154 -19.61,4.55 -29.526,5.77l-5.197,-4.734Z" style="fill:#4f4f46;fill-rule:nonzero;"></path><path d="M1797.447,2454.288c22.416,-7.099 102.018,-40.219 116.715,-41.905l1.203,1.329c-39.704,16.804 -67.569,35.206 -113.352,44.422l-4.566,-3.846Z" style="fill:#04041c;fill-rule:nonzero;"></path><path d="M1197.198,2577.645c-7.745,0.084 -21.786,0.667 -27.965,-2.864c22.416,-3.431 67.994,-3.415 93.379,-5.092l-2.969,2.964c-3.694,3.762 -5.612,6.017 -8.891,10.047l-7.793,-0.688c-10.141,-6.61 -33.135,-4.713 -45.762,-4.367Z" style="fill:#4f4f46;fill-rule:nonzero;"></path><path d="M1197.198,2577.645c12.627,-0.347 35.621,-2.244 45.762,4.367c-22.794,0.767 -45.605,0.92 -68.404,0.452l22.642,-4.818Z" style="fill:#4f4f46;fill-rule:nonzero;"></path><path d="M1625.543,1313.131c3.789,3.899 140.377,305.098 156.245,338.501c39.136,82.366 81.325,163.712 124.003,244.302c23.777,44.906 53.581,90.39 70.984,137.907l-3.2,0.011c-14.025,-17.482 -27.355,-35.511 -39.961,-54.044c-59.487,-89.081 -117.887,-178.882 -175.183,-269.387c-42.573,-66.098 -114.235,-167.154 -141.843,-239.352c-12.816,-33.519 2.039,-121.802 8.954,-157.937Z" style="fill:#fff;fill-rule:nonzero;"></path><path d="M1147.569,945.772l4.493,0.504c-0.257,10.982 -36.341,53.597 -44.958,64.568c-63.57,80.931 -114.33,152.961 -161.768,244.407l-52.725,-39.31c-16.011,-11.187 -28.953,-22.364 -43.881,-34.99c41.133,-60.176 42.751,-105.229 112.879,-143.198c61.999,-33.566 122.096,-62.304 185.96,-91.982Z" style="fill:#f6f5e8;fill-rule:nonzero;"></path><path d="M767.183,1747.534c-2.675,-48.237 88.225,-116.589 123.835,-144.838c18.118,90.616 28.243,134.502 67.8,220.993l-6.426,4.966c-38.889,8.486 -100.999,-25.711 -134.591,-31.133l-1.314,-1.76c-13.242,33.813 82.276,215.496 79.513,227.808l-3.647,-0.736c-48.768,-45.358 -86.601,-191.32 -106.542,-253.272c-1.66,68.825 60.643,208.019 90.242,272.503c-60.859,-65.099 -98.897,-206.027 -108.87,-294.531Z" style="fill:#f6f5e8;fill-rule:nonzero;"></path><path d="M1209.557,1821.824c5.554,12.963 10.909,34.433 16.105,49.073c10.867,30.619 22.663,57.491 36.404,86.906c-35.269,-2.049 -71.005,-5.113 -106.206,-2.023c21.36,3.074 106.185,10.835 116.962,20.992l2.569,5.78l-2.606,4.33c-12.637,1.897 -69.277,-3.321 -85.755,-4.183c-40.298,-2.275 -80.695,-2.034 -120.961,0.725c-28.217,-48.547 -40.434,-71.972 -53.476,-127.545c33.96,-10.231 183.948,-11.208 196.963,-34.055Z" style="fill:#ecece6;fill-rule:nonzero;"></path><path d="M1634.076,1578.31c5.722,4.776 92.05,144.323 105.234,164.879c52.541,81.956 106.111,165.446 159.666,247.386c28.659,43.844 91.477,125.711 113.357,168.058c-12.364,-4.929 -24.828,-13.988 -35.064,-22.258c-133.866,-108.182 -323.032,-387.169 -343.193,-558.064Z" style="fill:#fff;fill-rule:nonzero;"></path><path d="M1129.272,2031.051c13.883,-0.515 29.042,0.095 43.025,0.347c0.636,37.807 -1.787,82.523 -2.417,121.197c-1.424,83.721 -2.291,167.459 -2.606,251.196c-18.228,0.158 -26.767,-0.541 -44.906,-2.864c-18.801,-4.109 -27.24,-9.464 -42.967,-19.148c15.354,-115.128 38.648,-235.564 49.871,-350.729Z" style="fill:#fff;fill-rule:nonzero;"></path><path d="M817.801,1797.521c33.593,5.423 95.702,39.62 134.591,31.133l6.426,-4.966c21.696,43.655 69.061,114.598 82.823,157.06l-2.055,3.967c-0.778,0.173 -9.054,2.055 -9.91,1.808c-18.155,-5.207 -36.556,-44.979 -49.204,-59.86c8.428,20.22 17.398,40.208 26.893,59.944c-2.685,5.202 -0.604,3.205 -6.726,5.449c-21.491,-7.582 -51.337,-73.848 -66.786,-95.36c8.507,26.016 42.147,89.417 43.124,96.984c-6.889,3.683 -3.599,2.16 -12.811,1.981c-17.204,-9.379 -58.731,-100.778 -70.27,-124.434c7.325,31.659 19.431,61.342 34.691,89.969c8.533,16.006 14.203,25.033 13.83,43.366l-3.19,1.666c-21.37,-18.491 -64.474,-118.749 -81.031,-147.502l-1.508,-2.575c17.776,60.607 47.843,110.189 67.185,166.324c-46.298,-43.392 -86.995,-163.25 -106.075,-224.955Z" style="fill:#ecece6;fill-rule:nonzero;"></path><path d="M867.514,1106.237l1.781,3.794c-7.85,19.489 -17.64,45.542 -27.161,63.544c-7.325,-1.892 -8.197,-2.217 -15.68,-2.554c-9.337,14.534 17.729,149.619 21.833,176.56c-46.466,10.278 -76.134,18.428 -120.908,32.846l-35.479,10.62c19.121,-54.059 39.693,-99.932 65.294,-151.054c30.934,-61.784 50.733,-94.866 110.32,-133.756Z" style="fill:#f6f5e8;fill-rule:nonzero;"></path><path d="M1049.765,2034.693c13.357,-1.235 32.621,-0.977 46.561,-1.146c-4.24,31.333 -48.731,321.24 -54.091,325.123l-8.339,-4.361c-22.374,-14.035 -38.348,-26.578 -57.743,-44.128c2.859,-13.415 7.125,-27.907 11.119,-41.059c23.551,-77.516 41.59,-156.251 62.493,-234.429Z" style="fill:#fff;fill-rule:nonzero;"></path><path d="M994.728,2044.545c7.73,-1.098 8.16,-1.697 15.617,-0.047c-0.531,9.868 -14.603,56.718 -18.528,70.779c-15.075,55.173 -30.545,110.231 -46.414,165.178l-16.778,-18.386c-18.123,-19.347 -31.995,-35.7 -45.426,-58.484c16.011,-46.713 35.7,-91.267 51.39,-139.357c19.615,-9.495 39.11,-14.613 60.139,-19.684Z" style="fill:#fff;fill-rule:nonzero;"></path><path d="M1574.153,742.861c-8.938,9.253 -289.954,103.237 -332.721,121.623c-129.631,54.637 -255.778,117.199 -377.727,187.326c-46.277,26.798 -92.187,53.97 -138.101,81.362c-24.697,14.734 -55.672,37.308 -80.127,49.257c11.98,-15.559 86.133,-60.691 105.948,-73.386c252.158,-164.085 526.963,-290.39 815.692,-374.91l7.036,8.728Z" style="fill:#4f4f46;fill-rule:nonzero;"></path><path d="M326.627,2296.524c22.012,8.045 62.314,30.45 85.009,42.116c36.315,18.775 73.239,36.357 110.714,52.704c162.987,72.587 348.779,104.377 525.602,118.602c-9.337,4.088 -11.066,4.009 -20.834,5.234c-227.335,-10.136 -525.381,-64.274 -700.49,-218.654Z" style="fill:#4f4f46;fill-rule:nonzero;"></path><path d="M1274.357,801.969c-1.802,-11.171 -2.575,-20.871 -3.494,-32.058c-0.788,9.343 -3.489,18.402 -9.343,25.795c-10.819,-18.218 0.83,-397.878 2.438,-447.24c1.876,-57.59 1.035,-222.522 9.579,-274.032c16.2,88.897 8.491,144.801 3.3,234.36c-2.365,43.829 -4.114,87.689 -5.255,131.565c0.331,16.915 -0.904,57.517 2.107,70.548l2.832,0.667c-0.063,19.095 0.179,39.11 -0.793,58.09l5.507,5.339c-8.66,67.537 2.88,147.008 -6.878,226.967Z" style="fill:#4f4f46;fill-rule:nonzero;"></path><path d="M1275.728,569.664c-4.55,-40.292 -10.53,-89.165 -4.146,-129.305c0.331,16.915 -0.904,57.517 2.107,70.548l2.832,0.667c-0.063,19.095 0.179,39.11 -0.793,58.09Z" style="fill:#656569;fill-rule:nonzero;"></path><path d="M336.847,1589.329c-36.893,-56.928 -56.345,-48.321 -87.704,-83.238c68.735,29.867 101.519,62.619 129.673,132.768c38.054,94.819 26.883,166.897 4.02,262.93l-5.575,-10.62l-0.741,-17.86c-9.421,26.215 -10.62,63.26 -23.22,84.357l-2.291,-8.681c4.326,-25.805 9.757,-50.076 14.534,-74.314c6.376,-32.348 11.589,-64.635 11.46,-100.423c-0.242,-67.395 -17.051,-128.422 -56.187,-184.2c-15.59,-22.222 -39.667,-36.593 -53.933,-60.107c34.996,21.728 43.566,30.077 67.206,62.246l2.759,-2.859Z" style="fill:#4f4f46;fill-rule:nonzero;"></path><path d="M351.009,1948.985c10.099,-60.244 26.22,-112.133 25.994,-174.736c-0.242,-67.395 -17.051,-128.422 -56.187,-184.2c-15.59,-22.222 -39.667,-36.593 -53.933,-60.107c34.996,21.728 43.566,30.077 67.206,62.246c29.478,50.25 42.336,84.904 47.906,143.366c2.191,33.13 -6.106,118.412 -4.146,131.228l0.247,4.918l-1.576,1.608c-9.421,26.215 -10.62,63.26 -23.22,84.357l-2.291,-8.681Z" style="fill:#4f4f46;fill-rule:nonzero;"></path><path d="M336.847,1589.329c29.011,50.991 44.958,79.639 51.206,140.266l-3.726,5.801l-2.333,0.158c-5.57,-58.463 -18.428,-93.117 -47.906,-143.366l2.759,-2.859Z" style="fill:#04041c;fill-rule:nonzero;"></path><path d="M388.054,1729.595c1.886,46.314 -0.252,91.84 -10.204,137.187c-1.96,-12.816 6.337,-98.098 4.146,-131.228l2.333,-0.158l3.726,-5.801Z" style="fill:#383739;fill-rule:nonzero;"></path><path d="M2094.205,2270.135l5.47,4.818c-28.937,17.272 -66.292,42.063 -94.845,56.802c-18.88,6.936 -35.92,18.076 -52.914,24.119c-61.342,22.758 -129.221,41.364 -192.024,60.67c-159.719,49.104 -308.86,83.601 -475.504,99.054c-10.43,-1.471 -10.514,-1.167 -19.826,-5.596c147.67,-13.541 305.134,-52.267 447.776,-92.628c64.768,-18.323 134.229,-37.245 196.937,-61.237c63.523,-24.439 125.312,-53.171 184.93,-86.002Z" style="fill:#4f4f46;fill-rule:nonzero;"></path><path d="M516.429,2465.596c206.154,83.396 405.103,126.641 626.605,146.756l0.531,3.289l-11.555,2.254c-49.194,-2.291 -96.911,-1.676 -146.235,-7.74c-123.452,-15.175 -245.258,-46.03 -362.315,-87.846c-39.473,-14.103 -72.041,-32.484 -108.576,-52.698l1.545,-4.015Z" style="fill:#4f4f46;fill-rule:nonzero;"></path><path d="M1037.086,2761.776c-37.229,-0.1 -96.585,-11.077 -133.22,-17.277c-109.054,-18.449 -207.987,-41.175 -310.352,-83.17c-23.572,-9.621 -46.824,-19.999 -69.723,-31.118c-17.261,-8.491 -33.482,-20.561 -50.754,-25.931c-18.344,-5.701 -16.21,-0.604 -24.597,-13.736c1.913,-1.051 62.372,22.043 68.946,24.702c176.759,71.457 355.605,113.967 544.171,141.78c-8.528,5.118 -14.492,4.34 -24.471,4.75Z" style="fill:#4f4f46;fill-rule:nonzero;"></path><path d="M2569.694,1831.329c27.324,16.368 53.466,43.576 85.35,23.041c-17.703,-5.276 -35.994,7.483 -58.799,-13.058c-6.19,-5.58 -9.668,-6.179 -11.019,-15.795c7.356,0.83 23.64,14.871 33.698,19.179c11.213,4.771 23.914,4.587 34.98,-0.51c52.063,-23.383 62.661,-92.502 41.159,-140.855c-14.208,-31.501 -40.25,-56.14 -72.487,-68.583c-48.658,-18.559 -109.616,-2.522 -149.189,30.398c-9.274,7.708 -26.347,28.879 -34.77,32.521c3.205,-19.537 17.167,-28.948 31.69,-40.298c86.207,-67.353 174.447,-49.293 235.984,34.376c-4.456,-11.996 -10.294,-26.615 -12.816,-38.937c10.173,13.583 19.558,38.274 26.462,45.941l2.407,0.799c22.616,34.954 0.215,102.149 -27.639,129.037l0.399,6.983l4.046,3.368c-13.037,15.774 -64.243,32.463 -85.098,26.01c-25.553,-7.903 -30.351,-12.826 -44.359,-33.619Z" style="fill:#4f4f46;fill-rule:nonzero;"></path><path d="M2722.345,1699.549c22.616,34.954 0.215,102.149 -27.639,129.037c22.521,-54.128 20.556,-67.474 19.915,-125.753c4.834,16.736 5.523,29.888 10.919,46.514l1.403,-1.266c1.119,-19.92 -1.072,-28.927 -4.598,-48.531Z" style="fill:#04041c;fill-rule:nonzero;"></path><path d="M255.023,2347.31c0.525,-82.902 42.536,-223.305 67.054,-303.915c7.246,-23.814 27.744,-75.051 28.932,-94.409l2.291,8.681c-5.092,27.939 -5.559,45.563 -13.452,73.743c-66.912,179.728 -113.757,413.92 -30.802,594.295c19.573,42.546 34.885,61.495 56.497,99.012l-1.965,0.662c-3.505,-3.4 -7.204,-6.831 -10.509,-10.404c-14.871,-23.383 -44.433,-60.743 -55.504,-83.527c-39.241,-80.747 -45.473,-196.454 -42.541,-284.137Z" style="fill:#4f4f46;fill-rule:nonzero;"></path><path d="M856.469,2282.279c17.655,15.012 50.749,37.534 71.305,53.77c-5.281,16.2 -10.966,50.88 -23.299,60.938l-8.849,-1.193l-79.486,-12.79c8.702,-31.223 26.262,-71.709 40.329,-100.725Z" style="fill:#fff;fill-rule:nonzero;"></path><path d="M2105.681,2589.1c-33.456,28.37 -160.46,88.451 -203.122,103.379c-23.839,8.343 -48.842,16.43 -74.63,24.051c-112.135,33.138 -239.107,57.458 -349.7,55.677c-10.893,-0.405 -23.609,0.583 -32.458,-4.945c299.596,-19.258 388.851,-61.479 659.909,-178.162Z" style="fill:#4f4f46;fill-rule:nonzero;"></path><path d="M536.491,2758.009c60.89,22.605 125.033,34.712 188.572,47.491c94.924,20.015 190.637,36.104 286.89,48.227c35.652,4.708 85.235,6.274 117.025,12.049c-72.287,7.561 -143.298,-5.98 -214.75,-15.695c-131.444,-17.876 -257.717,-36.519 -380.785,-88.104l3.048,-3.967Z" style="fill:#4f4f46;fill-rule:nonzero;"></path><path d="M1312.243,511.868c15.317,13.567 59.718,157.333 76.885,184.473c2.985,4.724 18.354,43.808 19.847,49.924l-3.531,5.396l-29.62,8.187c-23.036,-66.45 -57.774,-179.071 -63.581,-247.98Z" style="fill:#fff;fill-rule:nonzero;"></path><path d="M1692.481,1415.675c26.63,49.887 55.142,111.996 80.301,163.292l163.234,329.742c23.231,45.993 98.755,171.011 110.515,211.944c-9.232,-11.208 -46.787,-84.095 -56.534,-101.713c-86.16,-155.725 -168.673,-313.127 -242.374,-475.205c-11.965,-26.315 -50.213,-104.551 -55.142,-128.06Z" style="fill:#f6f5e8;fill-rule:nonzero;"></path><path d="M1567.117,734.133c148.064,-41.122 269.514,-72.603 423.983,-96.643l2.612,5.192c-75.214,15.638 -150.239,32.174 -225.065,49.593c-29.715,7.146 -178.115,51.506 -194.494,50.586l-7.036,-8.728Z" style="fill:#4f4f46;fill-rule:nonzero;"></path><path d="M548.713,2454.761c25.022,6.022 54.243,16.305 79.281,25.49c98.86,36.257 200.768,61.936 304.183,81.436c14.928,2.816 36.404,7.293 49.934,12.291c-74.957,-1.051 -378.788,-70.711 -433.399,-119.216Z" style="fill:#4f4f46;fill-rule:nonzero;"></path><path d="M1232.015,679.275c5.743,11.466 3.084,114.718 3.247,135.826c-15.853,11.077 -21.008,12.695 -38.658,18.932c-2.801,-16.205 28.653,-134.717 35.411,-154.758Z" style="fill:#fff;fill-rule:nonzero;"></path><path d="M1681.683,1620.767c12.658,11.833 48.5,73.176 59.976,91.304c86.023,135.905 178.656,267.454 267.853,401.236c-27.497,-18.806 -310.809,-451.659 -327.829,-492.54Z" style="fill:#c4c4c6;fill-rule:nonzero;"></path><path d="M1208.68,2141.466c7.819,20.409 -0.053,79.922 5.423,89.885l2.018,-0.967c-0.583,34.764 -2.78,72.356 -3.841,107.541l-5.728,0.116c-0.909,15.906 -3.184,31.501 -5.207,47.297c-5.454,-28.149 -5.528,-228.26 7.335,-243.871Z" style="fill:#4f4f46;fill-rule:nonzero;"></path><path d="M1208.68,2141.466c7.819,20.409 -0.053,79.922 5.423,89.885l2.018,-0.967c-0.583,34.764 -2.78,72.356 -3.841,107.541l-5.728,0.116c-0.951,-15.927 1.697,-45.752 2.023,-62.892c0.841,-44.911 2.259,-88.729 0.105,-133.682Z" style="fill:#383739;fill-rule:nonzero;"></path><path d="M1061.556,2757.026c145.678,12.989 238.354,14.492 384.216,10.236c8.849,5.528 21.565,4.54 32.458,4.945c-9.879,1.923 -53.655,3.447 -66.134,3.668c-117.409,2.112 -258.447,0.788 -375.01,-14.098c9.978,-0.41 15.942,0.368 24.471,-4.75Z" style="fill:#4f4f46;fill-rule:nonzero;"></path><path d="M244.74,2376.32c9.069,52.793 2.969,111.665 13.468,165.546c8.239,42.289 28.133,81.252 36.751,121.859c-55.347,-68.326 -59.782,-203.989 -50.218,-287.405Z" style="fill:#4f4f46;fill-rule:nonzero;"></path><path d="M638.724,2635.477c10.835,0.751 24.082,4.067 34.754,6.847c66.066,17.219 133.036,29.983 199.38,45.768c7.703,1.834 11.208,3.983 16.51,9.527c-59.335,-3.016 -202.26,-33.188 -250.644,-62.141Z" style="fill:#4f4f46;fill-rule:nonzero;"></path><path d="M1226.572,2127.3c7.472,60.354 -1.445,201.199 -13.1,260.103c-1.865,-19.573 -1.844,-29.731 -1.193,-49.477c1.061,-35.185 3.258,-72.776 3.841,-107.541c2.17,-34.113 3.4,-69.723 10.451,-103.085Z" style="fill:#4f4f46;fill-rule:nonzero;"></path><path d="M1312.022,664.126c7.693,8.286 34.039,100.189 29.163,111.298l-28.858,9.259c-1.713,-40.166 -1.813,-80.385 -0.305,-120.556Z" style="fill:#fff;fill-rule:nonzero;"></path><path d="M1110.14,2051.287c3.142,17.282 -39.762,296.822 -47.706,320.515c-5.281,-12.637 38.569,-293.669 47.706,-320.515Z" style="fill:#f6f5e8;fill-rule:nonzero;"></path><path d="M2599.808,1554.806c32.536,3.389 54.191,10.945 81.593,29.505c51.789,35.085 91.772,128.296 60.806,187.442c2.338,-14.776 3.888,-27.424 3.494,-42.1c-2.013,-74.978 -50.565,-153.161 -129.19,-164.989c-2.927,-0.441 -4.839,-0.105 -7.582,0.184l-9.122,-10.042Z" style="fill:#4f4f46;fill-rule:nonzero;"></path><path d="M1586.769,1708.54l6.705,1.529c25.159,87.831 78.903,175.088 128.086,252.005c6.647,10.394 32.61,39.126 33.214,47.533c-17.204,-9.6 -80.08,-107.157 -91.183,-127.745c-27.235,-50.481 -60.05,-118.381 -76.822,-173.323Z" style="fill:#a1a1a3;fill-rule:nonzero;"></path><path d="M1298.013,1976.535c27.193,2.055 169.576,26.767 180.243,43.466c-55.499,-10.446 -114.881,-18.759 -170.259,-30.135c-6.069,-1.245 -8.04,-8.334 -9.984,-13.331Z" style="fill:#fff;fill-rule:nonzero;"></path><path d="M1307.303,146.7c26.562,25.106 17.776,103.379 9.39,136.651l-4.818,4.356c-7.088,-13.226 -4.876,-119.773 -4.571,-141.007Z" style="fill:#fff;fill-rule:nonzero;"></path><path d="M344.845,2035.717c9.921,-42.273 26.651,-103.174 32.416,-144.549l5.575,10.62c-3.936,25.106 -38.006,143.288 -33.214,155.084c10.131,24.923 -3.027,66.933 -5.239,94.357c-3.762,-24.077 -5.176,-59.697 -4.545,-84.483c0.21,-8.208 4.393,-22.695 5.008,-31.028Z" style="fill:#4f4f46;fill-rule:nonzero;"></path><path d="M961.498,2360.42c13.746,8.16 62.698,36.194 72.114,44.58l-3.174,1.955c-26.872,-0.652 -53.676,-2.848 -80.295,-6.574c3.494,-16.1 6.116,-24.539 11.355,-39.961Z" style="fill:#fff;fill-rule:nonzero;"></path><path d="M1023.655,2067.093c2.837,22.584 -49.73,202.06 -63.87,233.089c-5.491,-15.711 53.387,-207.257 63.87,-233.089Z" style="fill:#f6f5e8;fill-rule:nonzero;"></path><path d="M1268.64,15.792c14.991,-0.578 20.356,-2.102 30.534,10.283c4.072,18.454 -4.74,22.442 -19.805,29.988c-8.933,1.513 -9.148,1.466 -18.212,0.799c-8.938,-5.99 -5.98,-2.091 -9.616,-11.77c1.508,-15.695 5.749,-19.384 17.098,-29.3Z" style="fill:#4f4f46;fill-rule:nonzero;"></path><path d="M2072.026,2311.925c-37.865,27.24 -73.864,38.616 -113.021,70.443l-4.367,-5.444l0.925,-1.771l7.745,-11.828l-1.592,-3.783l-9.8,-3.668c16.993,-6.043 34.034,-17.183 52.914,-24.119l6.626,8.712c23.047,-12.543 35.826,-19.836 60.57,-28.543Z" style="fill:#383739;fill-rule:nonzero;"></path><path d="M2072.026,2311.925c-37.865,27.24 -73.864,38.616 -113.021,70.443l-4.367,-5.444l0.925,-1.771c3.846,-1.55 46.729,-29.363 55.893,-34.686c23.047,-12.543 35.826,-19.836 60.57,-28.543Z" style="fill:#4f4f46;fill-rule:nonzero;"></path><path d="M1047.952,2509.945c78.047,3.899 138.811,4.808 216.61,0.058c9.311,4.43 9.395,4.125 19.826,5.596c-65.893,7.046 -192.45,4.619 -257.27,-0.42c9.768,-1.224 11.497,-1.146 20.834,-5.234Z" style="fill:#4f4f46;fill-rule:nonzero;"></path><path d="M2382.089,1794.163c-0.567,12.023 -19.542,69.707 -24.392,89.149c-8.497,34.092 -12.343,65.199 -19.458,98.603c-11.76,-39.804 23.404,-152.047 43.85,-187.752Z" style="fill:#4f4f46;fill-rule:nonzero;"></path><path d="M1231.222,586.447c0.935,33.913 -41.059,213.168 -54.637,242.232c-3.736,-10.588 17.934,-81.993 22.442,-99.165c11.702,-44.564 17.95,-100.478 32.195,-143.067Z" style="fill:#f6f5e8;fill-rule:nonzero;"></path><path d="M2126.61,2501.043l1.387,0.636l0.226,2.196c-67.816,42.61 -106.358,64.253 -179.592,97.073l-1.944,-1.834c29.336,-17.855 56.944,-29.872 86.69,-45.526c30.887,-16.252 62.845,-35.101 93.232,-52.546Z" style="fill:#4f4f46;fill-rule:nonzero;"></path><path d="M888.17,2080.76l1.456,1.571c2.533,12.753 -21.917,62.036 -29.089,74.846c-12.869,-31.155 2.922,-57.233 27.634,-76.418Z" style="fill:#fff;fill-rule:nonzero;"></path><path d="M1337.859,2619.729c39.93,-1.188 102.007,-10.556 135.579,-9.994c-46.214,15.154 -129.678,17.934 -178.788,17.729l-2.228,-2.664c5.323,-3.137 35.011,-3.72 45.436,-5.071Z" style="fill:#4f4f46;fill-rule:nonzero;"></path><path d="M1337.638,530.196c16.894,30.829 66.187,153.844 75.892,187.673c-17.156,-21.423 -68.047,-157.023 -75.892,-187.673Z" style="fill:#f6f5e8;fill-rule:nonzero;"></path><path d="M2040.545,2724.768l2.044,0.962c-12.159,17.214 -126.189,62.677 -150.718,72.056l-1.513,-3.515c4.482,-6.784 43.461,-18.875 54.248,-23.861c32.174,-14.886 64.022,-30.219 95.938,-45.641Z" style="fill:#4f4f46;fill-rule:nonzero;"></path><path d="M1587.315,2413.076c20.393,-2.953 133.041,-29.205 139.063,-27.014l2.759,-0.856c-24.071,15.296 -111.156,29.631 -140.571,33.372l-1.251,-5.502Z" style="fill:#4f4f46;fill-rule:nonzero;"></path><path d="M1284.656,394.113c0.457,54.269 1.119,126.983 -3.421,180.889l-5.507,-5.339c0.972,-18.98 0.73,-38.994 0.793,-58.09l4.209,-94.567c4.204,-5.58 3.363,-14.702 3.925,-22.894Z" style="fill:#4f4f46;fill-rule:nonzero;"></path><path d="M1240.628,2234.788c13.562,19.92 4.966,86.034 1.382,109.931c-1.907,0.447 -0.631,0.331 -3.757,-0.883c-1.702,-38.353 -3.573,-70.753 2.375,-109.049Z" style="fill:#4f4f46;fill-rule:nonzero;"></path><path d="M2320.426,2130.626c3.536,-40.261 3.153,-90.516 13.441,-127.976l1.624,0.342c1.881,26.252 -4.409,88.545 -6.742,116.258l-8.323,11.376Z" style="fill:#4f4f46;fill-rule:nonzero;"></path><path d="M2141.428,2413.428c-31.916,28.737 -84.935,55.158 -124.886,73.07l-4.729,-4.593c43.434,-20.766 91.877,-51.353 129.615,-68.478Z" style="fill:#4f4f46;fill-rule:nonzero;"></path><path d="M2574.633,1854.061c2.412,0.878 2.68,0.846 4.813,2.191c39.367,24.807 61.158,18.717 101.235,0.631l3.573,-1.634l1.618,2.517c-41.306,25.69 -75.724,36.64 -111.24,-3.704Z" style="fill:#4f4f46;fill-rule:nonzero;"></path><path d="M1187.982,2616.529c45.326,0.483 104.84,1.54 149.877,3.2c-10.425,1.35 -40.114,1.934 -45.436,5.071l2.228,2.664c-8.297,0.814 -99.039,-5.449 -109.979,-7.341l3.31,-3.594Z" style="fill:#383739;fill-rule:nonzero;"></path><path d="M837.558,2271.99c2.837,13.21 -34.118,90.742 -42.504,106.011c-0.673,-21.486 30.093,-87.037 42.504,-106.011Z" style="fill:#f6f5e8;fill-rule:nonzero;"></path><path d="M1317.087,608.895c6.174,11.802 35.295,120.094 36.509,135.469c-12.038,-16.137 -33.104,-110.725 -36.509,-135.469Z" style="fill:#f6f5e8;fill-rule:nonzero;"></path><path d="M435.082,2679.831c23.162,5.349 71.552,31.296 91.976,44.985c-33.692,-7.829 -64.463,-24.418 -91.976,-44.985Z" style="fill:#4f4f46;fill-rule:nonzero;"></path><path d="M1267.983,2857.263c18.764,-0.257 25.606,-0.657 44.118,2.885c-30.146,3.699 -51.285,3.704 -81.488,3.92c-14.529,0.11 -30.23,-1.114 -44.827,-1.923l2.443,-0.3c27.56,-3.61 52.068,-3.846 79.754,-4.582Z" style="fill:#4f4f46;fill-rule:nonzero;"></path><path d="M1400.441,318.762l-0.883,3.363c-13.704,11.802 -26.783,25.38 -44.591,26.809l-3.505,-5.16l2.475,-5.607c14.256,-11.339 28.711,-16.226 46.503,-19.405Z" style="fill:#fff;fill-rule:nonzero;"></path><path d="M311.867,2680.425l-4.656,-15.333l1.639,-1.487c9.138,7.614 37.113,52.635 39.888,63.476c-18.853,-10.761 -26.898,-28.102 -36.872,-46.656Z" style="fill:#4f4f46;fill-rule:nonzero;"></path><path d="M1866.371,2798.606l4.472,0.294l-0.83,3.221c-17.225,9.301 -54.879,16.184 -74.678,19.663l-6.353,-1.172c9.894,-6.468 64.301,-19.022 77.39,-22.006Z" style="fill:#4f4f46;fill-rule:nonzero;"></path><path d="M1772.719,2546.659l2.596,0.278c-19.847,12.911 -81.446,26.567 -105.255,31.449l-1.913,0.231l1.261,-2.717c30.046,-11.402 71.426,-20.735 103.311,-29.242Z" style="fill:#656569;fill-rule:nonzero;"></path><path d="M2012.733,2286.498l0.357,2.207c-26.194,14.955 -64.022,34.749 -91.551,45.683l-1.413,-1.487l0.625,-2.748c23.509,-13.347 66.823,-33.803 91.982,-43.655Z" style="fill:#4f4f50;fill-rule:nonzero;"></path><path d="M2173.954,2220.842l1.876,4.692l-76.155,49.419l-5.47,-4.818c26.772,-16.132 53.355,-32.563 79.749,-49.293Z" style="fill:#4f4f46;fill-rule:nonzero;"></path><path d="M319.465,2366.888c22.984,3.394 75.109,35.579 95.134,48.284c-24.092,-4.829 -71.977,-34.712 -95.134,-48.284Z" style="fill:#4f4f50;fill-rule:nonzero;"></path><path d="M533.443,2761.976c-30.398,-13.762 -55.851,-23.478 -82.024,-44.27c26.662,10.74 58.788,27.476 85.072,40.303l-3.048,3.967Z" style="fill:#4f4f46;fill-rule:nonzero;"></path><path d="M683.64,2352.79c12.532,3.232 20.892,3.316 26.168,15.659l-3.836,7.099c-11.565,-3.946 -20.619,-5.044 -26.273,-14.476l3.941,-8.281Z" style="fill:#fff;fill-rule:nonzero;"></path><path d="M900.224,2103.859c2.79,14.713 -16.326,55.504 -23.189,69.828c-3.389,-13.189 17.088,-56.177 23.189,-69.828Z" style="fill:#c4c4c6;fill-rule:nonzero;"></path><path d="M705.105,1969.173c9.963,7.661 30.766,59.324 33.246,72.613c-16.447,-24.676 -24.092,-44.722 -33.246,-72.613Z" style="fill:#a1a1a3;fill-rule:nonzero;"></path><path d="M1991.1,637.49c10.809,-2.669 60.491,-11.875 68.094,-7.787c-13.152,3.846 -51.285,11.439 -65.483,12.979l-2.612,-5.192Z" style="fill:#4f4f46;fill-rule:nonzero;"></path><path d="M2148.144,2428.341c10.241,-10.136 35.784,-27.334 49.356,-31.806c-4.955,11.534 -33.162,24.513 -46.855,37.087l-2.501,-5.281Z" style="fill:#4f4f46;fill-rule:nonzero;"></path><path d="M2146.2,2719.535c-2.527,13.93 -21.738,42.483 -33.135,52.535c0.962,-14.828 22.926,-41.401 33.135,-52.535Z" style="fill:#4f4f46;fill-rule:nonzero;"></path><path d="M1280.731,417.007c-2.769,-14.482 -1.566,-43.056 2.801,-57.375l2.328,2.086l-3.804,2.081l3.93,2.112c-0.079,9.285 -0.788,18.896 -1.329,28.201c-0.562,8.192 0.278,17.314 -3.925,22.894Z" style="fill:#7e7c84;fill-rule:nonzero;"></path><path d="M939.723,2350.62c4.183,11.329 -5.26,37.618 -8.817,50.029c-8.176,-12.17 3.662,-37.465 8.817,-50.029Z" style="fill:#ecece6;fill-rule:nonzero;"></path><path d="M1143.034,2612.352c15.748,0.242 29.357,2.207 44.948,4.177l-3.31,3.594c-14.671,-1.314 -36.43,-1.203 -52.662,-2.228l11.555,-2.254l-0.531,-3.289Z" style="fill:#4f4f46;fill-rule:nonzero;"></path><path d="M514.884,2469.61c-9.873,-2.748 -29,-10.646 -36.262,-18.086c8.024,-2.328 29.857,9.91 37.807,14.072l-1.545,4.015Z" style="fill:#383739;fill-rule:nonzero;"></path><path d="M363.299,2741.841c13.998,4.593 31.979,31.638 40.739,43.871c-13.131,-7.157 -30.419,-31.081 -40.739,-43.871Z" style="fill:#7e7c84;fill-rule:nonzero;"></path><path d="M1267.452,2240.626c7.441,8.439 3.978,36.178 3.316,48.263c-7.567,-9.984 -4.046,-34.559 -3.316,-48.263Z" style="fill:#a1a1a3;fill-rule:nonzero;"></path><path d="M2173.954,2220.842c10.021,-8.696 19.957,-13.373 31.57,-19.757l0.736,1.161c-11.986,10.325 -17.335,14.45 -30.429,23.288l-1.876,-4.692Z" style="fill:#656569;fill-rule:nonzero;"></path><path d="M2109.88,2685.853l0.541,1.876c-11.408,9.09 -20.651,14.109 -33.146,21.323l-2.722,-2.422c8.749,-8.665 23.893,-15.028 35.327,-20.777Z" style="fill:#656569;fill-rule:nonzero;"></path><path d="M2014.624,2806.178l1.934,1.724c-7.057,7.719 -19.694,13.725 -29.158,19.011l-1.671,-2.675c7.74,-8.36 18.543,-12.721 28.895,-18.06Z" style="fill:#656569;fill-rule:nonzero;"></path></g></g></svg>