<?xml version="1.0"?><svg width="100%" height="100%" viewBox="0 0 1000 1000" version="1.1" xmlns="http://www.w3.org/2000/svg" xmlns:xlink="http://www.w3.org/1999/xlink" xml:space="preserve" xmlns:serif="http://www.serif.com/" style="fill-rule:evenodd;clip-rule:evenodd;stroke-linejoin:round;stroke-miterlimit:2;"><g><g><g><path d="M976.257,406.243c-0.106,30.427 -5.277,62.102 -13.614,94.026c-2.934,11.236 -35.564,105.249 -35.564,105.249c-36.936,93.776 -81.365,183.313 -81.365,247.16c0,51.128 38.73,0 38.73,55.368c0,23.943 -6.121,37.411 -13.403,41.152c-1.372,0.748 -2.744,0.998 -4.116,0.998c-4.01,0 -7.915,-2.743 -11.397,-7.981c-12.242,-18.705 -19.945,-45.89 -19.945,-84.548c0,-25.439 5.382,-53.622 13.825,-82.802c9.155,-31.644 39.363,-107.493 39.363,-107.493c12.558,-30.427 25.75,-61.354 37.78,-91.532c14.141,-36.164 35.728,-99.389 35.728,-130.316c0,-22.945 -3.266,-48.852 -15.197,-53.07c-13.94,-4.928 -37.018,-51.217 -13.883,-62.777c3.799,-1.995 7.387,-2.743 10.764,-2.743c19.101,0 32.293,28.682 32.293,78.812l0,0.499Z" style="fill:#04041c;fill-rule:nonzero;"></path><path d="M976.257,593.757c-0.106,-30.427 -5.277,-62.102 -13.614,-94.026c-2.934,-11.236 -35.564,-105.249 -35.564,-105.249c-36.936,-93.776 -81.365,-183.313 -81.365,-247.16c0,-51.128 38.73,0 38.73,-55.368c0,-23.943 -6.121,-37.411 -13.403,-41.152c-1.372,-0.748 -2.744,-0.998 -4.116,-0.998c-4.01,0 -7.915,2.743 -11.397,7.981c-12.242,18.705 -19.945,45.89 -19.945,84.548c0,25.439 5.382,53.622 13.825,82.802c9.155,31.644 39.363,107.493 39.363,107.493c12.558,30.427 25.75,61.354 37.78,91.532c14.141,36.164 35.728,99.389 35.728,130.316c0,22.945 -3.266,48.852 -15.197,53.07c-13.94,4.928 -37.018,51.217 -13.883,62.777c3.799,1.995 7.387,2.743 10.764,2.743c19.101,0 32.293,-28.682 32.293,-78.812l0,-0.499Z" style="fill:#04041c;fill-rule:nonzero;"></path></g></g><g><g><path d="M23.743,593.757c0.106,-30.427 5.277,-62.102 13.614,-94.026c2.934,-11.236 35.564,-105.249 35.564,-105.249c36.936,-93.776 81.365,-183.313 81.365,-247.16c0,-51.128 -38.73,0 -38.73,-55.368c0,-23.943 6.121,-37.411 13.403,-41.152c1.372,-0.748 2.744,-0.998 4.116,-0.998c4.01,0 7.915,2.743 11.397,7.981c12.242,18.705 19.945,45.89 19.945,84.548c0,25.439 -5.382,53.622 -13.825,82.802c-9.155,31.644 -39.363,107.493 -39.363,107.493c-12.558,30.427 -25.75,61.354 -37.78,91.532c-14.141,36.164 -35.728,99.389 -35.728,130.316c0,22.945 3.266,48.852 15.197,53.07c13.94,4.928 37.018,51.217 13.883,62.777c-3.799,1.995 -7.387,2.743 -10.764,2.743c-19.101,0 -32.293,-28.682 -32.293,-78.812l0,-0.499Z" style="fill:#04041c;fill-rule:nonzero;"></path><path d="M23.743,406.243c0.106,30.427 5.277,62.102 13.614,94.026c2.934,11.236 35.564,105.249 35.564,105.249c36.936,93.776 81.365,183.313 81.365,247.16c0,51.128 -38.73,0 -38.73,55.368c0,23.943 6.121,37.411 13.403,41.152c1.372,0.748 2.744,0.998 4.116,0.998c4.01,0 7.915,-2.743 11.397,-7.981c12.242,-18.705 19.945,-45.89 19.945,-84.548c0,-25.439 -5.382,-53.622 -13.825,-82.802c-9.155,-31.644 -39.363,-107.493 -39.363,-107.493c-12.558,-30.427 -25.75,-61.354 -37.78,-91.532c-14.141,-36.164 -35.728,-99.389 -35.728,-130.316c0,-22.945 3.266,-48.852 15.197,-53.07c13.94,-4.928 37.018,-51.217 13.883,-62.777c-3.799,-1.995 -7.387,-2.743 -10.764,-2.743c-19.101,0 -32.293,28.682 -32.293,78.812l0,0.499Z" style="fill:#04041c;fill-rule:nonzero;"></path></g></g></g></svg>