<?xml version="1.0" encoding="UTF-8" standalone="no"?><!DOCTYPE svg PUBLIC "-//W3C//DTD SVG 1.1//EN" "http://www.w3.org/Graphics/SVG/1.1/DTD/svg11.dtd"><svg width="100%" height="100%" viewBox="0 0 1000 500" version="1.1" xmlns="http://www.w3.org/2000/svg" xmlns:xlink="http://www.w3.org/1999/xlink" xml:space="preserve" xmlns:serif="http://www.serif.com/" style="fill-rule:evenodd;clip-rule:evenodd;stroke-linejoin:round;stroke-miterlimit:2;"><g><g><g><path d="M967.557,207.202c-0.048,13.889 -2.409,28.348 -6.214,42.921c-1.339,5.129 -16.234,48.044 -16.234,48.044c-16.861,42.807 -37.141,83.678 -37.141,112.823c0,23.339 17.679,0 17.679,25.274c0,10.929 -2.794,17.077 -6.118,18.785c-0.626,0.342 -1.252,0.455 -1.879,0.455c-1.831,0 -3.613,-1.252 -5.203,-3.643c-5.588,-8.539 -9.105,-20.948 -9.105,-38.594c0,-11.612 2.457,-24.477 6.311,-37.798c4.179,-14.445 17.969,-49.068 17.969,-49.068c5.733,-13.889 11.754,-28.007 17.246,-41.782c6.455,-16.508 16.309,-45.369 16.309,-59.486c0,-10.474 -1.491,-22.3 -6.937,-24.225c-6.364,-2.25 -16.898,-23.379 -6.337,-28.656c1.734,-0.911 3.372,-1.252 4.914,-1.252c8.719,0 14.741,13.093 14.741,35.976l0,0.228Z" style="fill:#04041c;fill-rule:nonzero;"/><path d="M967.557,292.798c-0.048,-13.889 -2.409,-28.348 -6.214,-42.921c-1.339,-5.129 -16.234,-48.044 -16.234,-48.044c-16.861,-42.807 -37.141,-83.678 -37.141,-112.823c0,-23.339 17.679,0 17.679,-25.274c0,-10.929 -2.794,-17.077 -6.118,-18.785c-0.626,-0.342 -1.252,-0.455 -1.879,-0.455c-1.831,0 -3.613,1.252 -5.203,3.643c-5.588,8.539 -9.105,20.948 -9.105,38.594c0,11.612 2.457,24.477 6.311,37.798c4.179,14.445 17.969,49.068 17.969,49.068c5.733,13.889 11.754,28.007 17.246,41.782c6.455,16.508 16.309,45.369 16.309,59.486c0,10.474 -1.491,22.3 -6.937,24.225c-6.364,2.25 -16.898,23.379 -6.337,28.656c1.734,0.911 3.372,1.252 4.914,1.252c8.719,0 14.741,-13.093 14.741,-35.976l0,-0.228Z" style="fill:#04041c;fill-rule:nonzero;"/></g></g><g><g><path d="M32.443,207.202c0.048,13.889 2.409,28.348 6.214,42.921c1.339,5.129 16.234,48.044 16.234,48.044c16.861,42.807 37.141,83.678 37.141,112.823c0,23.339 -17.679,0 -17.679,25.274c0,10.929 2.794,17.077 6.118,18.785c0.626,0.342 1.252,0.455 1.879,0.455c1.831,0 3.613,-1.252 5.203,-3.643c5.588,-8.539 9.105,-20.948 9.105,-38.594c0,-11.612 -2.457,-24.477 -6.311,-37.798c-4.179,-14.445 -17.969,-49.068 -17.969,-49.068c-5.733,-13.889 -11.754,-28.007 -17.246,-41.782c-6.455,-16.508 -16.309,-45.369 -16.309,-59.486c0,-10.474 1.491,-22.3 6.937,-24.225c6.364,-2.25 16.898,-23.379 6.337,-28.656c-1.734,-0.911 -3.372,-1.252 -4.914,-1.252c-8.719,0 -14.741,13.093 -14.741,35.976l0,0.228Z" style="fill:#04041c;fill-rule:nonzero;"/><path d="M32.443,292.798c0.048,-13.889 2.409,-28.348 6.214,-42.921c1.339,-5.129 16.234,-48.044 16.234,-48.044c16.861,-42.807 37.141,-83.678 37.141,-112.823c0,-23.339 -17.679,0 -17.679,-25.274c0,-10.929 2.794,-17.077 6.118,-18.785c0.626,-0.342 1.252,-0.455 1.879,-0.455c1.831,0 3.613,1.252 5.203,3.643c5.588,8.539 9.105,20.948 9.105,38.594c0,11.612 -2.457,24.477 -6.311,37.798c-4.179,14.445 -17.969,49.068 -17.969,49.068c-5.733,13.889 -11.754,28.007 -17.246,41.782c-6.455,16.508 -16.309,45.369 -16.309,59.486c0,10.474 1.491,22.3 6.937,24.225c6.364,2.25 16.898,23.379 6.337,28.656c-1.734,0.911 -3.372,1.252 -4.914,1.252c-8.719,0 -14.741,-13.093 -14.741,-35.976l0,-0.228Z" style="fill:#04041c;fill-rule:nonzero;"/></g></g></g></svg>
