<?xml version="1.0"?><svg xmlns="http://www.w3.org/2000/svg" xmlns:xlink="http://www.w3.org/1999/xlink" width="3312" height="1892" viewBox="0 0 3312 1892"><path transform="scale(2.46409 2.46409)" d="M683.123 78.2356C707.437 69.1994 736.205 61.4395 761.414 71.1794C788.249 81.5478 784.974 104.604 776.169 126.157C776.694 126.409 777.226 126.647 777.764 126.869C794.446 133.856 805.292 130.697 820.538 122.52C834.457 115.055 849.38 108.795 863.997 102.869C836.794 94.8496 816.251 94.3623 789.56 103.256C789.461 96.5817 788.255 92.0555 786.54 85.7254C790.446 84.4609 794.43 83.4533 798.467 82.7093C831.3 76.397 859.255 84.9482 890.131 92.8842C892.963 93.612 907.61 90.3364 911.808 89.9131C939.232 87.1473 966.447 91.2583 989.426 107.286C994.582 110.894 1005.52 119.006 1000.01 126.101C995.269 128.565 989.563 123.61 985.371 120.592C965.33 106.162 945.786 104.275 921.69 104.414C945.965 114.116 973.267 122.75 998.206 130.981C1043.62 120.648 1086.96 106.858 1133.31 98.5187C1152.32 95.0525 1171.52 92.7252 1190.81 91.5493C1197.5 91.1817 1213.69 91.7802 1218.98 90.8151C1234.8 87.7729 1249.7 81.3893 1265.36 77.5651C1277.01 74.7207 1299.17 68.6387 1310.47 74.6842C1325.23 82.5882 1305.7 103.997 1294.31 98.5669C1292.49 97.701 1293.49 92.1804 1293.15 89.8956C1287.15 80.539 1256.61 91.6114 1248.36 94.6904C1262.59 96.7949 1276.94 100.559 1289 108.585C1310 122.561 1310.82 147.323 1310.59 169.987C1310.46 182.25 1310.48 194.671 1310.48 206.985L1310.42 330.156L1310.44 516.109L1310.5 574.687C1310.51 586.504 1310.7 598.188 1310.1 609.997C1308.2 647.614 1278.7 659.14 1246.55 664.407C1259.54 667.942 1276.92 673.94 1290.41 671.53C1294.35 670.377 1291.51 660.516 1295.72 659.931C1314.37 657.34 1327.63 687.395 1298.02 686.696C1271.3 686.065 1245.76 674.294 1220.1 667.927C1212.39 666.013 1193.19 666.957 1183.94 666.174C1157.98 663.853 1132.19 659.832 1106.76 654.137C1083.82 648.978 1060.98 643.408 1038.24 637.429C1027.01 634.569 1002.1 626.281 992.514 629.26C969.509 636.412 945.924 644.872 923.147 652.861C942.341 655.729 964.298 650.018 981.188 640.728C986.086 638.033 991.166 631.21 997.07 631.428C999.425 631.515 1000.23 632.544 1001.59 634.21C1001.94 635.421 1002.14 636.461 1001.73 637.698C999.302 644.979 985.852 653.901 979.253 657.4C958.6 668.352 934.556 670.178 911.663 668.057C906.843 667.611 895.968 664.344 892.222 664.901C884.818 666.002 874.924 668.734 867.468 670.651C841.916 677.222 814.437 680.954 788.614 673.311C789.783 667.24 790.07 662.038 790.34 655.891C814.81 664.292 840.649 662.869 865.218 655.364C855.621 651.735 846.149 647.785 836.817 643.519C812.703 632.318 803.464 623.838 776.732 636.368C784.66 655.077 789.158 675.95 768.654 689.222C751.305 700.452 727.413 696.798 708.249 692.801C699.811 690.708 692.261 688.203 684.125 685.225C659.562 693.997 630.366 702.374 605.092 692.214C578.042 681.34 581.965 657.899 590.882 636.6C589.458 635.877 588.02 635.181 586.569 634.512C563.102 623.76 545.774 634.139 524.67 643.334C514.781 647.635 504.765 651.638 494.636 655.337C525.446 663.249 546.933 664.649 576.761 654.414C576.73 661.748 577.384 665.798 578.528 672.987C549.563 679.804 522.717 678.21 493.952 671.414C482.299 668.66 473.126 662.973 461.123 665.547C436.278 670.876 407.599 669.935 384.015 659.847C375.823 656.343 351.802 643.649 356.68 632.596C359.388 630.107 364.107 631.039 366.543 633.132C386.935 650.65 409.541 654.257 436.72 653.469C423.594 647.833 367.843 628.085 355.888 627.802C343.367 627.505 324.919 634.852 312.486 637.979C286.745 644.54 260.866 650.54 234.865 655.976C212.384 660.696 189.635 664.032 166.745 665.965C154.869 666.856 133.389 666.31 123.72 668.529C100.915 673.764 76.9064 684.676 53.0322 686.684C47.088 687.063 37.7838 686.665 33.3179 682.299C24.5491 673.725 38.746 658.492 48.3641 659.544C56.9693 660.484 51.3488 666.193 54.9937 670.943C63.8295 675.78 89.8884 667.126 99.7106 664.312C72.0424 660.275 40.9348 649.011 37.0824 617.413C34.2547 594.22 35.59 568.004 35.7498 544.541L35.9549 427.574L35.8441 242.053L35.6165 186.66C35.2896 129.796 33.2365 106.008 98.024 94.5197C87.6594 90.7751 71.4327 85.6169 60.184 86.3158C49.3748 86.9875 55.1046 94.547 51.9984 98.2921C38.4236 106.694 16.3706 74.3136 43.6105 72.1012C71.6683 69.8224 98.8779 85.2647 125.896 90.4313C135 92.1724 145.406 90.6541 154.69 91.2042C223.224 95.5037 291.21 113.937 357.537 130.975C361.7 129.825 365.912 128.523 370.005 127.135C392.264 119.586 415.209 112.745 437.163 104.397C413.359 104.023 387.35 106.846 368.525 122.873C365.204 125.7 358.13 129.602 354.835 124.909C354.719 123.956 354.74 122.994 355.09 122.093C358.968 112.102 370.251 104.351 379.489 99.9172C400.298 89.9303 423.543 87.2322 446.311 89.747C453.172 90.5048 462.841 93.2104 469.461 92.4728C476.651 91.6717 485.462 88.3215 492.73 86.6469C519.808 80.4076 552.228 77.4248 578.996 86.4619C577.406 92.7068 576.949 98.3175 576.725 104.706C547.085 92.6103 525.358 96.5435 494.516 102.216C503.861 105.471 514.903 110.263 523.891 114.416C550.135 126.543 560.686 136.296 590.278 126.093C576.548 94.1576 584.99 70.947 621.937 67.2094C639.99 63.6172 666.311 72.0377 683.123 78.2356ZM268.506 602.367C232.01 594.421 144.81 577.406 108.875 595.874C106.249 597.224 103.02 601.246 102.577 604.575C101.693 608.87 102.974 610.424 104.752 613.746C108.412 620.584 129.552 632.484 127.94 640.431C125.549 652.219 101.414 646.727 93.667 644.186C74.7263 637.975 47.4904 621.527 54.2542 597.895C56.34 590.752 63.9855 584.451 70.6412 581.456C119.287 562.505 190.491 576.338 240.74 584.481C255.416 586.859 275.408 593.644 288.538 594.295C293.289 594.53 321.277 583.845 328.664 581.592C387.709 563.595 453.453 550.037 513.649 570.741C523.346 574.145 534.356 580.361 539.29 589.682C544.13 598.826 537.278 608.821 528.727 612.358C515.254 617.93 484.366 617.663 477.549 601.704C474.149 593.743 475.553 586.585 465.317 583.533C428.873 570.409 385.885 581.17 349.528 590.108C337.356 593.101 322.235 596.676 311.128 601.254C323.878 604.94 360.246 617.59 371.172 615.416C386.571 612.352 403.76 606.648 420.972 603.887C417.544 609.51 416.337 615.53 423.408 618.97C447.212 630.552 475.455 630.212 501.278 628.208C536.989 626.461 561.233 613.933 589.631 592.463C583.862 568.261 596.02 551.463 619.808 545.924C642.074 540.74 663.034 544.747 683.947 553.18C701.223 545.831 716.934 542.605 735.699 543.884C764.596 545.854 784.503 562.169 777.204 593.003C805.108 617.659 831.938 629.393 869.609 628.752C890.004 628.405 919.778 631.176 937.089 616.935C941.617 613.211 939.541 608.063 936.986 603.947C954.943 607.784 972.769 612.21 990.435 617.218L1043.24 601.448C1009.68 589.421 912.907 561.251 886.744 590.231C883.838 614.347 865.478 617.208 844.599 615.341C817.678 612.933 812.636 591.833 834.95 576.864C871.722 554.914 924.226 558.79 965.097 566.022C1000.84 572.601 1031.22 584.622 1064.56 595.196C1113.09 583.628 1235.12 556.605 1279.4 583.423C1285.51 587.125 1290.42 592.42 1292.13 599.503C1293.73 606.158 1292.38 613.332 1288.78 619.101C1279.89 633.325 1261.04 642.679 1245.13 646.183C1237.79 647.801 1226.3 648.655 1219.83 644.147C1218.79 643.426 1218.3 642.606 1217.88 641.447C1217.19 628.465 1257.69 613.446 1239.03 597.688C1224.17 585.14 1189.2 586.966 1170.81 588.444C1141.89 590.922 1113.19 595.564 1084.96 602.333C1115.65 614.021 1146.24 625.968 1176.73 638.172C1194.69 645.339 1214.49 653.916 1233.18 658.798C1236.83 659.751 1243.82 658.276 1247.78 657.606C1307.24 643.473 1303.41 615.582 1303.4 562.343L1303.37 506.746L1303.35 335.801L1303.41 216.884C1303.43 199.291 1304.44 157.365 1300.93 142.446C1298.03 129.844 1290.19 118.937 1279.16 112.179C1268.8 105.784 1241.74 96.8407 1229.87 100.595C1180.29 116.276 1133.15 139.1 1084.06 156.46C1120.38 165.639 1201.01 180.102 1236.79 162.692C1239.39 161.43 1243.38 157.604 1244.04 154.336C1245.24 150.507 1243 148.133 1241.76 145.253C1238.32 137.28 1216.58 126.81 1218.73 117.605C1223.13 107.385 1246.17 112.401 1252.95 114.75C1265.71 119.171 1284.88 129.415 1290.25 142.482C1302.68 172.688 1270.63 181.091 1250.33 183.782C1188.39 191.994 1123.74 178.569 1064.19 163.551C1021.18 178.186 979.874 193.471 934.23 197.143C903.001 199.655 871.103 199.508 842.034 185.935C831.477 181.04 815.343 168.237 821.845 154.91C832.068 137.092 879.039 138.14 885.463 159.888C885.844 161.124 886.21 165.95 886.36 167.463C897.628 178.766 912.524 181.437 927.842 181.324C959.162 181.092 1014.18 169.128 1043.2 157.615C1025.27 152.394 1007.43 146.887 989.688 141.097C971.902 145.744 954.059 150.172 936.164 154.378C940.203 147.19 940.323 140.406 931.773 137.003C901.775 125.062 853.518 126.523 823.69 136.929C805.066 143.54 788.358 154.642 775.046 169.251C790.316 227.045 719.161 226.607 683.565 211.17C675.896 213.974 669.454 216.17 661.501 217.882C626.867 225.338 578.778 216.769 589.967 169.779C575.041 156.201 551.939 139.519 531.88 134.199C512.242 128.99 486.999 128.63 466.56 128.837C457.184 128.933 446.56 130.551 437.412 132.645C431.571 134.172 424.571 136.199 420.208 140.484C415.659 144.954 418.802 149.606 421.208 154.038C402.628 149.987 384.128 145.578 365.718 140.815C351.319 145.329 324.569 154.357 310.365 157.396C345.458 168.9 445.697 197.646 474.204 168.649C475.466 161.073 475.906 153.92 482.968 149.393C492.986 142.971 507.829 141.264 519.415 143.297C530.529 145.246 538.02 150.211 541.519 160.935C538.607 171.57 533.504 178.145 523.61 183.35C472.94 210.006 398.578 196.367 346.362 181.771C327.116 176.327 308.079 170.168 289.29 163.307C240.495 174.273 110.017 202.954 65.6998 175.006C59.8423 171.312 55.3087 166.141 53.8421 159.237C52.2796 151.882 54.3673 144.159 58.4288 137.956C65.7911 126.712 84.3678 115.844 97.3329 113.231C106.082 111.468 118.365 108.916 126.112 114.656C127.187 115.452 127.933 116.622 128.075 117.964C128.382 120.862 125.93 124.046 124.084 126.046C118.377 132.227 101.542 142.066 102.059 151.237C102.295 155.416 104.172 158.968 107.408 161.597C125.2 176.054 173.958 170.873 196.415 168.234C220.202 165.44 244.744 162.318 268.014 156.577L210.493 135.145C194.898 129.217 119.71 98.3671 109.48 99.3688C79.5609 103.497 46.1358 114.039 43.8143 150.071C41.8151 181.101 42.5719 212.732 42.5869 243.855L42.6063 407.308L42.592 536.455C42.5962 551.246 42.6432 566.163 42.6952 580.826C42.7776 604.1 42.8856 629.075 64.0949 644.177C76.3828 652.926 98.8575 660.172 114.455 658.434C126.899 655.895 147.853 647.415 160.482 642.645L225.702 617.951C239.44 612.752 254.612 606.716 268.506 602.367ZM608.097 130.782C623.495 155.377 656.432 188.536 683.398 199.99C713.139 184.381 739.942 158.913 758.546 131.065C732.974 115.997 710.177 101.02 683.097 88.5848C671.364 94.301 660.17 100.089 648.918 106.724C635.6 114.577 621.905 124.021 608.097 130.782ZM758.839 632.263C745.728 611.685 706.143 570.11 683.164 563.697C654.528 580.864 625.858 603.069 608.877 632.382C621.211 639.374 674.943 674.19 684.682 674.239C713.592 661.477 731.938 646.924 758.839 632.263ZM290.358 150.841C304.489 146.954 318.589 142.951 332.654 138.831L344.801 135.138C336.565 132.113 327.968 130.156 319.449 128.087C265.556 115.002 211.391 101.212 155.804 98.0504C153.009 97.8914 150.204 97.6624 147.403 97.7721C154.458 101.049 163.855 104.182 171.298 106.901C183.184 111.225 195.041 115.632 206.867 120.121C230.721 129.116 266.932 143.998 290.358 150.841ZM144.172 661.236C154.178 660.294 188.501 658.247 196.375 656.128C231.842 650.24 267.037 642.81 301.859 633.859C315.26 630.547 331.471 627.066 344.383 623.081C335.805 620.528 295.145 607.662 288.95 607.789L144.172 661.236ZM476.315 645.106C486.709 642.265 496.439 639.34 506.505 635.381C481.609 636.592 435.237 637.55 414.296 621.454C410.581 618.599 410.535 614.57 407.875 612.907L406.351 613.192C397.127 615.524 387.127 618.268 377.911 620.34C397.251 626.991 416.677 633.389 436.184 639.534C442.753 641.652 449.544 643.836 456.08 646.015C464.743 648.903 467.956 647.761 476.315 645.106ZM1201.03 97.8359C1197.77 97.8828 1193 97.8081 1189.88 98.18C1134.32 100.872 1064.19 120.405 1010.02 134.755C1015.89 136.744 1024.28 139.219 1029.79 141.357C1040.44 144.576 1052.73 148.566 1063.44 150.841C1095.42 138.73 1127.3 126.35 1159.07 113.702C1171.64 108.822 1189.36 103.287 1201.03 97.8359ZM886.111 646.206L895.463 648.493C922.782 639.55 951.765 629.128 979.06 620.876C969.162 617.996 959.112 614.958 949.058 612.713C939.478 638.436 877.569 636.781 854.359 635.34C862.926 638.965 876.759 643.992 886.111 646.206ZM603.22 119.912C609.424 118.126 617.034 113.791 622.27 110.017C624.196 109.215 637.282 101.201 639.94 99.581C649.733 93.612 657.958 89.3402 668.246 84.3281C657.83 81.8213 646.746 79.7621 636.206 83.4924C625.966 87.1169 622.719 97.7184 618.448 107.018C613.189 113.583 610.401 115.424 603.22 119.912ZM945.716 139.016C946.888 141.075 948.305 143.434 949.32 145.538C957.999 142.547 969.319 139.882 978.354 137.507L920.504 117.976C915.914 116.448 898.416 110.415 894.47 109.8C882.658 112.587 865.699 117.169 854.813 122.703C877.753 121.83 929.643 120.307 945.716 139.016ZM695.779 558.485C731.184 580.543 745.774 594.6 771.401 627.083C773.644 626.237 777.157 624.782 779.351 624.146C784.366 622.634 787.991 621.792 793.29 621.362C781.769 613.501 770.996 605.696 760.044 597.056C755.264 593.285 749.979 590.273 745.673 585.796C738.206 578.03 735.712 565.774 726.725 559.501C721.629 555.944 713.198 555.543 707.084 556.11C703.306 556.854 699.537 557.646 695.779 558.485ZM605.005 643.758C608.943 647.292 614.587 650.637 617.303 654.796C629.507 673.489 625.921 683.088 651.926 681.71C657.048 681.39 662.144 680.741 667.182 679.766L667.738 679.05C658.675 674.243 609.597 644.54 605.005 643.758ZM413.832 136.645C437.238 119.698 478.171 121.561 506.185 122.686C495.565 118.531 473.533 109.907 462.742 109.676C434.697 118.448 406.206 128.911 378.286 137.35C387.649 140.14 399.255 143.24 408.856 145.258C410.032 141.592 410.772 139.207 413.832 136.645ZM570.559 620.788C580.616 622.17 584.874 622.852 594.342 626.169C594.961 626.214 596.091 626.496 596.46 626.027C617.884 598.779 641.276 576.174 671.717 559.003C664.143 556.797 659.107 555.474 650.986 556.082C631.574 560.281 632.945 572.994 621.724 585.856C617.484 590.715 609.524 594.45 604.291 598.343C593.267 606.354 582.633 614.314 570.559 620.788ZM698.131 84.0254C706.71 88.502 714.364 92.6172 722.693 97.4931C726.539 99.745 736.024 105.764 739.549 107.412C747.082 112.065 755.425 117.312 763.652 120.487C756.728 115.71 752.659 112.162 747.116 105.561C743.089 96.6202 740.036 86.6015 730.175 83.2286C720.361 79.8717 707.958 81.574 698.131 84.0254ZM790.064 140.215C783.242 138.853 777.393 137.656 770.74 135.568C751.598 163.255 724.777 188.927 695.328 205.316C703.4 207.335 707.203 208.153 715.669 207.619C723.807 205.56 728.452 204.071 733.196 196.568C735.097 193.561 739.322 183.815 740.918 182.081C754.576 167.238 773.385 150.99 790.064 140.215ZM761.79 643.317C741.919 653.757 724.289 667.137 704.136 676.786C702.947 677.355 701.852 678.238 701.352 679.473C702.148 679.878 702.548 680.132 703.413 680.396C733.853 684.714 738.389 680.931 749.774 655.153C750.992 652.395 759.58 646.235 762.187 643.887L761.79 643.317ZM1010.65 623.464C1051.94 634.454 1111.97 651.158 1153.53 656.131C1167.08 658.252 1185.89 660.576 1199.46 660.389C1172.4 648.914 1142.18 637.994 1114.68 627.279C1102.99 622.726 1073.91 611.008 1062.49 607.981C1044.5 612.347 1027.85 618.869 1010.65 623.464ZM593.928 135.959C585.623 138.239 580.809 139.364 572.236 140.042C586.15 148.427 597.584 156.888 609.523 167.843C614.431 172.347 620.611 176.185 624.76 181.666C634.353 195.015 631.686 203.48 650.161 207.4C658.474 207.962 662.394 207.533 670.486 205.192C645.839 189.001 623.345 172.389 605.149 148.723C602.703 145.542 597.269 136.596 593.928 135.959Z"></path><path transform="scale(2.46409 2.46409)" d="M683.939 94.2858C685.73 99.6161 688.116 122.006 688.925 128.892C694.213 126.089 700.013 123.52 705.468 120.993C703.082 126.325 700.05 132.178 697.453 137.472C704.231 139.224 711.159 140.863 717.966 142.544C711.194 144.513 704.386 146.36 697.547 148.083C699.59 153.183 702.761 159.596 705.102 164.698C699.946 162.16 694.646 159.237 689.551 156.526C688.035 168.315 686.265 180.07 684.242 191.782L683.455 191.422C681.029 180.857 679.354 167.202 677.913 156.416C673.231 158.55 666.982 162.122 662.316 164.611C664.774 159.076 667.348 153.594 670.036 148.167C663.008 146.329 656.596 144.647 649.672 142.365C656.061 141.22 663.704 139.101 670.099 137.498C667.436 131.945 664.876 126.345 662.418 120.699C667.761 123.296 672.965 125.888 678.484 128.111C680.72 117.401 680.817 105.378 683.939 94.2858Z"></path><path transform="scale(2.46409 2.46409)" d="M684.089 570.845C686.684 579.559 688.903 598.495 690.186 607.822C695.546 605.067 700.936 602.371 706.355 599.736L698.301 616.664L718.737 621.746C711.697 623.568 705.295 625.486 698.082 627.234C699.945 632.16 703.354 639.11 705.6 644.066C701.562 642.492 693.503 637.951 689.363 635.76C688.403 646.486 686.479 658.014 684.869 668.74L684.409 669.337C682.874 666.685 679.917 641.306 679.216 635.895C674.386 637.836 668.004 641.37 663.244 643.84C665.295 638.264 668.169 632.653 670.784 627.287L650.248 621.54C656.881 620.263 664.031 618.415 670.646 616.841C667.752 611.241 665.204 605.493 662.602 599.753L678.389 607.712C680.657 595.553 681.84 583.117 684.089 570.845Z"></path><path fill="#F4F3F5" fill-opacity="0.0078431377" transform="scale(2.46409 2.46409)" d="M1062.49 607.981C1073.91 611.008 1102.99 622.726 1114.68 627.279C1142.18 637.994 1172.4 648.914 1199.46 660.389C1185.89 660.576 1167.08 658.252 1153.53 656.131C1111.97 651.158 1051.94 634.454 1010.65 623.464C1027.85 618.869 1044.5 612.347 1062.49 607.981Z"></path><path fill="#F4F3F5" fill-opacity="0.0078431377" transform="scale(2.46409 2.46409)" d="M761.79 643.317L762.187 643.887C759.58 646.235 750.992 652.395 749.774 655.153C738.389 680.931 733.853 684.714 703.413 680.396C702.548 680.132 702.148 679.878 701.352 679.473C701.852 678.238 702.947 677.355 704.136 676.786C724.289 667.137 741.919 653.757 761.79 643.317Z"></path><path fill="#F4F3F5" fill-opacity="0.0078431377" transform="scale(2.46409 2.46409)" d="M739.549 107.412C743.268 107.318 743.538 107.95 745.252 104.645L746.023 105.789L747.116 105.561C752.659 112.162 756.728 115.71 763.652 120.487C755.425 117.312 747.082 112.065 739.549 107.412Z"></path><path fill="#F4F3F5" fill-opacity="0.019607844" transform="scale(2.46409 2.46409)" d="M618.448 107.018C622.09 110.418 621.596 106.968 622.27 110.017C617.034 113.791 609.424 118.126 603.22 119.912C610.401 115.424 613.189 113.583 618.448 107.018Z"></path></svg>