<?xml version="1.0" encoding="UTF-8" standalone="no"?>
<!DOCTYPE svg PUBLIC "-//W3C//DTD SVG 1.1//EN" "http://www.w3.org/Graphics/SVG/1.1/DTD/svg11.dtd">
<svg width="100%" height="100%" viewBox="0 0 1820 300" version="1.1" xmlns="http://www.w3.org/2000/svg" xmlns:xlink="http://www.w3.org/1999/xlink" xml:space="preserve" xmlns:serif="http://www.serif.com/" style="fill-rule:evenodd;clip-rule:evenodd;stroke-linejoin:round;stroke-miterlimit:2;">
    <g transform="matrix(1,0,0,1,-41.64,-62.095072)">
        <g transform="matrix(1,0,0,1,-971,-295)">
            <g transform="matrix(1,0,0,1,0,-1915.225)">
                <path d="M1456.65,2413.98C1540,2411.97 1622.61,2406.11 1705.93,2412.39C1743.29,2415.2 1782.02,2415.15 1818.69,2424.4C1796.45,2431.7 1721.77,2438.44 1697.21,2439.18C1663.36,2435.52 1605.95,2439.05 1569.15,2437.95C1455.47,2435.09 1341.82,2430.88 1228.22,2425.3C1262.65,2417.64 1446.41,2422.97 1456.65,2413.98Z" style="fill:rgb(4,4,28);fill-rule:nonzero;"/>
            </g>
            <g transform="matrix(1,0,0,1,0,-1915.225)">
                <path d="M2417.57,2434.7C2374.44,2438.96 2041.53,2446.58 2026.33,2424.82C2034.88,2415.18 2161.79,2409.81 2182.26,2409.52C2258.81,2415.86 2339.65,2413.4 2416.68,2418.99C2449.19,2421.35 2481.84,2419.11 2514.67,2422.7C2504.83,2429.63 2449.6,2422.92 2417.57,2434.7Z" style="fill:rgb(4,4,28);fill-opacity:0.98;fill-rule:nonzero;"/>
            </g>
            <g transform="matrix(1,0,0,1,0,-1915.225)">
                <path d="M1198.92,2424.72C1238.39,2415.65 1316.05,2418.38 1358.61,2416.07C1379.85,2414.92 1436.69,2412.05 1456.65,2413.98C1446.41,2422.97 1262.65,2417.64 1228.22,2425.3C1341.82,2430.88 1455.47,2435.09 1569.15,2437.95C1605.95,2439.05 1663.36,2435.52 1697.21,2439.18C1666.49,2445.34 1593.81,2442.46 1562.44,2441.27L1445.11,2437.95L1305.35,2432.86C1270.71,2431.62 1232.38,2432.44 1198.92,2424.72Z" style="fill:rgb(113,113,113);fill-opacity:0.63;fill-rule:nonzero;"/>
            </g>
            <g transform="matrix(1,0,0,1,0,-1915.225)">
                <path d="M2182.26,2409.52C2216.95,2404.85 2612.59,2417.34 2634.86,2425.44C2633.33,2428.21 2634.35,2427.53 2631.87,2428.2C2614.66,2432.84 2463.6,2437.42 2443.9,2434.62C2448.71,2430.76 2508.28,2430.73 2520.85,2430C2542.82,2428.72 2566.74,2427.41 2588.82,2425.69C2582.98,2423.23 2524.74,2422.62 2514.67,2422.7C2481.84,2419.11 2449.19,2421.35 2416.68,2418.99C2339.65,2413.4 2258.81,2415.86 2182.26,2409.52Z" style="fill:rgb(82,82,82);fill-opacity:0.75;fill-rule:nonzero;"/>
            </g>
            <g transform="matrix(1,0,0,1,0,-1915.225)">
                <path d="M2634.4,2392.22C2645.97,2391.79 2696.81,2416.5 2707.25,2423.83L2706.07,2427.21C2696.9,2433.3 2688.34,2435.69 2678.2,2439.31C2662.51,2447.32 2647.63,2455.73 2631.13,2461.41C2649.35,2425.69 2651.1,2428 2634.4,2392.22Z" style="fill:rgb(4,4,28);fill-opacity:0.97;fill-rule:nonzero;"/>
            </g>
            <g transform="matrix(1,0,0,1,0,-1915.225)">
                <path d="M1203.24,2388.4L1204.21,2389.04C1206.04,2394.13 1197.2,2416.12 1195.33,2429.98C1199.82,2441.13 1205.41,2452.66 1210.45,2463.57C1198.11,2457.96 1184.47,2450.56 1172.07,2444.41C1162.83,2439.41 1144.42,2433.94 1138.03,2427.66C1142.03,2418.8 1187.3,2399.1 1203.24,2388.4Z" style="fill:rgb(4,4,28);fill-rule:nonzero;"/>
            </g>
            <g transform="matrix(1,0,0,1,0,-1915.225)">
                <path d="M1816.95,2386.61C1864.41,2384.62 1884.14,2449.7 1828.33,2462.53C1821.82,2463.8 1820.96,2463.85 1814.34,2463.73C1813.49,2449.95 1878.2,2436 1816.15,2391L1816.95,2386.61Z" style="fill:rgb(4,4,28);fill-opacity:0.98;fill-rule:nonzero;"/>
            </g>
            <g transform="matrix(1,0,0,1,0,-1915.225)">
                <path d="M2016.59,2386.87C2021.05,2386.91 2022.26,2387.46 2026.65,2388.64L2026.97,2391.1C1958.83,2431.86 2023.92,2441.89 2025.49,2464.14C1989.8,2457.45 1973.99,2449.02 1984.96,2405.74C1997.1,2392.23 1999.71,2390.2 2016.59,2386.87Z" style="fill:rgb(4,4,28);fill-opacity:0.98;fill-rule:nonzero;"/>
            </g>
            <g transform="matrix(1,0,0,1,0,-1915.225)">
                <path d="M2514.67,2422.7C2524.74,2422.62 2582.98,2423.23 2588.82,2425.69C2566.74,2427.41 2542.82,2428.72 2520.85,2430C2508.28,2430.73 2448.71,2430.76 2443.9,2434.62L2417.57,2434.7C2449.6,2422.92 2504.83,2429.63 2514.67,2422.7Z" style="fill:rgb(77,77,77);fill-opacity:0.96;fill-rule:nonzero;"/>
            </g>
        </g>
        <g transform="matrix(1.008935,0,0,0.827557,615.402708,90.122209)">
            <path d="M339.68,172.435C337.96,181.7 332.847,237.274 332.806,237.274C332.029,233.158 327.329,174.716 327.228,174.178C327.166,173.848 327.105,173.518 327.044,173.189C327.016,173.036 326.987,172.884 326.959,172.731C326.92,172.523 326.882,172.316 326.843,172.108C326.832,172.048 326.82,171.987 326.808,171.925C326.758,171.655 326.731,171.43 326.731,171.15C325.658,171.831 324.597,172.541 323.536,173.257C323.296,173.419 323.055,173.581 322.815,173.743C322.4,174.023 321.985,174.302 321.57,174.582C320.97,174.987 320.37,175.391 319.77,175.795C318.796,176.451 317.822,177.107 316.848,177.764C316.79,177.803 316.732,177.842 316.672,177.883C315.845,178.441 315.018,178.998 314.191,179.556C314.133,179.595 314.074,179.635 314.014,179.675C313.956,179.714 313.897,179.754 313.837,179.794C312.865,180.449 311.893,181.105 310.92,181.759C310.321,182.163 309.722,182.566 309.123,182.97C308.714,183.246 308.305,183.522 307.895,183.797C307.659,183.956 307.422,184.115 307.186,184.275C306.97,184.421 306.754,184.566 306.538,184.712C306.46,184.765 306.381,184.818 306.303,184.871C306.197,184.943 306.091,185.014 305.985,185.085C305.926,185.125 305.867,185.165 305.806,185.206C305.667,185.29 305.667,185.29 305.547,185.29C305.627,184.944 305.726,184.628 305.846,184.305C305.864,184.256 305.882,184.208 305.9,184.158C305.96,183.996 306.021,183.834 306.081,183.671C306.125,183.553 306.168,183.436 306.212,183.318C306.332,182.995 306.452,182.672 306.572,182.349C306.702,182.001 306.831,181.652 306.961,181.304C307.185,180.7 307.41,180.097 307.634,179.494C307.959,178.622 308.283,177.749 308.607,176.876C309.133,175.46 309.66,174.044 310.186,172.628C310.233,172.501 310.233,172.501 310.282,172.371C310.506,171.769 310.73,171.168 310.953,170.566C311.209,169.878 311.465,169.19 311.72,168.503C311.752,168.418 311.783,168.334 311.815,168.246C312.34,166.835 312.864,165.424 313.389,164.013C313.713,163.142 314.037,162.271 314.361,161.4C314.583,160.804 314.804,160.208 315.026,159.612C315.154,159.268 315.282,158.923 315.41,158.579C315.527,158.264 315.644,157.95 315.761,157.635C315.803,157.521 315.846,157.406 315.889,157.292C315.947,157.138 316.004,156.983 316.061,156.828C316.093,156.742 316.125,156.656 316.158,156.567C316.234,156.378 316.234,156.378 316.226,156.205C316.187,156.192 301.19,151.143 296.416,149.537C296.377,149.524 289.176,147.1 289.017,147.046C289.176,146.831 289.348,146.798 289.56,146.728C289.627,146.705 289.627,146.705 289.695,146.682C289.845,146.631 289.996,146.581 290.146,146.531C290.254,146.495 290.362,146.458 290.471,146.422C290.77,146.321 291.068,146.222 291.367,146.122C291.689,146.014 292.01,145.906 292.332,145.798C292.89,145.611 293.447,145.423 294.005,145.237C294.812,144.967 295.618,144.696 296.424,144.425C297.733,143.985 299.041,143.546 300.35,143.107C300.389,143.094 300.428,143.081 300.469,143.067C300.786,142.961 301.104,142.854 301.421,142.748C302.335,142.441 303.249,142.135 304.163,141.828C304.202,141.815 304.241,141.802 304.282,141.788C305.625,141.337 306.968,140.886 308.311,140.435C309.116,140.165 309.92,139.895 310.725,139.625C311.276,139.44 311.827,139.255 312.378,139.07C312.696,138.963 313.015,138.856 313.333,138.75C313.624,138.653 313.915,138.555 314.206,138.457C314.312,138.422 314.417,138.386 314.523,138.351C314.666,138.303 314.809,138.255 314.952,138.207C314.993,138.193 315.035,138.18 315.078,138.165C315.28,138.096 315.441,138.016 315.63,137.889C312.283,128.875 308.935,119.86 305.486,110.573C305.525,110.546 305.565,110.52 305.605,110.493C305.747,110.569 305.747,110.569 305.929,110.691C305.998,110.737 306.067,110.784 306.139,110.831C306.217,110.884 306.294,110.936 306.372,110.989C306.454,111.044 306.536,111.099 306.617,111.154C306.843,111.306 307.068,111.458 307.294,111.611C307.537,111.775 307.78,111.939 308.023,112.102C308.444,112.386 308.866,112.67 309.287,112.954C309.896,113.365 310.505,113.776 311.114,114.186C312.102,114.852 313.09,115.518 314.078,116.185C315.038,116.833 315.998,117.48 316.958,118.127C317.017,118.167 317.076,118.207 317.137,118.248C317.434,118.448 317.73,118.648 318.027,118.848C320.49,120.508 322.952,122.169 325.415,123.83C325.534,123.67 325.517,123.369 325.537,123.15C325.543,123.088 325.549,123.026 325.555,122.961C325.574,122.755 325.593,122.549 325.612,122.344C325.625,122.201 325.639,122.058 325.652,121.914C325.74,120.972 333.309,57.504 333.35,57.504C333.354,57.548 340.704,119.616 340.843,120.98C340.851,121.061 340.859,121.141 340.868,121.224C340.909,121.626 340.95,122.028 340.992,122.431C341.007,122.578 341.022,122.725 341.037,122.872C341.044,122.94 341.051,123.008 341.058,123.077C341.064,123.14 341.071,123.203 341.077,123.267C341.083,123.322 341.088,123.376 341.094,123.432C341.106,123.59 341.106,123.75 341.106,123.909C341.148,123.881 341.19,123.853 341.233,123.823C343.711,122.152 346.189,120.481 348.668,118.811C348.965,118.611 349.263,118.41 349.56,118.21C349.649,118.15 349.649,118.15 349.739,118.089C350.699,117.442 351.658,116.796 352.617,116.149C353.601,115.486 354.585,114.822 355.569,114.16C356.177,113.751 356.784,113.341 357.392,112.931C357.808,112.65 358.224,112.37 358.64,112.09C358.88,111.928 359.121,111.766 359.361,111.604C359.581,111.456 359.801,111.307 360.021,111.16C360.101,111.106 360.181,111.052 360.26,110.998C360.368,110.925 360.476,110.853 360.584,110.78C360.644,110.739 360.704,110.699 360.766,110.657C360.915,110.571 360.915,110.571 361.094,110.571C357.747,119.585 354.399,128.6 350.95,137.887C351.286,138.038 351.613,138.179 351.955,138.293C351.999,138.308 352.043,138.323 352.089,138.338C352.236,138.387 352.382,138.436 352.529,138.486C352.636,138.522 352.742,138.558 352.849,138.594C353.141,138.692 353.433,138.79 353.726,138.888C354.041,138.994 354.357,139.1 354.672,139.206C355.218,139.39 355.765,139.573 356.311,139.756C357.101,140.021 357.891,140.287 358.681,140.552C359.963,140.983 361.246,141.414 362.528,141.845C362.566,141.858 362.605,141.871 362.644,141.884C363.5,142.172 364.357,142.459 365.213,142.747C365.563,142.864 365.913,142.982 366.263,143.099C366.301,143.112 366.34,143.125 366.379,143.138C367.696,143.58 369.012,144.023 370.329,144.465C371.117,144.73 371.906,144.995 372.694,145.259C373.234,145.44 373.774,145.621 374.313,145.803C374.625,145.908 374.936,146.013 375.248,146.117C375.533,146.212 375.818,146.308 376.103,146.404C376.206,146.439 376.31,146.473 376.413,146.508C376.553,146.555 376.693,146.602 376.833,146.649C376.894,146.669 376.894,146.669 376.956,146.69C377.151,146.756 377.327,146.831 377.502,146.965C377.359,147.157 377.274,147.177 377.079,147.242C377.015,147.264 376.95,147.285 376.884,147.308C376.813,147.331 376.742,147.354 376.67,147.378C376.556,147.416 376.442,147.454 376.329,147.492C376.206,147.533 376.084,147.574 375.961,147.614C375.702,147.699 375.443,147.786 375.185,147.872C374.87,147.977 374.554,148.082 374.239,148.187C373.691,148.369 373.143,148.553 372.596,148.737C372.538,148.757 372.538,148.757 372.478,148.777C372.282,148.843 372.086,148.909 371.891,148.975C371.534,149.095 371.178,149.215 370.821,149.335C370.622,149.402 370.423,149.469 370.224,149.536C370.144,149.563 369.907,149.643 369.866,149.657C366.962,150.634 358.331,153.54 358.054,153.633C357.995,153.653 357.995,153.653 357.936,153.673C357.857,153.7 357.778,153.726 357.7,153.753C357.503,153.819 357.305,153.886 357.108,153.952C356.754,154.071 356.4,154.19 356.047,154.309C355.851,154.375 355.654,154.441 355.458,154.507C355.399,154.527 355.399,154.527 355.339,154.547C354.767,154.739 354.196,154.932 353.624,155.126C353.292,155.238 352.96,155.35 352.627,155.463C352.353,155.555 352.079,155.648 351.805,155.741C351.636,155.798 351.467,155.855 351.299,155.912C351.183,155.951 351.066,155.991 350.95,156.03C350.881,156.053 350.812,156.076 350.741,156.1C350.651,156.131 350.651,156.131 350.558,156.162C350.415,156.205 350.415,156.205 350.296,156.205C350.319,156.266 350.341,156.327 350.365,156.39C351.711,160.009 353.056,163.627 354.401,167.246C354.562,167.68 354.724,168.114 354.885,168.548C354.933,168.678 354.933,168.678 354.982,168.81C355.503,170.211 356.024,171.612 356.545,173.013C357.079,174.45 357.613,175.886 358.147,177.323C358.477,178.21 358.806,179.097 359.136,179.984C359.362,180.591 359.588,181.199 359.813,181.807C359.943,182.158 360.074,182.509 360.205,182.86C360.325,183.181 360.444,183.502 360.563,183.823C360.606,183.94 360.65,184.056 360.693,184.172C360.752,184.329 360.81,184.487 360.868,184.645C360.917,184.777 360.917,184.777 360.967,184.911C361.036,185.126 361.036,185.126 361.036,185.367C350.58,178.328 350.58,178.328 339.914,171.147C339.835,171.571 339.756,171.995 339.675,172.432L339.68,172.435Z" style="fill:rgb(4,4,28);fill-rule:nonzero;"/>
        </g>
    </g>
</svg>
