<?xml version="1.0"?>

<svg width="100%" height="100%" viewBox="0 0 350 439" version="1.1" xmlns="http://www.w3.org/2000/svg" xmlns:xlink="http://www.w3.org/1999/xlink" xml:space="preserve" xmlns:serif="http://www.serif.com/" style="fill-rule:evenodd;clip-rule:evenodd;stroke-linejoin:round;stroke-miterlimit:2;">
    <g>
        <clipPath id="_clip1">
            <rect x="0" y="0" width="349.619" height="438.623"></rect>
        </clipPath>
        <g clip-path="url(#_clip1)">
            <g transform="matrix(1,0,0,1,-1,-47)">
                <g id="logomark">
                </g>
                <g transform="matrix(0.472718,0,0,0.472718,-639.379457,-155.648614)">
                    <g transform="matrix(2.14115,0,0,2.14115,0,0)">
                        <path d="M694.257,245.323C709.303,239.101 708.811,259.544 694.636,252.788C676.925,264.521 665.613,278.373 655.423,296.966C666.939,315.744 676.546,329.511 691.427,345.96C705.789,330.601 719.277,314.489 733.555,299.049C744.179,308.113 755.533,316.882 766.491,325.556C775.234,332.476 789.97,342.934 801.593,341.247C809.253,337.438 804.61,318.789 810.376,311.704C817.077,303.468 829.201,315.337 829.908,323.027C830.649,328.582 828.23,334.184 824.711,338.492C799.358,369.534 764.151,332.74 742.854,315.664C749.447,338.249 751.742,366.487 714.399,361.429C711.528,361.04 707.276,359.043 705.843,356.449C703.742,346.336 720.032,342.077 726.401,339.611C739.772,334.435 737.608,322.014 732.755,311.064C729.153,314.521 723.655,321.159 720.166,325.052L696.511,351.168L703.922,359.192C718.557,375.445 748.556,407.6 746.363,431.021C745.563,438.732 741.715,445.804 735.674,450.663C726.652,458.036 712.154,460.754 707.971,447.317C699.337,419.582 752.738,447.317 735.188,412.602C724.222,390.912 707.679,374.398 691.55,356.606C679.519,369.113 642.565,404.515 644.062,425.502C644.844,436.453 674.163,427.741 675.529,440.303C676.628,450.42 669.2,457.477 664.097,465.346C655.465,478.207 639.28,495.718 641.186,512.261C642.649,524.96 666.526,512.289 669.219,527.623C672.145,544.281 655.067,545.699 644.569,537.935C638.487,533.411 634.452,526.655 633.351,519.154C630.093,497.228 649.838,472.698 662.068,456.296C655.992,455.112 647.664,452.262 643.513,447.732C616.125,417.845 668.758,369.576 686.314,351.002C672.815,336.455 662.836,321.308 651.605,305.084C649.914,308.897 648.76,312.32 647.785,316.242C641.415,341.848 666.535,333.051 676.298,350.139C677.66,352.523 677.905,353.501 677.216,356.152C670.546,366.071 641.107,359.78 637.628,345.156C633.188,326.5 639.716,313.311 647.629,297.35C646.657,295.538 645.712,293.712 644.795,291.872C637.481,277.335 627.847,248.528 647.826,238.682C661.304,232.04 680.977,240.263 694.257,245.323ZM654.168,285.831C664.702,269.171 671.421,260.499 687.761,249.504L677.512,246.157C663.563,261.081 646.264,254.589 647.422,274.159C647.677,278.46 648.405,283.883 651.078,287.381L652.418,287.807C653.046,287.149 653.661,286.579 654.168,285.831Z" style="fill-rule:nonzero;"></path>
                    </g>
                    <g transform="matrix(-0,2.14115,2.14115,0,928.659698,-929.659698)">
                        <path d="M694.257,245.323C709.303,239.101 708.811,259.544 694.636,252.788C676.925,264.521 665.613,278.373 655.423,296.966C666.939,315.744 676.546,329.511 691.427,345.96C705.789,330.601 719.277,314.489 733.555,299.049C744.179,308.113 755.533,316.882 766.491,325.556C775.234,332.476 789.97,342.934 801.593,341.247C809.253,337.438 804.61,318.789 810.376,311.704C817.077,303.468 829.201,315.337 829.908,323.027C830.649,328.582 828.23,334.184 824.711,338.492C799.358,369.534 764.151,332.74 742.854,315.664C749.447,338.249 751.742,366.487 714.399,361.429C711.528,361.04 707.276,359.043 705.843,356.449C703.742,346.336 720.032,342.077 726.401,339.611C739.772,334.435 737.608,322.014 732.755,311.064C729.153,314.521 723.655,321.159 720.166,325.052L696.511,351.168L703.922,359.192C718.557,375.445 748.556,407.6 746.363,431.021C745.563,438.732 741.715,445.804 735.674,450.663C726.652,458.036 712.154,460.754 707.971,447.317C699.337,419.582 752.738,447.317 735.188,412.602C724.222,390.912 707.679,374.398 691.55,356.606C684.893,363.526 670.605,377.456 659.423,392.076C650.396,403.877 643.393,416.128 644.062,425.502C644.844,436.453 674.163,427.741 675.529,440.303C676.628,450.42 669.2,457.477 664.097,465.346C655.465,478.207 639.28,495.718 641.186,512.261C642.649,524.96 666.526,512.289 669.219,527.623C672.145,544.281 655.067,545.699 644.569,537.935C638.487,533.411 634.452,526.655 633.351,519.154C630.093,497.228 649.838,472.698 662.068,456.296C655.992,455.112 647.664,452.262 643.513,447.732C616.125,417.845 668.758,369.576 686.314,351.002C672.815,336.455 662.836,321.308 651.605,305.084C649.914,308.897 648.76,312.32 647.785,316.242C641.415,341.848 666.535,333.051 676.298,350.139C677.66,352.523 677.905,353.501 677.216,356.152C670.546,366.071 641.107,359.78 637.628,345.156C633.188,326.5 639.716,313.311 647.629,297.35C646.657,295.538 645.712,293.712 644.795,291.872C637.481,277.335 627.847,248.528 647.826,238.682C661.304,232.04 680.977,240.263 694.257,245.323ZM654.168,285.831C664.702,269.171 671.421,260.499 687.761,249.504L677.512,246.157C663.563,261.081 646.264,254.589 647.422,274.159C647.677,278.46 648.405,283.883 651.078,287.381L652.418,287.807C653.046,287.149 653.661,286.579 654.168,285.831Z" style="fill-rule:nonzero;"></path>
                    </g>
                </g>
            </g>
        </g>
    </g>
</svg>