<svg xmlns="http://www.w3.org/2000/svg" viewBox="0 0 600 776" role="img" aria-label="Oracle card back">
<defs><radialGradient id="bg" cx="50%" cy="42%" r="75%"><stop offset="0%" stop-color="#0d2233"/><stop offset="100%" stop-color="#081823"/></radialGradient></defs>
<rect width="600" height="776" rx="26" fill="url(#bg)"/>
<rect x="20" y="20" width="560" height="736" rx="16" fill="none" stroke="#d9c188" stroke-opacity="0.85" stroke-width="2.5"/>
<rect x="30" y="30" width="540" height="716" rx="10" fill="none" stroke="#d9c188" stroke-opacity="0.45" stroke-width="1"/>
<circle cx="300" cy="388" r="196" fill="none" stroke="#d9c188" stroke-opacity="0.5" stroke-width="1.5"/>
<polygon points="300.0,388.0 283.9,349.2 300.0,220.0" fill="#efe2bd"/>
<polygon points="300.0,388.0 300.0,220.0 316.1,349.2" fill="#bf9b4e"/>
<polygon points="300.0,388.0 316.1,349.2 382.0,306.0" fill="#efe2bd"/>
<polygon points="300.0,388.0 382.0,306.0 338.8,371.9" fill="#bf9b4e"/>
<polygon points="300.0,388.0 338.8,371.9 468.0,388.0" fill="#efe2bd"/>
<polygon points="300.0,388.0 468.0,388.0 338.8,404.1" fill="#bf9b4e"/>
<polygon points="300.0,388.0 338.8,404.1 382.0,470.0" fill="#efe2bd"/>
<polygon points="300.0,388.0 382.0,470.0 316.1,426.8" fill="#bf9b4e"/>
<polygon points="300.0,388.0 316.1,426.8 300.0,556.0" fill="#efe2bd"/>
<polygon points="300.0,388.0 300.0,556.0 283.9,426.8" fill="#bf9b4e"/>
<polygon points="300.0,388.0 283.9,426.8 218.0,470.0" fill="#efe2bd"/>
<polygon points="300.0,388.0 218.0,470.0 261.2,404.1" fill="#bf9b4e"/>
<polygon points="300.0,388.0 261.2,404.1 132.0,388.0" fill="#efe2bd"/>
<polygon points="300.0,388.0 132.0,388.0 261.2,371.9" fill="#bf9b4e"/>
<polygon points="300.0,388.0 261.2,371.9 218.0,306.0" fill="#efe2bd"/>
<polygon points="300.0,388.0 218.0,306.0 283.9,349.2" fill="#bf9b4e"/>
<circle cx="300" cy="388" r="7" fill="#081823"/>
</svg>